<?xml version="1.0" standalone="no"?>
<!DOCTYPE svg PUBLIC "-//W3C//DTD SVG 1.1//EN" "http://www.w3.org/Graphics/SVG/1.1/DTD/svg11.dtd" >
<svg xmlns="http://www.w3.org/2000/svg" xmlns:xlink="http://www.w3.org/1999/xlink" version="1.1">
<metadata></metadata>
<defs>
<font id="crete_roundregular" horiz-adv-x="500" >
<font-face units-per-em="1000" ascent="800" descent="-200" />
<missing-glyph horiz-adv-x="200" />
<glyph unicode="&#xd;" horiz-adv-x="200" />
<glyph unicode=" "  horiz-adv-x="200" />
<glyph unicode="&#x09;" horiz-adv-x="200" />
<glyph unicode="&#xa0;" horiz-adv-x="200" />
<glyph unicode="!" horiz-adv-x="253" d="M138 156h-24q-11 0 -15 4t-5 15l-22 335v149q0 11 4 15t15 4h70q11 0 15 -4t4 -15v-151l-22 -333q-1 -11 -5 -15t-15 -4zM126 -17q-31 0 -49.5 17.5t-18.5 44.5q0 26 19 44t48 18q31 0 49.5 -17t18.5 -44t-17.5 -45t-49.5 -18z" />
<glyph unicode="&#x22;" horiz-adv-x="374" d="M125 457h-28q-12 0 -16.5 3.5t-5.5 15.5l-12 83q-3 16 -3 38v63q0 11 4 15t15 4h64q11 0 15 -4t4 -15v-65q0 -20 -3 -38l-12 -81q-1 -12 -5.5 -15.5t-16.5 -3.5zM277 457h-28q-12 0 -16.5 3.5t-5.5 15.5l-12 83q-3 16 -3 38v63q0 11 4 15t15 4h64q11 0 15 -4t4 -15v-65 q0 -20 -3 -38l-12 -81q-1 -12 -5.5 -15.5t-16.5 -3.5z" />
<glyph unicode="#" horiz-adv-x="563" d="M183 330h-103q-10 0 -13.5 3t-3.5 14v2q0 11 3.5 14t13.5 3h110l28 148q1 10 5.5 13.5t15.5 3.5h2q17 0 14 -17l-28 -148h132l26 148q1 10 5.5 13.5t15.5 3.5h2q17 0 14 -17l-26 -148h110q10 0 13.5 -3t3.5 -14v-2q0 -11 -3.5 -14t-13.5 -3h-117l-21 -123h115 q11 0 14 -3.5t3 -13.5v-2q0 -10 -3 -13.5t-14 -3.5h-122l-30 -171q-1 -10 -5 -13.5t-15 -3.5h-2q-10 0 -13.5 3.5t-1.5 13.5l30 171h-133l-32 -171q-1 -10 -5 -13.5t-15 -3.5h-2q-10 0 -13.5 3.5t-1.5 13.5l32 171h-97q-11 0 -14 3.5t-3 13.5v2q0 10 3 13.5t14 3.5h103z M352 330h-132l-23 -123h134z" />
<glyph unicode="$" horiz-adv-x="431" d="M165 -98h-4q-11 0 -14.5 4t-2.5 15l9 64q-52 3 -104 17q-11 3 -14.5 7.5t-3.5 15.5v106q0 11 4 15t15 4h48q11 0 15 -4t3 -15l-3 -54q15 -12 50 -17l20 152q-28 10 -42.5 16t-37.5 19.5t-35 28t-21.5 37.5t-9.5 52q0 71 51.5 117t138.5 49l6 46q2 11 6.5 15t15.5 4h4 q11 0 14.5 -4t1.5 -15l-6 -47q37 -2 88 -15q11 -3 14.5 -7.5t3.5 -15.5v-106q0 -11 -4 -15t-15 -4h-48q-11 0 -14.5 4t-2.5 15l5 53q-21 10 -38 13l-18 -139q28 -11 36.5 -14.5t33.5 -15.5t35.5 -22.5t25.5 -27.5t21 -39t6 -49q0 -73 -54.5 -117t-148.5 -45l-8 -62 q-2 -11 -6.5 -15t-15.5 -4zM205 57q85 2 85 65q0 27 -16 43.5t-51 31.5zM216 454q-75 -5 -75 -60q0 -24 14 -39t45 -30z" />
<glyph unicode="%" horiz-adv-x="832" d="M40 472q0 89 49 137t116 48q71 0 115 -46.5t44 -136.5q0 -88 -45.5 -138.5t-115.5 -50.5q-72 0 -117.5 50.5t-45.5 136.5zM128 468q0 -59 18 -87t57 -28q74 0 74 119q0 63 -17 91t-56 28t-57.5 -29t-18.5 -94zM468 170q0 89 49 137t116 48q71 0 115 -46.5t44 -136.5 q0 -88 -45.5 -138.5t-115.5 -50.5q-72 0 -117.5 50.5t-45.5 136.5zM556 166q0 -115 75 -115q38 0 56 28.5t18 90.5q0 63 -17 91t-56 28t-57.5 -29t-18.5 -94zM607 638l-308 -638q-5 -11 -10 -14t-17 -3h-39q-19 0 -11 17l307 638q5 11 10 14t17 3h40q19 0 11 -17z" />
<glyph unicode="&#x26;" horiz-adv-x="647" d="M588 320h-45v-261q0 -18 -16 -27q-42 -22 -103.5 -36t-117.5 -14q-226 0 -226 194q0 73 40 122t97 62q-121 44 -121 154q0 78 54.5 130t154.5 52q178 0 179 -164q1 -11 -3 -15t-15 -4h-53q-12 0 -16 4t-5 15q-3 40 -23 60t-66 20q-50 0 -75.5 -29.5t-25.5 -74.5t28.5 -75 t97.5 -30h260q11 0 15 -4t4 -15v-46q0 -11 -4 -15t-15 -3zM185 184q0 -58 34 -88.5t99 -30.5q68 0 115 28v227h-94q-75 0 -114.5 -38t-39.5 -98z" />
<glyph unicode="'" horiz-adv-x="222" d="M125 457h-28q-12 0 -16.5 3.5t-5.5 15.5l-12 83q-3 16 -3 38v63q0 11 4 15t15 4h64q11 0 15 -4t4 -15v-65q0 -20 -3 -38l-12 -81q-1 -12 -5.5 -15.5t-16.5 -3.5z" />
<glyph unicode="(" horiz-adv-x="336" d="M301 -85v-46q0 -11 -4 -15t-15 -4h-105q-12 0 -16.5 3.5t-5.5 15.5l-72 419q-3 19 0 38l62 401q1 12 5.5 15.5t16.5 3.5h105q11 0 15 -4t4 -15v-49q0 -11 -4 -15t-15 -3l-43 3l-53 -356l61 -377l45 3q11 1 15 -3t4 -15z" />
<glyph unicode=")" horiz-adv-x="336" d="M35 -131v46q0 11 4 15t15 3l45 -3l61 377l-53 356l-43 -3q-11 -1 -15 3t-4 15v49q0 11 4 15t15 4h105q12 0 16.5 -3.5t5.5 -15.5l62 -401q3 -19 0 -38l-72 -419q-1 -12 -5.5 -15.5t-16.5 -3.5h-105q-11 0 -15 4t-4 15z" />
<glyph unicode="*" horiz-adv-x="486" d="M205 610l14 117q2 11 6 15t15 4h5q11 0 15 -4t6 -15l11 -117l109 49q17 9 26 -8l1 -2q9 -16 -6 -27l-99 -68l100 -72q15 -11 5 -27l-2 -1q-6 -10 -11 -11.5t-16 3.5l-105 49l-14 -115q-2 -11 -6 -15t-15 -4h-4q-11 0 -15 4t-6 15l-12 115l-108 -49q-17 -9 -26 9l-1 1 q-9 17 6 28l98 68l-98 71q-15 11 -5 27l1 2q6 10 11.5 11.5t15.5 -3.5z" />
<glyph unicode="+" horiz-adv-x="530" d="M54 330h173v173q0 11 4 15t15 4h35q11 0 15 -4t4 -15v-173h176q11 0 15 -4t4 -15v-27q0 -11 -4 -15t-15 -4h-176v-188q0 -11 -4 -15t-15 -4h-35q-11 0 -15 4t-4 15v188h-173q-11 0 -15 4t-4 15v27q0 11 4 15t15 4z" />
<glyph unicode="," horiz-adv-x="292" d="M169 -58l-55 -87q-6 -10 -11 -11.5t-16 3.5l-6 2q-11 5 -13 10t2 16l36 106q-1 2 -6.5 8t-8 9t-7 9.5t-7 11.5t-5.5 11.5t-4 13.5t-1 15q0 28 19.5 47t52.5 19q36 0 56 -18.5t20 -51.5q0 -38 -46 -113z" />
<glyph unicode="-" horiz-adv-x="282" d="M233 218h-184q-11 0 -15 4t-4 15v59q0 11 4 15t15 4h184q11 0 15 -4t4 -15v-59q0 -11 -4 -15t-15 -4z" />
<glyph unicode="." horiz-adv-x="279" d="M126 -19q-35 0 -55 19.5t-20 49.5q0 29 21 49t53 20q34 0 55 -19t21 -49t-20 -50t-55 -20z" />
<glyph unicode="/" horiz-adv-x="449" d="M408 727l-295 -810q-4 -11 -8.5 -14.5t-16.5 -3.5h-39q-11 0 -14 3.5t1 14.5l294 810q4 11 8.5 14.5t16.5 3.5h40q11 0 14 -3.5t-1 -14.5z" />
<glyph unicode="0" horiz-adv-x="576" d="M35 252q0 74 22.5 130t61 87.5t82.5 46.5t92 15q107 0 177.5 -65t70.5 -204q0 -141 -72 -207.5t-187 -66.5q-113 0 -180 67.5t-67 196.5zM152 253q0 -85 32.5 -134t101.5 -49q71 0 105.5 44.5t34.5 140.5q0 192 -137 192t-137 -194z" />
<glyph unicode="1" horiz-adv-x="339" d="M44 511h168q11 0 15 -4t4 -15v-413h69q11 1 15 -3t4 -15v-42q0 -11 -4 -15t-15 -4h-250q-11 0 -15 4t-4 15v42q0 11 4 15t15 3h69v353l-75 -4q-11 -1 -15 3t-4 15v46q0 11 4 15t15 4z" />
<glyph unicode="2" horiz-adv-x="526" d="M231 447q-88 0 -100 -86q-2 -11 -6 -15t-15 -4h-52q-11 0 -15 4t-3 15q4 81 59 125.5t145 44.5q92 0 143.5 -42.5t51.5 -127.5q0 -41 -16 -78.5t-38 -64.5t-58 -54.5t-63.5 -44t-66.5 -37.5h206l-4 50q-1 11 3 15t15 4h47q11 0 15 -4t4 -15v-166q0 -11 -4 -15t-15 -4h-47 q-11 0 -15 4t-3 15l3 34h-340q-11 0 -15 4t-4 15v41q0 18 17 26q56 29 93.5 52t81.5 57.5t66.5 74t22.5 83.5t-20 69t-73 25z" />
<glyph unicode="3" horiz-adv-x="483" d="M230 447q-92 0 -102 -86q-2 -11 -6 -15t-15 -4h-53q-11 0 -15 4t-3 15q4 84 60.5 127t141.5 43q93 0 141.5 -41t48.5 -117q0 -109 -129 -156q59 -8 101 -48.5t42 -112.5q0 -90 -61 -143.5t-163 -53.5q-96 0 -145.5 40.5t-52.5 127.5q-1 11 3 15t15 4h56q12 0 15.5 -3.5 t5.5 -15.5q4 -46 29 -65.5t77 -19.5q54 0 82.5 26t28.5 89q0 107 -107 112q-11 1 -30.5 1h-29.5q-11 0 -15 4t-4 15v44q0 11 4 14.5t15 4.5q51 3 65 5q90 17 90 103q0 87 -90 87z" />
<glyph unicode="4" horiz-adv-x="524" d="M486 15h-83v-129q0 -11 -4 -15t-15 -4h-72q-11 0 -15 4t-4 15v129h-244q-11 0 -15 4t-4 15v44q0 20 10 35l237 382q10 16 29 16h79q11 0 15 -4t4 -15v-393h82q11 0 15 -4t4 -15v-46q0 -11 -4 -15t-15 -4zM294 394l-182 -295h182v295z" />
<glyph unicode="5" horiz-adv-x="475" d="M403 415h-227l-21 -149q47 27 101 27q79 0 129.5 -52t50.5 -148q0 -111 -60 -172.5t-166 -61.5q-190 0 -199 170q0 11 3.5 15t14.5 4h59q11 0 15 -4t6 -15q8 -87 99 -87q116 0 116 137q0 128 -105 128q-51 0 -96 -34q-16 -11 -34 -4l-11 5q-11 5 -13.5 9.5t-1.5 16.5 l33 292q2 11 6 15t15 4h286q11 0 15 -4t4 -15v-58q0 -11 -4 -15t-15 -4z" />
<glyph unicode="6" horiz-adv-x="546" d="M312 656q157 0 170 -149q1 -11 -2.5 -15t-14.5 -4h-55q-12 0 -16 4t-6 15q-10 65 -83 65q-146 0 -151 -221q53 74 155 74q94 0 144.5 -54.5t50.5 -144.5q0 -106 -60.5 -172t-164.5 -66q-237 0 -237 307q0 182 70.5 271.5t199.5 89.5zM276 338q-43 0 -75.5 -20t-41.5 -62 q-3 -16 -3 -35q0 -64 27.5 -107.5t92.5 -43.5q118 0 118 138q0 130 -118 130z" />
<glyph unicode="7" horiz-adv-x="461" d="M333 415h-304q-11 0 -15 4t-4 15v58q0 11 4 15t15 4h403q11 0 15 -4t4 -15v-44q0 -20 -8 -36l-253 -528q-8 -17 -27 -17h-75q-19 0 -11 17z" />
<glyph unicode="8" horiz-adv-x="534" d="M38 153q0 113 130 182q-50 29 -75 62.5t-25 88.5q0 81 59 125.5t144 44.5q88 0 136 -40.5t48 -101.5q0 -54 -28.5 -89.5t-81.5 -70.5q81 -35 113 -73.5t32 -103.5q0 -85 -62 -137t-173 -52q-108 0 -162.5 45.5t-54.5 119.5zM379 163q0 26 -11.5 47.5t-37.5 38.5t-39.5 24 t-44.5 21q-102 -59 -102 -134q0 -93 115 -93q120 0 120 96zM351 506q0 72 -80 72q-42 0 -68 -20t-26 -58t23 -63t65 -47q27 19 42.5 32t29.5 36t14 48z" />
<glyph unicode="9" horiz-adv-x="546" d="M239 -142q-165 0 -176 149q-1 11 3 15t15 4h55q12 0 16 -3.5t6 -15.5q7 -33 25 -49t60 -16q144 0 149 221q-53 -74 -155 -74q-95 0 -145 58t-50 154q0 101 60 165.5t165 64.5q120 0 178.5 -74t58.5 -229q0 -370 -265 -370zM270 176q46 0 78.5 25t39.5 69q2 11 2 35 q0 59 -28 101.5t-92 42.5q-118 0 -118 -140q0 -133 118 -133z" />
<glyph unicode=":" horiz-adv-x="279" d="M126 -19q-35 0 -55 19.5t-20 49.5q0 29 21 49t53 20q34 0 55 -19t21 -49t-20 -50t-55 -20zM126 378q-35 0 -55 19.5t-20 49.5q0 29 21 49t53 20q34 0 55 -19t21 -49t-20 -50t-55 -20z" />
<glyph unicode=";" horiz-adv-x="300" d="M169 -58l-55 -87q-6 -10 -11 -11.5t-16 3.5l-6 2q-11 5 -13 10t2 16l36 106q-1 2 -6.5 8t-8 9t-7 9.5t-7 11.5t-5.5 11.5t-4 13.5t-1 15q0 28 19.5 47t52.5 19q36 0 56 -18.5t20 -51.5q0 -38 -46 -113zM147 378q-35 0 -55 19.5t-20 49.5q0 29 21 49t53 20q34 0 55 -19 t21 -49t-20 -50t-55 -20z" />
<glyph unicode="&#x3c;" horiz-adv-x="530" d="M477 465v-40q0 -12 -3 -16.5t-14 -9.5l-321 -131l321 -139q11 -5 14 -10t3 -17v-42q0 -19 -17 -11l-390 175q-17 8 -17 27v30q0 12 3 16.5t14 9.5l390 170q17 7 17 -12z" />
<glyph unicode="=" horiz-adv-x="530" d="M35 339v27q0 11 4 15t15 4h422q11 0 15 -4t4 -15v-27q0 -11 -4 -15t-15 -4h-422q-11 0 -15 4t-4 15zM35 160v27q0 11 4 15t15 4h422q11 0 15 -4t4 -15v-27q0 -11 -4 -15t-15 -4h-422q-11 0 -15 4t-4 15z" />
<glyph unicode="&#x3e;" horiz-adv-x="530" d="M391 268l-324 132q-14 6 -14 21v48q0 15 14 9l396 -172q14 -6 14 -21v-38q0 -15 -14 -21l-396 -179q-14 -6 -14 9v50q0 15 14 21z" />
<glyph unicode="?" horiz-adv-x="465" d="M226 158h-48q-11 0 -15 4t-4 15v170q0 11 3.5 15.5t14.5 7.5q144 32 144 144q0 105 -96 105q-87 0 -97 -86q-2 -11 -6 -15t-15 -4h-53q-11 0 -15 4t-3 15q4 80 58 121.5t143 41.5q88 0 140.5 -44.5t52.5 -129.5q0 -89 -50.5 -142t-134.5 -75v-128q0 -11 -4 -15t-15 -4z M201 -17q-31 0 -49.5 17.5t-18.5 44.5q0 26 19 44t48 18q31 0 49.5 -17t18.5 -44t-17.5 -45t-49.5 -18z" />
<glyph unicode="@" horiz-adv-x="848" d="M47 229q0 178 108.5 287t288.5 109q171 0 267 -92t96 -264q0 -50 -8.5 -93t-28.5 -85t-60.5 -66.5t-97.5 -24.5q-39 0 -63.5 16t-25.5 47q-52 -63 -138 -63q-58 0 -98.5 32t-40.5 100q0 37 12.5 66t35.5 46.5t48 29t59.5 17t59.5 7.5t56 2v24q0 47 -18.5 69.5t-63.5 22.5 q-44 0 -61.5 -13t-21.5 -40q-2 -11 -6 -15t-16 -4h-45q-11 0 -14.5 4t-2.5 15q7 68 59 97.5t125 29.5q166 0 166 -153v-240q0 -49 33 -49q54 0 83.5 60.5t29.5 154.5q0 153 -85 238.5t-242 85.5q-156 0 -249 -100t-93 -256q0 -168 95 -249.5t250 -81.5q31 0 62 3 q11 1 14.5 -2t5.5 -14v-2q3 -18 -15 -19q-36 -3 -71 -3q-85 0 -155 22t-122.5 65.5t-82 114.5t-29.5 164zM519 147v89q-31 -1 -47 -2t-44 -6t-42.5 -13.5t-26.5 -26t-12 -42.5q0 -68 76 -68q45 0 70.5 20.5t25.5 48.5z" />
<glyph unicode="A" horiz-adv-x="696" d="M214 214l-46 -135h60q15 0 15 -15v-49q0 -15 -15 -15h-213q-15 0 -15 15v49q0 15 15 15h59l200 586q6 14 20 14h97q14 0 20 -14l202 -586h68q15 0 15 -15v-49q0 -15 -15 -15h-251q-15 0 -15 15v49q0 15 15 15h62l-47 135h-231zM329 583l-95 -294h189z" />
<glyph unicode="B" horiz-adv-x="587" d="M39 15v49q0 15 15 15h53v519h-52q-15 0 -15 15v51q0 16 15 16q120 5 213 5q123 0 187.5 -41.5t64.5 -118.5q0 -56 -34.5 -97.5t-81.5 -60.5q77 -12 117.5 -57t40.5 -110q0 -85 -63 -137.5t-167 -59.5q-43 -3 -138 -3h-140q-15 0 -15 15zM219 315v-238h45q88 0 136.5 28 t48.5 97q0 113 -158 113h-72zM219 604v-206h38q148 0 148 103q0 58 -36 80.5t-103 22.5h-47z" />
<glyph unicode="C" horiz-adv-x="629" d="M43 336q0 96 28.5 169t75.5 113t99.5 59t109.5 19q116 0 209 -51q13 -7 13 -20v-129q0 -15 -15 -15h-56q-15 0 -14 15l3 70q-62 42 -141 42q-192 0 -192 -256q0 -80 19 -139.5t67 -98.5t123 -39q85 0 125 32l-4 70q-1 15 14 15h57q15 0 15 -15v-127q0 -14 -10 -19 q-88 -43 -201 -43q-164 0 -244.5 93t-80.5 255z" />
<glyph unicode="D" horiz-adv-x="679" d="M271 685q36 0 66.5 -2.5t69.5 -10.5t69.5 -21.5t61.5 -38.5t51.5 -58.5t33.5 -83.5t13 -112q0 -181 -100 -269.5t-273 -88.5h-208q-15 0 -15 15v49q0 15 15 15h52v519h-52q-15 0 -15 15v51q0 15 15 15q128 6 216 6zM516 340q0 132 -56.5 197t-176.5 65h-64v-524h66 q110 0 170.5 72t60.5 190z" />
<glyph unicode="E" horiz-adv-x="555" d="M220 599v-213h149l-4 51q-1 15 14 15h56q15 0 15 -15v-177q0 -15 -15 -15h-56q-15 0 -14 15l3 48h-148v-230h229l-4 71q-1 15 14 15h56q15 0 15 -15v-134q0 -15 -15 -15h-460q-15 0 -15 15v49q0 15 15 15h53v519h-53q-15 0 -15 15v51q0 15 15 15h440q15 0 15 -15v-134 q0 -15 -15 -15h-56q-15 0 -14 15l4 69h-209z" />
<glyph unicode="F" horiz-adv-x="540" d="M220 599v-208h159l-4 51q-1 15 14 15h56q15 0 15 -15v-177q0 -15 -15 -15h-56q-15 0 -14 15l3 48h-158v-234h103q15 0 15 -15v-49q0 -15 -15 -15h-268q-15 0 -15 15v49q0 15 15 15h53v519h-53q-15 0 -15 15v51q0 15 15 15h450q15 0 15 -15v-134q0 -15 -15 -15h-56 q-15 0 -14 15l4 69h-219z" />
<glyph unicode="G" horiz-adv-x="695" d="M607 234v-170q0 -14 -14 -21q-43 -23 -106.5 -39t-118.5 -16q-86 0 -150 27t-101.5 76t-55.5 111.5t-18 138.5q0 94 28.5 165.5t75.5 111.5t99.5 59t109.5 19q122 0 208 -53q14 -8 14 -22v-125q0 -15 -15 -15h-57q-15 0 -14 15l3 67q-63 45 -140 45q-70 0 -114.5 -36.5 t-61 -90t-16.5 -124.5q0 -80 18.5 -140t67 -100t123.5 -40q80 0 132 35v122h-64q-15 0 -15 15v50q0 15 15 15h220q15 0 15 -15v-50q0 -15 -15 -15h-53z" />
<glyph unicode="H" horiz-adv-x="743" d="M220 598v-206h303v206h-53q-15 0 -15 15v51q0 15 15 15h218q15 0 15 -15v-51q0 -15 -15 -15h-53v-519h53q15 0 15 -15v-49q0 -15 -15 -15h-218q-15 0 -15 15v49q0 15 15 15h53v227h-303v-227h53q15 0 15 -15v-49q0 -15 -15 -15h-218q-15 0 -15 15v49q0 15 15 15h53v519 h-53q-15 0 -15 15v51q0 15 15 15h218q15 0 15 -15v-51q0 -15 -15 -15h-53z" />
<glyph unicode="I" horiz-adv-x="328" d="M220 598v-519h53q15 0 15 -15v-49q0 -15 -15 -15h-218q-15 0 -15 15v49q0 15 15 15h53v519h-53q-15 0 -15 15v51q0 15 15 15h218q15 0 15 -15v-51q0 -15 -15 -15h-53z" />
<glyph unicode="J" horiz-adv-x="329" d="M109 -38v636h-53q-15 0 -15 15v51q0 15 15 15h218q15 0 15 -15v-51q0 -15 -15 -15h-53v-640q0 -198 -183 -198q-69 0 -113 21q-10 5 -5 19l18 52q5 15 18 10q34 -13 70 -13q43 0 63 26t20 87z" />
<glyph unicode="K" horiz-adv-x="664" d="M220 598v-214h52l186 214h-53q-15 0 -15 15v51q0 15 15 15h204q15 0 15 -15v-53q0 -15 -15 -15h-51l-198 -231l199 -286h65q15 0 15 -15v-49q0 -15 -15 -15h-128q-15 0 -24 12l-201 290h-51v-223h53q15 0 15 -15v-49q0 -15 -15 -15h-218q-15 0 -15 15v49q0 15 15 15h53 v519h-53q-15 0 -15 15v51q0 15 15 15h218q15 0 15 -15v-51q0 -15 -15 -15h-53z" />
<glyph unicode="L" horiz-adv-x="525" d="M220 598v-519h209l-4 70q-1 15 14 15h56q15 0 15 -15v-197q0 -15 -15 -15h-56q-15 0 -14 15l3 48h-373q-15 0 -15 15v49q0 15 15 15h53v519h-53q-15 0 -15 15v51q0 15 15 15h238q15 0 15 -15v-51q0 -15 -15 -15h-73z" />
<glyph unicode="M" horiz-adv-x="909" d="M476 0h-66q-15 0 -21 14l-194 493v-428h63q15 0 15 -15v-49q0 -15 -15 -15h-203q-15 0 -15 15v49q0 15 15 15h53v519h-53q-15 0 -15 15v51q0 15 15 15h175q16 0 20 -14l206 -537l211 537q4 14 20 14h167q15 0 15 -15v-51q0 -15 -15 -15h-53v-519h53q15 0 15 -15v-49 q0 -15 -15 -15h-220q-15 0 -15 15v49q0 15 15 15h60v427l-197 -492q-6 -14 -21 -14z" />
<glyph unicode="N" horiz-adv-x="743" d="M645 598v-583q0 -15 -15 -15h-73q-15 0 -23 12l-339 501v-434h83q15 0 15 -15v-49q0 -15 -15 -15h-223q-15 0 -15 15v49q0 15 15 15h53v519h-53q-15 0 -15 15v51q0 15 15 15h147q14 0 23 -13l333 -506v438h-53q-15 0 -15 15v51q0 15 15 15h193q15 0 15 -15v-51 q0 -15 -15 -15h-53z" />
<glyph unicode="O" horiz-adv-x="692" d="M43 333q0 100 30 174.5t78.5 113.5t99 57t103.5 18q37 0 71 -6t77 -26.5t73.5 -55t52 -98.5t21.5 -149q0 -180 -88.5 -276.5t-227.5 -96.5q-138 0 -214 88t-76 257zM345 82q179 0 179 260q0 266 -182 266q-64 0 -105.5 -34.5t-57.5 -86t-16 -119.5q0 -286 182 -286z" />
<glyph unicode="P" horiz-adv-x="565" d="M40 15v49q0 15 15 15h52v520h-52q-15 0 -15 15v50q0 15 15 15q128 6 209 6q266 0 266 -195q0 -101 -65 -160t-177 -59q-44 0 -69 3v-195h83q15 0 15 -15v-49q0 -15 -15 -15h-247q-15 0 -15 15zM219 602v-251q9 -1 46 -1q150 0 150 133q0 48 -24.5 75.5t-57 35.5t-78.5 8 h-36z" />
<glyph unicode="Q" horiz-adv-x="692" d="M43 332q0 81 20.5 145.5t52 104.5t74 66.5t83 37t81.5 10.5q37 0 71 -6t77 -27t73.5 -55.5t52 -98.5t21.5 -149q0 -126 -45 -210.5t-123 -126.5q19 -69 91 -131q11 -9 2 -21l-23 -28q-8 -10 -22 -3q-132 68 -172 149q-4 0 -12 -0.5t-12 -0.5q-139 0 -214.5 87.5 t-75.5 256.5zM345 82q179 0 179 259q0 267 -182 267q-64 0 -105.5 -35t-57.5 -86.5t-16 -119.5q0 -285 182 -285z" />
<glyph unicode="R" horiz-adv-x="616" d="M40 15v49q0 15 15 15h52v520h-52q-15 0 -15 15v50q0 15 15 15q128 6 213 6q260 0 260 -186q0 -65 -33 -114.5t-88 -75.5l117 -230h62q15 0 15 -15v-49q0 -15 -15 -15h-132q-15 0 -22 13l-136 269h-20q-32 0 -57 3v-206h63q15 0 15 -15v-49q0 -15 -15 -15h-227 q-15 0 -15 15zM219 602v-241q8 -1 23 -1q81 0 126 32t45 96q0 114 -158 114h-36z" />
<glyph unicode="S" horiz-adv-x="517" d="M283 696q74 0 148 -22q14 -4 14 -18v-138q0 -15 -15 -15h-56q-15 0 -14 15l3 67q-40 24 -90 24q-48 0 -77.5 -23.5t-29.5 -64.5q0 -43 27 -69.5t90 -50.5q37 -14 54 -21t49.5 -26t48 -37.5t29 -49.5t13.5 -69q0 -99 -62.5 -154.5t-177.5 -55.5q-85 0 -168 26 q-14 4 -14 18v159q0 15 15 15h56q15 0 14 -15l-4 -83q13 -12 43.5 -22.5t62.5 -10.5q124 0 124 101q0 49 -33 77.5t-99 50.5q-39 13 -66 26.5t-55 35t-42 54t-14 74.5q0 88 60 145t166 57z" />
<glyph unicode="T" horiz-adv-x="593" d="M436 0h-278q-15 0 -15 15v49q0 15 15 15h82v520h-135l5 -78q1 -15 -14 -15h-61q-15 0 -15 15v143q0 15 15 15h523q15 0 15 -15v-143q0 -15 -15 -15h-61q-15 0 -14 15l5 78h-135v-520h83q15 0 15 -15v-49q0 -15 -15 -15z" />
<glyph unicode="U" horiz-adv-x="713" d="M205 598v-314q0 -50 5 -82.5t20 -63.5t47 -45.5t83 -14.5q90 0 127 52t37 151v317h-53q-15 0 -15 15v51q0 15 15 15h202q15 0 15 -15v-51q0 -15 -15 -15h-53v-338q0 -55 -12 -100t-40 -85.5t-81.5 -63.5t-129.5 -23q-148 0 -206 64.5t-58 196.5v349h-53q-15 0 -15 15v51 q0 15 15 15h218q15 0 15 -15v-51q0 -15 -15 -15h-53z" />
<glyph unicode="V" horiz-adv-x="684" d="M269 14l-187 584h-62q-15 0 -15 15v51q0 15 15 15h254q15 0 15 -15v-51q0 -15 -15 -15h-61l142 -479l162 479h-64q-15 0 -15 15v51q0 15 15 15h211q15 0 15 -15v-51q0 -15 -15 -15h-53l-205 -584q-6 -14 -20 -14h-97q-14 0 -20 14z" />
<glyph unicode="W" horiz-adv-x="997" d="M216 15l-144 583h-52q-15 0 -15 15v51q0 15 15 15h250q15 0 15 -15v-51q0 -15 -15 -15h-71l107 -465l146 532q4 14 19 14h82q15 0 19 -14l145 -535l115 468h-66q-15 0 -15 15v51q0 15 15 15h211q15 0 15 -15v-51q0 -15 -15 -15h-53l-154 -583q-4 -15 -19 -15h-94 q-15 0 -19 14l-140 498l-134 -498q-4 -14 -19 -14h-110q-15 0 -19 15z" />
<glyph unicode="X" horiz-adv-x="677" d="M176 78h63q15 0 15 -15v-48q0 -15 -15 -15h-218q-15 0 -15 15v48q0 15 15 15h53l195 260l-190 260h-54q-15 0 -15 15v51q0 15 15 15h250q15 0 15 -15v-51q0 -15 -15 -15h-61l129 -180l131 180h-56q-15 0 -15 15v51q0 15 15 15h211q15 0 15 -15v-51q0 -15 -15 -15h-52 l-185 -242l199 -278h61q15 0 15 -15v-48q0 -15 -15 -15h-262q-15 0 -15 15v48q0 15 15 15h64l-136 191z" />
<glyph unicode="Y" horiz-adv-x="664" d="M279 257l-202 341h-52q-15 0 -15 15v51q0 15 15 15h254q15 0 15 -15v-51q0 -15 -15 -15h-71l144 -246l143 246h-67q-15 0 -15 15v51q0 15 15 15h211q15 0 15 -15v-51q0 -15 -15 -15h-53l-195 -328v-192h53q15 0 15 -15v-48q0 -15 -15 -15h-218q-15 0 -15 15v48 q0 15 15 15h53v179z" />
<glyph unicode="Z" horiz-adv-x="588" d="M63 679h472q15 0 15 -15v-48q0 -15 -9 -27l-376 -511h306l-6 71q-1 15 14 15h59q15 0 15 -15v-197q0 -15 -15 -15h-56q-15 0 -14 15l3 48h-425q-15 0 -15 15v48q0 15 9 27l372 511h-279l5 -80q1 -15 -14 -15h-61q-15 0 -15 15v143q0 15 15 15z" />
<glyph unicode="[" horiz-adv-x="337" d="M309 -83v-48q0 -11 -4 -15t-15 -4h-145q-11 0 -15 4t-4 15v858q0 11 4 15t15 4h145q11 0 15 -4t4 -15v-51q0 -11 -4 -15t-15 -3l-68 5v-733l68 5q11 1 15 -3t4 -15z" />
<glyph unicode="\" horiz-adv-x="434" d="M321 -83l-295 810q-4 11 -1 14.5t14 3.5h40q12 0 16.5 -3.5t8.5 -14.5l294 -810q4 -11 1 -14.5t-14 -3.5h-39q-12 0 -16.5 3.5t-8.5 14.5z" />
<glyph unicode="]" horiz-adv-x="337" d="M28 -131v48q0 11 4 15t15 3l68 -5v733l-68 -5q-11 -1 -15 3t-4 15v51q0 11 4 15t15 4h145q11 0 15 -4t4 -15v-858q0 -11 -4 -15t-15 -4h-145q-11 0 -15 4t-4 15z" />
<glyph unicode="^" horiz-adv-x="584" d="M394 328l-115 259l-116 -259q-6 -14 -21 -14h-66q-15 0 -8 14l168 348q6 14 21 14h47q15 0 21 -14l168 -348q6 -14 -9 -14h-69q-15 0 -21 14z" />
<glyph unicode="_" d="M488 -161h-476q-11 0 -15 4t-4 15v19q0 11 4 15t15 4h476q11 0 15 -4t4 -15v-19q0 -11 -4 -15t-15 -4z" />
<glyph unicode="`" d="M302 714l43 -116q4 -10 1 -14t-14 -4h-44q-20 0 -28 17l-65 118q-5 10 -3 13.5t13 3.5h72q12 0 16.5 -3.5t8.5 -14.5z" />
<glyph unicode="a" horiz-adv-x="524" d="M328 297v35q0 21 -2.5 36t-11 30t-27 23t-46.5 8q-44 0 -63.5 -16.5t-26.5 -47.5q-3 -15 -15 -15h-64q-16 0 -14 15q4 73 59 107t140 34q179 0 179 -164v-263h43q15 0 15 -15v-49q0 -15 -15 -15h-118q-13 0 -15 15l-7 46q-54 -73 -156 -73q-64 0 -106 33.5t-42 107.5 q0 34 11 60.5t26.5 43.5t43 29.5t49.5 18.5t56.5 10t54 4.5t52.5 1.5zM330 151v77q-29 0 -43 -0.5t-41 -3t-41.5 -8.5t-31.5 -15t-24.5 -25t-7.5 -37q0 -69 79 -69q52 0 81 24.5t29 56.5z" />
<glyph unicode="b" horiz-adv-x="584" d="M89 79v584h-54q-15 0 -15 15v53q0 15 15 15h151q15 0 15 -15v-311q24 40 64.5 63t87.5 23q92 0 144 -61t52 -180q0 -140 -59.5 -208.5t-156.5 -68.5q-55 0 -95.5 19.5t-58.5 48.5l-6 -41q-1 -15 -15 -15h-122q-15 0 -15 15v49q0 15 15 15h53zM201 302v-177q4 -6 13 -14.5 t38.5 -23t62.5 -14.5q121 0 121 171q0 37 -4 63.5t-15.5 52.5t-36 40t-61.5 14q-47 0 -82.5 -30.5t-35.5 -81.5z" />
<glyph unicode="c" horiz-adv-x="468" d="M149 254q0 -182 141 -182q45 0 105 27q15 6 21 -9l18 -44q5 -14 -8 -21q-61 -37 -154 -37q-121 0 -179 68.5t-58 188.5q0 115 59.5 188t177.5 73q90 0 133 -49t43 -125q0 -13 -17 -13h-60q-16 0 -17 15q-5 88 -89 88q-60 0 -88 -41.5t-28 -126.5z" />
<glyph unicode="d" horiz-adv-x="583" d="M495 79h43q15 0 15 -15v-49q0 -15 -15 -15h-113q-13 0 -15 15l-8 59q-51 -86 -163 -86q-98 0 -151 61.5t-53 183.5q0 137 61.5 205t158.5 68q44 0 78 -16.5t50 -39.5v213h-53q-15 0 -15 15v53q0 15 15 15h150q15 0 15 -15v-652zM383 188v176q-4 6 -12.5 15t-37 24 t-61.5 15q-124 0 -124 -168q0 -38 4 -65.5t15.5 -54.5t36 -41t62.5 -14q46 0 81.5 31t35.5 82z" />
<glyph unicode="e" horiz-adv-x="489" d="M265 -12q-119 0 -174.5 69.5t-55.5 190.5q0 108 59 183t170 75q55 0 94.5 -20.5t60.5 -56t30.5 -74t9.5 -82.5q0 -22 -1 -34q-1 -10 -4 -13t-14 -3h-294q5 -72 35.5 -111.5t105.5 -39.5q55 0 113 26q14 7 20 -8l19 -46q5 -12 -9 -20q-66 -36 -165 -36zM146 297h208 q2 125 -98 125q-59 0 -83.5 -37.5t-26.5 -87.5z" />
<glyph unicode="f" horiz-adv-x="358" d="M209 414v-335h106q15 0 15 -15v-49q0 -15 -15 -15h-280q-15 0 -15 15v49q0 15 15 15h62v335h-62q-15 0 -15 15v51q0 15 15 15h62v97q0 34 6 61t21.5 52.5t47 39.5t78.5 14q61 0 117 -25q12 -5 8 -19l-15 -50q-5 -12 -17 -7q-40 18 -71 18q-41 0 -52 -23.5t-11 -84.5v-73 h121q15 0 15 -15v-51q0 -15 -15 -15h-121z" />
<glyph unicode="g" horiz-adv-x="570" d="M490 413v-355q0 -64 -5 -119q-8 -85 -62.5 -132t-158.5 -47q-96 0 -164 30q-12 5 -8 20l18 53q4 14 20 8q61 -25 122 -25q64 0 95 30t31 106v78q-44 -72 -148 -72q-92 0 -143.5 63t-51.5 182q0 138 60.5 205.5t154.5 67.5q89 0 145 -65l10 39q5 15 18 15h122q15 0 15 -15 v-52q0 -15 -15 -15h-55zM378 187v178q-4 6 -12.5 15t-37 23.5t-61.5 14.5q-53 0 -86 -39.5t-33 -127.5q0 -86 24 -131.5t93 -45.5q44 0 78.5 31t34.5 82z" />
<glyph unicode="h" horiz-adv-x="599" d="M20 679v52q0 15 15 15h151q15 0 15 -15v-308q56 83 155 83q155 0 155 -170v-257h59q15 0 15 -15v-49q0 -15 -15 -15h-219q-15 0 -15 15v49q0 15 15 15h48v207q0 63 -16 92t-70 29q-46 0 -79 -30t-33 -68v-230h61q15 0 15 -15v-49q0 -15 -15 -15h-227q-15 0 -15 15v49 q0 15 15 15h54v585h-54q-15 0 -15 15z" />
<glyph unicode="i" horiz-adv-x="294" d="M206 79v401q0 15 -15 15h-151q-15 0 -15 -15v-52q0 -15 15 -15h54v-334h-63q-15 0 -15 -15v-49q0 -15 15 -15h238q15 0 15 15v49q0 15 -15 15h-63zM66 635q0 31 19.5 51.5t51.5 20.5q33 0 52.5 -20.5t19.5 -51.5t-20 -51t-52 -20q-33 0 -52 20t-19 51z" />
<glyph unicode="j" horiz-adv-x="289" d="M206 480v-521q0 -199 -177 -199q-76 0 -120 21q-13 7 -8 20l20 55q5 13 19 8q33 -12 70 -12q84 0 84 117v444h-54q-15 0 -15 15v52q0 15 15 15h151q15 0 15 -15zM66 635q0 31 19.5 51.5t51.5 20.5q33 0 52.5 -20.5t19.5 -51.5t-20 -51t-52 -20q-33 0 -52 20t-19 51z" />
<glyph unicode="k" horiz-adv-x="566" d="M206 731v-399h51l155 152q11 11 26 11h78q15 0 15 -15v-52q0 -15 -15 -15h-61l-110 -107l137 -227h59q15 0 15 -15v-49q0 -15 -15 -15h-129q-14 0 -23 13l-150 242h-33v-176h53q15 0 15 -15v-49q0 -15 -15 -15h-218q-15 0 -15 15v49q0 15 15 15h53v586h-54q-15 0 -15 15 v51q0 15 15 15h151q15 0 15 -15z" />
<glyph unicode="l" horiz-adv-x="294" d="M206 731v-652h63q15 0 15 -15v-49q0 -15 -15 -15h-238q-15 0 -15 15v49q0 15 15 15h63v585h-54q-15 0 -15 15v52q0 15 15 15h151q15 0 15 -15z" />
<glyph unicode="m" horiz-adv-x="893" d="M25 428v52q0 15 15 15h137q13 0 15 -15l8 -58q52 84 151 84q109 0 142 -88q54 88 157 88q155 0 155 -170v-257h57q15 0 15 -15v-49q0 -15 -15 -15h-220q-15 0 -15 15v49q0 15 15 15h51v207q0 63 -16 92t-70 29q-43 0 -72 -26t-29 -61v-241h48q15 0 15 -15v-49 q0 -15 -15 -15h-205q-15 0 -15 15v49q0 15 15 15h45v207q0 63 -16 92t-70 29q-45 0 -73.5 -29.5t-28.5 -68.5v-230h61q15 0 15 -15v-49q0 -15 -15 -15h-226q-15 0 -15 15v49q0 15 15 15h53v334h-54q-15 0 -15 15z" />
<glyph unicode="n" horiz-adv-x="604" d="M25 427v53q0 15 15 15h136q13 0 16 -15l9 -58q56 84 160 84q155 0 155 -170v-257h58q15 0 15 -15v-49q0 -15 -15 -15h-218q-15 0 -15 15v49q0 15 15 15h48v207q0 63 -16 92t-70 29q-46 0 -79 -30t-33 -68v-230h62q15 0 15 -15v-49q0 -15 -15 -15h-227q-15 0 -15 15v49 q0 15 15 15h53v334h-54q-15 0 -15 14z" />
<glyph unicode="o" horiz-adv-x="532" d="M35 240q0 75 23 130t60.5 83t75.5 40.5t78 12.5q28 0 53.5 -4t58.5 -19t56.5 -40t40 -72t16.5 -110q0 -134 -67.5 -203.5t-173.5 -69.5q-104 0 -162.5 63.5t-58.5 188.5zM265 70q60 0 87.5 44.5t27.5 132.5t-27.5 132.5t-89.5 44.5q-115 0 -115 -162q0 -192 117 -192z " />
<glyph unicode="p" horiz-adv-x="584" d="M89 -151v564h-54q-15 0 -15 15v52q0 15 15 15h136q12 0 15 -15l10 -60q51 86 157 86q92 0 144 -60.5t52 -178.5q0 -143 -61 -211t-157 -68q-79 0 -130 42v-180h106q15 0 15 -15v-50q0 -15 -15 -15h-271q-15 0 -15 15v49q0 15 15 15h53zM201 304v-191q5 -5 14 -12 t38.5 -18.5t61.5 -11.5q58 0 89.5 39.5t31.5 133.5q0 38 -4 65t-15.5 53t-36 39t-61.5 13q-47 0 -82.5 -29.5t-35.5 -80.5z" />
<glyph unicode="q" horiz-adv-x="575" d="M495 -152h53q15 0 15 -15v-48q0 -15 -15 -15h-150q-15 0 -15 15v278q-47 -75 -152 -75q-92 0 -144 63t-52 182q0 135 61.5 204t158.5 69q47 0 85.5 -18.5t58.5 -48.5l10 41q5 15 16 15h125q15 0 15 -15v-52q0 -15 -15 -15h-55v-565zM383 189v175q-4 6 -12.5 15t-37 23.5 t-61.5 14.5q-56 0 -90 -40t-34 -123q0 -40 4 -68t15.5 -56t36 -42t61.5 -14q49 0 83.5 31.5t34.5 83.5z" />
<glyph unicode="r" horiz-adv-x="451" d="M343 506q40 0 64 -8q12 -4 12 -18v-135q0 -15 -15 -15h-65q-15 0 -14 15l4 58q-5 1 -17 1q-46 0 -76 -37.5t-30 -100.5v-187h110q15 0 15 -15v-49q0 -15 -15 -15h-275q-15 0 -15 15v49q0 15 15 15h53v334h-54q-15 0 -15 15v52q0 15 15 15h132q14 0 17 -15l11 -71 q17 40 55 68.5t88 28.5z" />
<glyph unicode="s" horiz-adv-x="441" d="M247 506q67 0 124 -18q14 -4 14 -18v-106q0 -15 -15 -15h-58q-16 0 -13 15l5 51q-30 16 -66 16q-80 0 -80 -56q0 -29 26 -46t63 -27.5t74.5 -24t63.5 -46t26 -82.5q0 -76 -53 -118.5t-149 -42.5q-67 0 -141 20q-13 4 -13 19v106q0 15 15 15h58q15 0 14 -15l-3 -52 q27 -20 77 -20q89 0 89 63q0 32 -25.5 50.5t-62 28.5t-73.5 22.5t-62.5 44t-25.5 82.5q0 66 51 110t140 44z" />
<glyph unicode="t" horiz-adv-x="369" d="M199 413v-252q0 -47 12 -68t48 -21q30 0 61 14q11 4 16 -8l18 -46q5 -12 -9 -20q-48 -24 -114 -24q-30 0 -53.5 6t-38.5 14.5t-25.5 25t-15.5 29t-7.5 35.5t-3 36t-0.5 38v241h-57q-15 0 -15 15v52q0 15 15 15h57v135q0 15 15 15h82q15 0 15 -15v-135h101q15 0 15 -15 v-52q0 -15 -15 -15h-101z" />
<glyph unicode="u" horiz-adv-x="599" d="M510 79h44q15 0 15 -15v-49q0 -15 -15 -15h-112q-12 0 -15 15l-9 56q-64 -83 -168 -83q-162 0 -162 170v255h-53q-15 0 -15 15v52q0 15 15 15h150q15 0 15 -15v-292q0 -60 15.5 -85.5t70.5 -25.5q46 0 79 30t33 68v238h-63q-15 0 -15 15v52q0 15 15 15h160q15 0 15 -15 v-401z" />
<glyph unicode="v" horiz-adv-x="519" d="M165 481l116 -370l105 302h-51q-15 0 -15 15v52q0 15 15 15h146q12 0 17.5 -9.5t0.5 -20.5l-171 -451q-4 -14 -20 -14h-86q-14 0 -20 14l-137 399h-50q-15 0 -15 15v52q0 15 15 15h131q15 0 19 -14z" />
<glyph unicode="w" horiz-adv-x="781" d="M165 480l91 -357l99 358q4 14 19 14h80q15 0 19 -14l102 -360l89 292h-48q-15 0 -15 15v52q0 15 15 15h128q12 0 17.5 -8t2.5 -19l-138 -454q-4 -14 -19 -14h-90q-15 0 -19 15l-95 353l-99 -354q-4 -14 -19 -14h-90q-15 0 -19 14l-109 399h-52q-15 0 -15 15v52 q0 15 15 15h131q15 0 19 -15z" />
<glyph unicode="x" horiz-adv-x="553" d="M520 480v-52q0 -15 -15 -15h-60l-112 -150l113 -184h69q15 0 15 -15v-49q0 -15 -15 -15h-131q-14 0 -23 13l-98 166l-73 -100h55q15 0 15 -15v-49q0 -15 -15 -15h-207q-15 0 -15 15v49q0 15 15 15h52l127 169l-100 165h-64q-15 0 -15 15v52q0 15 15 15h125q15 0 22 -13 l88 -155l64 86h-37q-15 0 -15 15v52q0 15 15 15h190q15 0 15 -15z" />
<glyph unicode="y" horiz-adv-x="519" d="M165 481l117 -364l104 296h-51q-15 0 -15 15v52q0 15 15 15h146q12 0 17.5 -9.5t0.5 -20.5l-214 -559q-15 -38 -25.5 -58.5t-30 -44t-47.5 -33.5t-68 -10q-65 0 -111 22q-11 6 -7 19l17 49q4 13 19 9q48 -16 79 -16q30 0 46.5 15.5t34.5 64.5l25 66l-152 424h-50 q-15 0 -15 15v52q0 15 15 15h131q15 0 19 -14z" />
<glyph unicode="z" horiz-adv-x="452" d="M422 141l-1 -126q0 -15 -15 -15h-356q-15 0 -15 15v58q0 15 9 27l249 315h-166l2 -53q1 -15 -14 -15h-55q-15 0 -15 15v118q0 15 15 15h343q15 0 15 -15v-56q0 -15 -9 -27l-255 -319h185l-2 63q-1 15 14 15h56q15 0 15 -15z" />
<glyph unicode="{" horiz-adv-x="328" d="M137 273h-78q-11 0 -15 4t-4 15v48q0 11 4 15t15 4h78l-27 368q-1 11 3 15t15 4h153q11 0 15 -4t4 -15v-51q0 -11 -4 -15t-15 -3l-68 5v-733l68 5q11 1 15 -3t4 -15v-48q0 -11 -4 -15t-15 -4h-153q-11 0 -15 4t-3 15z" />
<glyph unicode="|" horiz-adv-x="257" d="M167 726v-808q0 -11 -4 -15t-15 -4h-39q-11 0 -15 4t-4 15v808q0 11 4 15t15 4h39q11 0 15 -4t4 -15z" />
<glyph unicode="}" horiz-adv-x="330" d="M281 273h-78l27 -404q1 -11 -3 -15t-15 -4h-153q-11 0 -15 4t-4 15v48q0 11 4 15t15 3l68 -5v733l-68 -5q-11 -1 -15 3t-4 15v51q0 11 4 15t15 4h153q11 0 15 -4t3 -15l-27 -368h78q11 0 15 -4t4 -15v-48q0 -11 -4 -15t-15 -4z" />
<glyph unicode="~" horiz-adv-x="636" d="M176 368q37 0 133.5 -27.5t131.5 -27.5q23 0 35.5 7.5t12.5 30.5q0 16 15 16h37q15 0 15 -15q1 -71 -29.5 -103.5t-78.5 -32.5q-46 0 -143.5 27t-118.5 27q-24 0 -32.5 -9.5t-8.5 -32.5q0 -13 -14 -13h-44q-15 0 -15 16q0 72 32.5 104.5t71.5 32.5z" />
<glyph unicode="&#xa1;" horiz-adv-x="253" d="M114 338h24q11 0 15 -4t5 -15l22 -333v-151q0 -11 -4 -15t-15 -4h-70q-11 0 -15 4t-4 15v149l22 335q1 11 5 15t15 4zM126 511q32 0 49.5 -18t17.5 -45t-18.5 -44t-49.5 -17q-29 0 -48 18t-19 44q0 27 18.5 44.5t49.5 17.5z" />
<glyph unicode="&#xa2;" horiz-adv-x="468" d="M224 -62h-4q-11 0 -14.5 4t-1.5 15l11 84q-151 35 -151 232q0 102 54.5 168.5t159.5 67.5l9 68q2 11 6.5 15t15.5 4h4q11 0 14.5 -4t1.5 -15l-9 -70q59 -11 90.5 -53t31.5 -105q1 -11 -3 -15t-15 -4h-44q-12 0 -15.5 3.5t-5.5 15.5q-6 66 -50 79l-41 -308q9 -2 28 -2 q43 0 91 20q18 8 24 -10l12 -35q4 -11 2.5 -16t-11.5 -10q-64 -33 -137 -33h-21l-10 -77q-2 -11 -6.5 -15t-15.5 -4zM267 431q-50 -4 -75.5 -44.5t-25.5 -109.5q0 -105 61 -146z" />
<glyph unicode="&#xa3;" horiz-adv-x="454" d="M92 233h-41q-11 0 -14.5 4t-2.5 15l3 24q2 11 6 15t15 4h38l4 65q6 89 56 130t127 41q45 0 111 -16q11 -3 14.5 -7.5t3.5 -16.5v-107q0 -11 -4 -15t-15 -4h-42q-11 0 -15 4t-3 15l4 51q-28 19 -67 19q-36 0 -51 -20t-18 -67l-4 -72h144q11 0 14.5 -4t1.5 -15l-3 -26 q-1 -12 -5.5 -15.5t-16.5 -3.5h-139q-2 -50 -13.5 -80t-42.5 -68h211l-4 52q-1 11 3 15t15 4h48q11 0 15 -4t4 -15v-116q0 -11 -4 -15t-15 -4h-269q-46 0 -102 -4q-12 -1 -16.5 2t-6.5 15l-3 12q-5 19 11 30q26 20 40 44q26 48 28 134z" />
<glyph unicode="&#xa5;" horiz-adv-x="523" d="M215 220h-104q-11 0 -15 4t-4 15v13q0 11 4 15t15 4h82l-122 160h-35q-11 0 -15 3.5t-4 14.5v43q0 11 4 15t15 4h191q11 0 15 -4t4 -15v-43q0 -11 -4 -14.5t-15 -3.5h-42l93 -127l94 127h-42q-11 0 -15 3.5t-4 14.5v43q0 11 4 15t15 4h151q11 0 15 -4t4 -15v-43 q0 -11 -4 -14.5t-15 -3.5h-32l-120 -160h82q11 0 15 -4t4 -15v-13q0 -11 -4 -15t-15 -4h-104v-44h104q11 0 15 -4t4 -15v-13q0 -11 -4 -15t-15 -4h-104v-46h33q11 1 15 -3t4 -15v-42q0 -11 -4 -15t-15 -4h-157q-11 0 -15 4t-4 15v42q0 11 4 15t15 3h32v46h-104q-11 0 -15 4 t-4 15v13q0 11 4 15t15 4h104v44z" />
<glyph unicode="&#xa6;" horiz-adv-x="257" d="M167 214v-296q0 -11 -4 -15t-15 -4h-39q-11 0 -15 4t-4 15v296q0 11 4 15t15 4h39q11 0 15 -4t4 -15zM109 745h39q11 0 15 -4t4 -15v-264q0 -11 -4 -15t-15 -4h-39q-11 0 -15 4t-4 15v264q0 11 4 15t15 4z" />
<glyph unicode="&#xa7;" horiz-adv-x="573" d="M178 198q-43 54 -64.5 86t-40 79t-18.5 94q0 102 67 170t183 68q187 0 197 -151q1 -11 -2.5 -15t-14.5 -4h-50q-11 0 -15 4t-6 15q-11 75 -87 75q-81 0 -81 -59q0 -51 88 -159q2 -3 21 -26t23 -28t20.5 -27t21.5 -30t18 -28.5t18 -32t13.5 -31t11.5 -34t6 -33.5t3 -37 q0 -118 -73.5 -196.5t-182.5 -78.5q-78 0 -125 33t-52 120q-1 11 2.5 15t14.5 4h49q12 0 15.5 -3.5t5.5 -15.5q6 -77 81 -77q32 0 53.5 17.5t21.5 55.5q0 45 -29.5 97t-92.5 133zM404 73q0 55 -26.5 109.5t-63.5 98.5t-73 88.5t-57.5 95.5t-14.5 102l-6 3q-19 -43 -19 -103 q0 -45 27 -94t64 -94t73 -93.5t57.5 -109.5t13.5 -126q25 56 25 123z" />
<glyph unicode="&#xa8;" d="M329 595q-28 0 -45 16.5t-17 45.5q0 28 17 44t45 16q62 0 62 -60q0 -29 -17.5 -45.5t-44.5 -16.5zM126 595q-28 0 -45 16.5t-17 45.5q0 28 17 44t45 16q62 0 62 -60q0 -29 -17.5 -45.5t-44.5 -16.5z" />
<glyph unicode="&#xa9;" horiz-adv-x="880" d="M435 693q161 0 264 -99.5t103 -248.5q0 -157 -102 -257t-265 -100q-164 0 -260.5 98t-96.5 253q0 153 100.5 253.5t256.5 100.5zM434 22q144 0 234.5 86t90.5 231q0 141 -92 230t-233 89q-142 0 -227.5 -88t-85.5 -231q0 -141 88 -229t225 -88zM449 480q-96 0 -96 -134 q0 -66 20 -100.5t70 -34.5q34 0 52 11.5t22 41.5q2 11 6 15t15 4h23q11 0 15 -4t3 -15q-2 -53 -37.5 -85t-104.5 -32q-89 0 -130 54.5t-41 141.5t45.5 144t138.5 57q63 0 95.5 -32t34.5 -85q0 -11 -4 -15t-15 -4h-23q-11 0 -15 4t-6 15q-7 53 -68 53z" />
<glyph unicode="&#xaa;" horiz-adv-x="530" d="M308 547v25q0 31 -11.5 47.5t-50.5 16.5q-31 0 -44 -11.5t-18 -34.5q-3 -10 -11 -10h-53q-10 0 -10 10q4 54 44 80t104 26q79 0 107.5 -31t28.5 -86v-186h30q11 0 11 -11v-37q0 -11 -11 -11h-92q-9 0 -11 11l-5 33q-38 -53 -111 -53q-46 0 -76 24t-30 77q0 28 9 49 t28 33.5t36.5 20.5t46.5 11.5t45 4.5t44 2zM310 444v53q-20 0 -30 -0.5t-28 -2t-27.5 -5.5t-20 -10.5t-15.5 -18t-5 -26.5q0 -47 49 -47q37 0 57 17t20 40z" />
<glyph unicode="&#xab;" horiz-adv-x="493" d="M190 492h58q19 0 11 -17l-95 -187l92 -187q8 -17 -11 -17h-60q-20 0 -27 17l-85 169q-7 17 1 34l88 171q8 17 28 17zM356 492h58q19 0 11 -17l-95 -187l92 -187q8 -17 -11 -17h-60q-20 0 -27 17l-85 169q-7 17 1 34l88 171q8 17 28 17z" />
<glyph unicode="&#xac;" horiz-adv-x="530" d="M476 167h-25q-11 0 -15 4t-4 15v99h-378q-11 0 -15 4t-4 15v27q0 11 4 15t15 4h422q11 0 15 -4t4 -15v-145q0 -11 -4 -15t-15 -4z" />
<glyph unicode="&#xad;" horiz-adv-x="282" d="M233 218h-184q-11 0 -15 4t-4 15v39q0 11 4 15t15 4h184q11 0 15 -4t4 -15v-39q0 -11 -4 -15t-15 -4z" />
<glyph unicode="&#xae;" horiz-adv-x="498" d="M244 742q80 0 132 -49.5t52 -123.5q0 -79 -51 -129t-133 -50t-130.5 49t-48.5 126t50.5 127t128.5 50zM244 413q69 0 112.5 41t43.5 111q0 68 -44 111t-112 43q-69 0 -110 -42t-41 -112q0 -68 42.5 -110t108.5 -42zM232 481h-57q-8 0 -8 7v7q0 7 7 7h12v134h-11 q-8 0 -8 8v11q0 8 9 8h71q63 0 63 -48q0 -33 -34 -47l34 -66h18q8 0 8 -7v-7q0 -7 -8 -7h-39q-8 0 -10 6l-36 73h-23v-58h12q8 0 8 -9v-4q0 -8 -8 -8zM237 636h-17v-52h16q38 0 38 29q0 23 -37 23z" />
<glyph unicode="&#xaf;" d="M380 622h-260q-11 0 -15 4t-4 15v43q0 11 4 15t15 4h260q11 0 15 -4t4 -15v-43q0 -11 -4 -15t-15 -4z" />
<glyph unicode="&#xb0;" horiz-adv-x="336" d="M168 668q-40 0 -67.5 -27.5t-27.5 -67.5t27.5 -67.5t67.5 -27.5t67.5 27.5t27.5 67.5t-27.5 67.5t-67.5 27.5zM168 435q-57 0 -97.5 40.5t-40.5 97.5t40.5 97.5t97.5 40.5t97.5 -40.5t40.5 -97.5t-40.5 -97.5t-97.5 -40.5z" />
<glyph unicode="&#xb1;" horiz-adv-x="530" d="M54 337h173v173q0 11 4 15t15 4h35q11 0 15 -4t4 -15v-173h176q11 0 15 -4t4 -15v-27q0 -11 -4 -15t-15 -4h-176v-207h176q11 0 15 -4t4 -15v-27q0 -11 -4 -15t-15 -4h-422q-11 0 -15 4t-4 15v27q0 11 4 15t15 4h173v207h-173q-11 0 -15 4t-4 15v27q0 11 4 15t15 4z" />
<glyph unicode="&#xb2;" horiz-adv-x="345" d="M161 696q-56 0 -64 -49q-2 -12 -6.5 -15.5t-16.5 -3.5h-29q-11 0 -14.5 4t-2.5 15q6 55 43 83.5t97 28.5q138 0 138 -121q0 -99 -147 -185h143q15 0 15 -15v-35q0 -15 -15 -15h-237q-11 0 -15 4t-4 15v16q0 17 17 27q71 45 114.5 89.5t43.5 95.5q0 30 -13 45.5t-47 15.5z " />
<glyph unicode="&#xb3;" horiz-adv-x="335" d="M155 701q-50 0 -59 -40q-3 -12 -7.5 -15.5t-15.5 -3.5h-23q-12 0 -15.5 4t-2.5 15q4 49 42 73.5t93 24.5q61 0 94.5 -25.5t33.5 -71.5q0 -56 -64 -87q31 -6 52 -27.5t21 -58.5q0 -55 -41.5 -86t-110.5 -31q-123 0 -130 99q-1 11 2.5 15t14.5 4h35q11 0 15 -4t6 -15 q6 -42 59 -42q70 0 70 56q0 28 -14.5 40t-44.5 14q-34 2 -44 2q-11 0 -15 4t-4 15v20q0 11 4 15t15 4q21 0 43 2q53 5 53 53q0 47 -62 47z" />
<glyph unicode="&#xb4;" d="M167 598l42 116q4 11 8.5 14.5t16.5 3.5h72q11 0 13 -3.5t-3 -13.5l-65 -118q-5 -10 -10.5 -13.5t-17.5 -3.5h-43q-11 0 -14 4t1 14z" />
<glyph unicode="&#xb5;" horiz-adv-x="599" d="M510 79h44q15 0 15 -15v-49q0 -15 -15 -15h-112q-12 0 -15 15l-9 56q-58 -78 -154 -78q-41 0 -71 10v-190q0 -15 -15 -15h-75q-15 0 -15 15v667q0 15 15 15h82q15 0 15 -15v-294q0 -60 15.5 -85.5t70.5 -25.5q46 0 79 31t33 69v305q0 15 15 15h82q15 0 15 -15v-401z" />
<glyph unicode="&#xb6;" horiz-adv-x="525" d="M466 597h-49v-558q0 -199 -177 -199q-56 0 -107 18q-10 4 -12.5 9t1.5 15l16 45q4 11 8.5 13t15.5 -2q30 -10 69 -10t58 28t19 92v228h-28q-105 0 -162.5 51.5t-57.5 149.5q0 58 23.5 99t63.5 62.5t83.5 31t94.5 9.5h141q11 0 15 -4t4 -15v-45q0 -11 -4 -15t-15 -3z" />
<glyph unicode="&#xb7;" horiz-adv-x="253" d="M126 279q-35 0 -55 19.5t-20 49.5q0 29 21 49t53 20q34 0 55 -19t21 -49t-20 -50t-55 -20z" />
<glyph unicode="&#xb8;" d="M240 3h42l-22 -35l16 -14q38 -33 38 -62q0 -41 -96 -105q-13 -8 -21 3l-8 10q-9 11 1 20q41 36 41 56t-22 37l-9 7q-10 9 -3 21z" />
<glyph unicode="&#xb9;" horiz-adv-x="301" d="M73 749h113q11 0 15 -4t4 -15v-275h46q11 1 15 -3t4 -15v-30q0 -11 -4 -15t-15 -4h-174q-11 0 -15 4t-4 15v30q0 11 4 15t15 3h43v229l-47 -2q-11 -1 -15 3t-4 15v30q0 11 4 15t15 4z" />
<glyph unicode="&#xba;" horiz-adv-x="532" d="M270 696q22 0 40 -2t43 -12.5t42 -28t29 -51.5t12 -81q0 -94 -50 -144.5t-127 -50.5t-120 45.5t-43 134.5q0 53 17 92t44.5 59t55.5 29.5t57 9.5zM350 511q0 126 -86 126q-43 0 -64 -31t-21 -80q0 -138 86 -138q85 0 85 123z" />
<glyph unicode="&#xbb;" horiz-adv-x="493" d="M137 84h-58q-11 0 -13 3.5t3 13.5l95 188l-93 186q-8 17 11 17h60q20 0 27 -17l85 -169q7 -17 -1 -34l-88 -171q-5 -10 -10.5 -13.5t-17.5 -3.5zM303 84h-58q-11 0 -13 3.5t3 13.5l95 188l-93 186q-8 17 11 17h60q20 0 27 -17l85 -169q7 -17 -1 -34l-88 -171 q-5 -10 -10.5 -13.5t-17.5 -3.5z" />
<glyph unicode="&#xbc;" horiz-adv-x="900" d="M118 642h113q11 0 15 -4t4 -15v-275h46q11 1 15 -3t4 -15v-30q0 -11 -4 -15t-15 -4h-174q-11 0 -15 4t-4 15v30q0 11 4 15t15 3h43v229l-47 -2q-11 -1 -15 3t-4 15v30q0 11 4 15t15 4zM680 662l-320 -662q-8 -17 -27 -17h-39q-19 0 -11 17l319 662q8 17 27 17h40 q19 0 11 -17zM754 0h-50q-15 0 -15 15v58h-146q-11 0 -15 4t-4 15v19q0 17 11 34l137 201q11 15 30 15h48q11 0 15 -4t4 -15v-211h44q11 0 15 -4t4 -15v-20q0 -11 -4 -15t-15 -4h-44v-58q0 -15 -15 -15zM689 281l-102 -150h102v150z" />
<glyph unicode="&#xbd;" horiz-adv-x="900" d="M118 642h113q11 0 15 -4t4 -15v-275h46q11 1 15 -3t4 -15v-30q0 -11 -4 -15t-15 -4h-174q-11 0 -15 4t-4 15v30q0 11 4 15t15 3h43v229l-47 -2q-11 -1 -15 3t-4 15v30q0 11 4 15t15 4zM653 662l-320 -662q-5 -11 -10 -14t-17 -3h-39q-19 0 -11 17l319 662q5 11 10 14 t17 3h40q19 0 11 -17zM671 308q-56 0 -64 -49q-2 -12 -6.5 -15.5t-16.5 -3.5h-29q-11 0 -14.5 4t-2.5 15q6 55 43 83.5t97 28.5q138 0 138 -121q0 -99 -147 -185h143q15 0 15 -15v-35q0 -15 -15 -15h-237q-11 0 -15 4t-4 15v16q0 17 17 27q71 45 114.5 89.5t43.5 95.5 q0 30 -13 45.5t-47 15.5z" />
<glyph unicode="&#xbe;" horiz-adv-x="900" d="M201 594q-50 0 -59 -40q-3 -12 -7.5 -15.5t-15.5 -3.5h-23q-12 0 -15.5 4t-2.5 15q4 49 42 73.5t93 24.5q61 0 94.5 -25.5t33.5 -71.5q0 -56 -64 -87q31 -6 52 -27.5t21 -58.5q0 -55 -41.5 -86t-110.5 -31q-123 0 -130 99q-1 11 2.5 15t14.5 4h35q11 0 15 -4t6 -15 q6 -42 59 -42q70 0 70 56q0 28 -14.5 40t-44.5 14q-34 2 -44 2q-11 0 -15 4t-4 15v20q0 11 4 15t15 4q21 0 43 2q53 5 53 53q0 47 -62 47zM681 662l-320 -662q-5 -11 -10 -14t-17 -3h-39q-19 0 -11 17l319 662q5 11 10 14t17 3h40q19 0 11 -17zM754 0h-50q-15 0 -15 15v58 h-146q-11 0 -15 4t-4 15v19q0 17 11 34l137 201q11 15 30 15h48q11 0 15 -4t4 -15v-211h44q11 0 15 -4t4 -15v-20q0 -11 -4 -15t-15 -4h-44v-58q0 -15 -15 -15zM689 281l-102 -150h102v150z" />
<glyph unicode="&#xbf;" horiz-adv-x="465" d="M239 336h48q11 0 15 -4t4 -15v-170q0 -11 -3.5 -15.5t-14.5 -7.5q-144 -32 -144 -144q0 -105 96 -105q87 0 97 86q2 11 6 15t15 4h53q11 0 15 -4t3 -15q-4 -80 -58 -121.5t-143 -41.5q-88 0 -140.5 44.5t-52.5 129.5q0 89 50.5 142t134.5 75v128q0 11 4 15t15 4zM264 511 q31 0 49.5 -17.5t18.5 -44.5q0 -26 -19 -44t-48 -18q-31 0 -49.5 17t-18.5 44t17.5 45t49.5 18z" />
<glyph unicode="&#xc0;" horiz-adv-x="696" d="M214 214l-46 -135h60q15 0 15 -15v-49q0 -15 -15 -15h-213q-15 0 -15 15v49q0 15 15 15h59l200 586q6 14 20 14h97q14 0 20 -14l202 -586h68q15 0 15 -15v-49q0 -15 -15 -15h-251q-15 0 -15 15v49q0 15 15 15h62l-47 135h-231zM329 583l-95 -294h189zM342 841l41 -92 q8 -17 -11 -17h-40q-19 0 -30 15l-65 96q-11 15 8 15h70q19 0 27 -17z" />
<glyph unicode="&#xc1;" horiz-adv-x="696" d="M214 214l-46 -135h60q15 0 15 -15v-49q0 -15 -15 -15h-213q-15 0 -15 15v49q0 15 15 15h59l200 586q6 14 20 14h97q14 0 20 -14l202 -586h68q15 0 15 -15v-49q0 -15 -15 -15h-251q-15 0 -15 15v49q0 15 15 15h62l-47 135h-231zM329 583l-95 -294h189zM312 746l45 98 q6 14 21 14h78q15 0 6 -12l-70 -102q-8 -12 -23 -12h-48q-15 0 -9 14z" />
<glyph unicode="&#xc2;" horiz-adv-x="696" d="M214 214l-46 -135h60q15 0 15 -15v-49q0 -15 -15 -15h-213q-15 0 -15 15v49q0 15 15 15h59l200 586q6 14 20 14h97q14 0 20 -14l202 -586h68q15 0 15 -15v-49q0 -15 -15 -15h-251q-15 0 -15 15v49q0 15 15 15h62l-47 135h-231zM329 583l-95 -294h189zM258 732h-55 q-15 0 -6 12l82 107q9 12 24 12h76q15 0 24 -12l82 -107q9 -12 -6 -12h-57q-16 0 -25 12l-58 71l-57 -71q-9 -12 -24 -12z" />
<glyph unicode="&#xc3;" horiz-adv-x="696" d="M214 214l-46 -135h60q15 0 15 -15v-49q0 -15 -15 -15h-213q-15 0 -15 15v49q0 15 15 15h59l200 586q6 14 20 14h97q14 0 20 -14l202 -586h68q15 0 15 -15v-49q0 -15 -15 -15h-251q-15 0 -15 15v49q0 15 15 15h62l-47 135h-231zM329 583l-95 -294h189zM251 858 q27 0 93 -20.5t89 -20.5q34 0 34 27q0 13 15 13h24q12 0 12 -14q0 -50 -21.5 -74.5t-54.5 -24.5q-32 0 -98 19t-81 19q-30 0 -30 -22q0 -7 -2 -8.5t-10 -1.5h-31q-12 0 -12 14q0 53 22 73.5t51 20.5z" />
<glyph unicode="&#xc4;" horiz-adv-x="696" d="M214 214l-46 -135h60q15 0 15 -15v-49q0 -15 -15 -15h-213q-15 0 -15 15v49q0 15 15 15h59l200 586q6 14 20 14h97q14 0 20 -14l202 -586h68q15 0 15 -15v-49q0 -15 -15 -15h-251q-15 0 -15 15v49q0 15 15 15h62l-47 135h-231zM329 583l-95 -294h189zM449 738 q-28 0 -45 16.5t-17 45.5q0 28 17 44t45 16q62 0 62 -60q0 -29 -17.5 -45.5t-44.5 -16.5zM246 738q-28 0 -45 16.5t-17 45.5q0 28 17 44t45 16q62 0 62 -60q0 -29 -17.5 -45.5t-44.5 -16.5z" />
<glyph unicode="&#xc5;" horiz-adv-x="696" d="M214 214l-46 -135h60q15 0 15 -15v-49q0 -15 -15 -15h-213q-15 0 -15 15v49q0 15 15 15h59l200 586q6 14 20 14h97q14 0 20 -14l202 -586h68q15 0 15 -15v-49q0 -15 -15 -15h-251q-15 0 -15 15v49q0 15 15 15h62l-47 135h-231zM329 583l-95 -294h189zM342 705 q-46 0 -72 29t-26 72q0 42 28.5 71t71.5 29q45 0 72 -28t27 -67q0 -46 -28 -76t-73 -30zM344 854q-42 0 -42 -48q0 -21 11 -35t31 -14t31.5 14t11.5 35q0 22 -11.5 35t-31.5 13z" />
<glyph unicode="&#xc6;" horiz-adv-x="879" d="M437 214h-198l-71 -135h52q11 1 15 -3t4 -15v-42q0 -11 -4 -15t-15 -4h-201q-11 0 -15 4t-4 15v42q0 11 4 15t15 3h48l277 520h-48q-11 -1 -15 3t-4 15v43q0 11 4 15t15 4h524q11 0 15 -4t4 -15v-126q0 -11 -4 -15t-15 -4h-48q-11 0 -15 4t-3 15l4 65h-209v-213h149 l-4 47q-1 11 3 15t15 4h48q11 0 15 -4t4 -15v-169q0 -11 -4 -15t-15 -4h-48q-11 0 -15 4t-3 15l3 44h-148v-229h229l-4 66q-1 11 3 15t15 4h48q11 0 15 -4t4 -15v-126q0 -11 -4 -15t-15 -4h-452q-11 0 -15 4t-4 15v42q0 11 4 15t15 3h49v135zM437 289v310l-164 -310h164z " />
<glyph unicode="&#xc7;" horiz-adv-x="629" d="M43 336q0 96 28.5 169t75.5 113t99.5 59t109.5 19q116 0 209 -51q13 -7 13 -20v-129q0 -15 -15 -15h-56q-15 0 -14 15l3 70q-62 42 -141 42q-192 0 -192 -256q0 -80 19 -139.5t67 -98.5t123 -39q85 0 125 32l-4 70q-1 15 14 15h57q15 0 15 -15v-127q0 -14 -10 -19 q-78 -38 -177 -42l-13 -21l16 -14q38 -33 38 -62q0 -41 -96 -105q-13 -8 -21 3l-8 10q-9 11 1 20q41 36 41 56t-22 37l-9 7q-11 9 -3 21l33 48q-155 5 -230.5 97.5t-75.5 249.5z" />
<glyph unicode="&#xc8;" horiz-adv-x="555" d="M220 599v-213h149l-4 51q-1 15 14 15h56q15 0 15 -15v-177q0 -15 -15 -15h-56q-15 0 -14 15l3 48h-148v-230h229l-4 71q-1 15 14 15h56q15 0 15 -15v-134q0 -15 -15 -15h-460q-15 0 -15 15v49q0 15 15 15h53v519h-53q-15 0 -15 15v51q0 15 15 15h440q15 0 15 -15v-134 q0 -15 -15 -15h-56q-15 0 -14 15l4 69h-209zM293 841l41 -92q8 -17 -11 -17h-40q-19 0 -30 15l-65 96q-11 15 8 15h70q12 0 17 -3t10 -14z" />
<glyph unicode="&#xc9;" horiz-adv-x="555" d="M220 599v-213h149l-4 51q-1 15 14 15h56q15 0 15 -15v-177q0 -15 -15 -15h-56q-15 0 -14 15l3 48h-148v-230h229l-4 71q-1 15 14 15h56q15 0 15 -15v-134q0 -15 -15 -15h-460q-15 0 -15 15v49q0 15 15 15h53v519h-53q-15 0 -15 15v51q0 15 15 15h440q15 0 15 -15v-134 q0 -15 -15 -15h-56q-15 0 -14 15l4 69h-209zM271 746l45 98q6 14 21 14h78q15 0 6 -12l-70 -102q-7 -12 -23 -12h-48q-15 0 -9 14z" />
<glyph unicode="&#xca;" horiz-adv-x="555" d="M220 599v-213h149l-4 51q-1 15 14 15h56q15 0 15 -15v-177q0 -15 -15 -15h-56q-15 0 -14 15l3 48h-148v-230h229l-4 71q-1 15 14 15h56q15 0 15 -15v-134q0 -15 -15 -15h-460q-15 0 -15 15v49q0 15 15 15h53v519h-53q-15 0 -15 15v51q0 15 15 15h440q15 0 15 -15v-134 q0 -15 -15 -15h-56q-15 0 -14 15l4 69h-209zM205 732h-55q-15 0 -6 12l82 107q9 12 24 12h76q15 0 24 -12l82 -107q9 -12 -6 -12h-57q-16 0 -25 12l-58 71l-57 -71q-9 -12 -24 -12z" />
<glyph unicode="&#xcb;" horiz-adv-x="555" d="M220 599v-213h149l-4 51q-1 15 14 15h56q15 0 15 -15v-177q0 -15 -15 -15h-56q-15 0 -14 15l3 48h-148v-230h229l-4 71q-1 15 14 15h56q15 0 15 -15v-134q0 -15 -15 -15h-460q-15 0 -15 15v49q0 15 15 15h53v519h-53q-15 0 -15 15v51q0 15 15 15h440q15 0 15 -15v-134 q0 -15 -15 -15h-56q-15 0 -14 15l4 69h-209zM392 738q-28 0 -45 16.5t-17 45.5q0 28 17 44t45 16q62 0 62 -60q0 -29 -17.5 -45.5t-44.5 -16.5zM189 738q-28 0 -45 16.5t-17 45.5q0 28 17 44t45 16q62 0 62 -60q0 -29 -17.5 -45.5t-44.5 -16.5z" />
<glyph unicode="&#xcc;" horiz-adv-x="328" d="M220 598v-519h53q15 0 15 -15v-49q0 -15 -15 -15h-218q-15 0 -15 15v49q0 15 15 15h53v519h-53q-15 0 -15 15v51q0 15 15 15h218q15 0 15 -15v-51q0 -15 -15 -15h-53zM161 841l41 -92q8 -17 -11 -17h-40q-19 0 -30 15l-65 96q-11 15 8 15h70q12 0 17 -3t10 -14z" />
<glyph unicode="&#xcd;" horiz-adv-x="328" d="M220 598v-519h53q15 0 15 -15v-49q0 -15 -15 -15h-218q-15 0 -15 15v49q0 15 15 15h53v519h-53q-15 0 -15 15v51q0 15 15 15h218q15 0 15 -15v-51q0 -15 -15 -15h-53zM116 746l45 98q6 14 21 14h78q15 0 6 -12l-70 -102q-8 -12 -23 -12h-48q-15 0 -9 14z" />
<glyph unicode="&#xce;" horiz-adv-x="328" d="M220 598v-519h53q15 0 15 -15v-49q0 -15 -15 -15h-218q-15 0 -15 15v49q0 15 15 15h53v519h-53q-15 0 -15 15v51q0 15 15 15h218q15 0 15 -15v-51q0 -15 -15 -15h-53zM81 732h-55q-15 0 -6 12l82 107q9 12 24 12h76q15 0 24 -12l82 -107q9 -12 -6 -12h-57q-16 0 -25 12 l-58 71l-57 -71q-9 -12 -24 -12z" />
<glyph unicode="&#xcf;" horiz-adv-x="328" d="M220 598v-519h53q15 0 15 -15v-49q0 -15 -15 -15h-218q-15 0 -15 15v49q0 15 15 15h53v519h-53q-15 0 -15 15v51q0 15 15 15h218q15 0 15 -15v-51q0 -15 -15 -15h-53zM265 738q-28 0 -45 16.5t-17 45.5q0 28 17 44t45 16q62 0 62 -60q0 -29 -17.5 -45.5t-44.5 -16.5z M62 738q-28 0 -45 16.5t-17 45.5q0 28 17 44t45 16q62 0 62 -60q0 -29 -17.5 -45.5t-44.5 -16.5z" />
<glyph unicode="&#xd0;" horiz-adv-x="692" d="M284 685q36 0 66.5 -2.5t69.5 -10.5t69.5 -21.5t61.5 -38.5t51.5 -58.5t33.5 -83.5t13 -112q0 -181 -100 -269.5t-273 -88.5h-208q-15 0 -15 15v49q0 15 15 15h52v235h-48q-11 0 -15 4t-4 15v15q0 11 4 15t15 4h48v231h-52q-15 0 -15 15v51q0 15 15 15q128 6 216 6z M529 340q0 132 -56.5 197t-176.5 65h-64v-235h150q11 0 15 -4t4 -15v-15q0 -11 -4 -15t-15 -4h-150v-236h66q110 0 170.5 72t60.5 190z" />
<glyph unicode="&#xd1;" horiz-adv-x="743" d="M645 598v-583q0 -15 -15 -15h-73q-15 0 -23 12l-339 501v-434h83q15 0 15 -15v-49q0 -15 -15 -15h-223q-15 0 -15 15v49q0 15 15 15h53v519h-53q-15 0 -15 15v51q0 15 15 15h147q14 0 23 -13l333 -506v438h-53q-15 0 -15 15v51q0 15 15 15h193q15 0 15 -15v-51 q0 -15 -15 -15h-53zM274 858q27 0 93 -20.5t89 -20.5q34 0 34 27q0 13 15 13h24q12 0 12 -14q0 -50 -21.5 -74.5t-54.5 -24.5t-99 19t-80 19q-30 0 -30 -22q0 -7 -2 -8.5t-10 -1.5h-31q-12 0 -12 14q0 53 22 73.5t51 20.5z" />
<glyph unicode="&#xd2;" horiz-adv-x="692" d="M43 333q0 100 30 174.5t78.5 113.5t99 57t103.5 18q37 0 71 -6t77 -26.5t73.5 -55t52 -98.5t21.5 -149q0 -180 -88.5 -276.5t-227.5 -96.5q-138 0 -214 88t-76 257zM345 82q179 0 179 260q0 266 -182 266q-64 0 -105.5 -34.5t-57.5 -86t-16 -119.5q0 -286 182 -286z M364 841l41 -92q8 -17 -11 -17h-40q-19 0 -30 15l-65 96q-11 15 8 15h70q19 0 27 -17z" />
<glyph unicode="&#xd3;" horiz-adv-x="692" d="M43 333q0 100 30 174.5t78.5 113.5t99 57t103.5 18q37 0 71 -6t77 -26.5t73.5 -55t52 -98.5t21.5 -149q0 -180 -88.5 -276.5t-227.5 -96.5q-138 0 -214 88t-76 257zM345 82q179 0 179 260q0 266 -182 266q-64 0 -105.5 -34.5t-57.5 -86t-16 -119.5q0 -286 182 -286z M315 746l45 98q6 14 21 14h78q15 0 6 -12l-70 -102q-7 -12 -23 -12h-48q-15 0 -9 14z" />
<glyph unicode="&#xd4;" horiz-adv-x="692" d="M43 333q0 100 30 174.5t78.5 113.5t99 57t103.5 18q37 0 71 -6t77 -26.5t73.5 -55t52 -98.5t21.5 -149q0 -180 -88.5 -276.5t-227.5 -96.5q-138 0 -214 88t-76 257zM345 82q179 0 179 260q0 266 -182 266q-64 0 -105.5 -34.5t-57.5 -86t-16 -119.5q0 -286 182 -286z M273 732h-55q-15 0 -6 12l82 107q9 12 24 12h76q15 0 24 -12l82 -107q9 -12 -6 -12h-57q-16 0 -25 12l-58 71l-57 -71q-9 -12 -24 -12z" />
<glyph unicode="&#xd5;" horiz-adv-x="692" d="M43 333q0 100 30 174.5t78.5 113.5t99 57t103.5 18q37 0 71 -6t77 -26.5t73.5 -55t52 -98.5t21.5 -149q0 -180 -88.5 -276.5t-227.5 -96.5q-138 0 -214 88t-76 257zM345 82q179 0 179 260q0 266 -182 266q-64 0 -105.5 -34.5t-57.5 -86t-16 -119.5q0 -286 182 -286z M249 858q27 0 93 -20.5t89 -20.5q34 0 34 27q0 13 15 13h24q12 0 12 -14q0 -50 -21.5 -74.5t-54.5 -24.5q-32 0 -98 19t-81 19q-30 0 -30 -22q0 -7 -2 -8.5t-10 -1.5h-31q-12 0 -12 14q0 53 22 73.5t51 20.5z" />
<glyph unicode="&#xd6;" horiz-adv-x="692" d="M43 333q0 100 30 174.5t78.5 113.5t99 57t103.5 18q37 0 71 -6t77 -26.5t73.5 -55t52 -98.5t21.5 -149q0 -180 -88.5 -276.5t-227.5 -96.5q-138 0 -214 88t-76 257zM345 82q179 0 179 260q0 266 -182 266q-64 0 -105.5 -34.5t-57.5 -86t-16 -119.5q0 -286 182 -286z M447 738q-28 0 -45 16.5t-17 45.5q0 28 17 44t45 16q62 0 62 -60q0 -29 -17.5 -45.5t-44.5 -16.5zM244 738q-28 0 -45 16.5t-17 45.5q0 28 17 44t45 16q62 0 62 -60q0 -29 -17.5 -45.5t-44.5 -16.5z" />
<glyph unicode="&#xd7;" horiz-adv-x="530" d="M88 169l123 122l-123 123q-13 13 0 26l26 26q13 13 26 0l122 -123l125 125q13 13 26 0l20 -20q13 -13 0 -26l-125 -125l134 -133q13 -13 0 -26l-26 -26q-13 -13 -26 0l-133 133l-123 -122q-13 -13 -26 0l-20 20q-13 13 0 26z" />
<glyph unicode="&#xd8;" horiz-adv-x="692" d="M43 333q0 100 30 174.5t78.5 113.5t99 57t103.5 18q41 0 80 -8l21 55q4 11 8.5 14.5t16.5 3.5h31q11 0 14 -3.5t-1 -14.5l-28 -76q153 -73 153 -306q0 -180 -88.5 -276.5t-227.5 -96.5q-47 0 -84 10l-24 -65q-4 -11 -8.5 -14.5t-16.5 -3.5h-30q-11 0 -14 3.5t1 14.5 l32 86q-146 76 -146 314zM345 82q179 0 179 260q0 156 -66 222l-174 -472q28 -10 61 -10zM163 368q0 -174 65 -241l174 472q-27 9 -60 9q-64 0 -105.5 -34.5t-57.5 -86t-16 -119.5z" />
<glyph unicode="&#xd9;" horiz-adv-x="713" d="M205 598v-314q0 -50 5 -82.5t20 -63.5t47 -45.5t83 -14.5q90 0 127 52t37 151v317h-53q-15 0 -15 15v51q0 15 15 15h202q15 0 15 -15v-51q0 -15 -15 -15h-53v-338q0 -55 -12 -100t-40 -85.5t-81.5 -63.5t-129.5 -23q-148 0 -206 64.5t-58 196.5v349h-53q-15 0 -15 15v51 q0 15 15 15h218q15 0 15 -15v-51q0 -15 -15 -15h-53zM370 841l41 -92q8 -17 -11 -17h-40q-19 0 -30 15l-65 96q-11 15 8 15h70q19 0 27 -17z" />
<glyph unicode="&#xda;" horiz-adv-x="713" d="M205 598v-314q0 -50 5 -82.5t20 -63.5t47 -45.5t83 -14.5q90 0 127 52t37 151v317h-53q-15 0 -15 15v51q0 15 15 15h202q15 0 15 -15v-51q0 -15 -15 -15h-53v-338q0 -55 -12 -100t-40 -85.5t-81.5 -63.5t-129.5 -23q-148 0 -206 64.5t-58 196.5v349h-53q-15 0 -15 15v51 q0 15 15 15h218q15 0 15 -15v-51q0 -15 -15 -15h-53zM337 746l45 98q6 14 21 14h78q15 0 6 -12l-70 -102q-7 -12 -23 -12h-48q-15 0 -9 14z" />
<glyph unicode="&#xdb;" horiz-adv-x="713" d="M205 598v-314q0 -50 5 -82.5t20 -63.5t47 -45.5t83 -14.5q90 0 127 52t37 151v317h-53q-15 0 -15 15v51q0 15 15 15h202q15 0 15 -15v-51q0 -15 -15 -15h-53v-338q0 -55 -12 -100t-40 -85.5t-81.5 -63.5t-129.5 -23q-148 0 -206 64.5t-58 196.5v349h-53q-15 0 -15 15v51 q0 15 15 15h218q15 0 15 -15v-51q0 -15 -15 -15h-53zM283 732h-55q-15 0 -6 12l82 107q9 12 24 12h76q15 0 24 -12l82 -107q9 -12 -6 -12h-57q-16 0 -25 12l-58 71l-57 -71q-9 -12 -24 -12z" />
<glyph unicode="&#xdc;" horiz-adv-x="713" d="M205 598v-314q0 -50 5 -82.5t20 -63.5t47 -45.5t83 -14.5q90 0 127 52t37 151v317h-53q-15 0 -15 15v51q0 15 15 15h202q15 0 15 -15v-51q0 -15 -15 -15h-53v-338q0 -55 -12 -100t-40 -85.5t-81.5 -63.5t-129.5 -23q-148 0 -206 64.5t-58 196.5v349h-53q-15 0 -15 15v51 q0 15 15 15h218q15 0 15 -15v-51q0 -15 -15 -15h-53zM467 738q-28 0 -45 16.5t-17 45.5q0 28 17 44t45 16q62 0 62 -60q0 -29 -17.5 -45.5t-44.5 -16.5zM264 738q-28 0 -45 16.5t-17 45.5q0 28 17 44t45 16q62 0 62 -60q0 -29 -17.5 -45.5t-44.5 -16.5z" />
<glyph unicode="&#xdd;" horiz-adv-x="664" d="M279 257l-202 341h-52q-15 0 -15 15v51q0 15 15 15h254q15 0 15 -15v-51q0 -15 -15 -15h-71l144 -246l143 246h-67q-15 0 -15 15v51q0 15 15 15h211q15 0 15 -15v-51q0 -15 -15 -15h-53l-195 -328v-192h53q15 0 15 -15v-48q0 -15 -15 -15h-218q-15 0 -15 15v48 q0 15 15 15h53v179zM314 746l45 98q6 14 21 14h78q15 0 6 -12l-70 -102q-7 -12 -23 -12h-48q-15 0 -9 14z" />
<glyph unicode="&#xde;" horiz-adv-x="565" d="M298 0h-239q-11 0 -15 4t-4 15v42q0 11 4 15t15 3h48v520h-48q-11 -1 -15 3t-4 15v43q0 11 4 15t15 4h207q11 0 15 -4t4 -15v-43q0 -11 -4 -15t-15 -3h-47v-31h48q263 0 263 -194q0 -104 -68 -160.5t-179 -56.5q-39 0 -64 3v-81h79q11 1 15 -3t4 -15v-42q0 -11 -4 -15 t-15 -4zM269 483h-50v-246q8 -1 31 -1q83 0 124 29.5t41 100.5q0 67 -38.5 92t-107.5 25z" />
<glyph unicode="&#xdf;" horiz-adv-x="636" d="M515 120q0 29 -22.5 49t-54.5 33.5t-64 29t-54.5 44.5t-22.5 71q0 40 19.5 78t43 62.5t43 57t19.5 62.5q0 74 -106 74q-59 0 -84.5 -30.5t-25.5 -87.5v-484h41q11 1 15 -3t4 -15v-42q0 -11 -4 -15t-15 -4h-211q-11 0 -15 4t-4 15v42q0 11 4 15t15 3h58v477 q0 93 49.5 148.5t174.5 55.5q93 0 150 -34.5t57 -107.5q0 -35 -19.5 -70t-43.5 -59.5t-43.5 -54t-19.5 -53.5q0 -27 22.5 -47.5t54.5 -36t63.5 -33.5t54 -50.5t22.5 -77.5q0 -69 -48.5 -108.5t-130.5 -39.5q-60 0 -114 18q-11 4 -13.5 8.5t0.5 15.5l10 38q3 10 7.5 12.5 t14.5 -1.5q52 -22 94 -22q79 0 79 63z" />
<glyph unicode="&#xe0;" horiz-adv-x="524" d="M328 297v35q0 21 -2.5 36t-11 30t-27 23t-46.5 8q-44 0 -63.5 -16.5t-26.5 -47.5q-3 -15 -15 -15h-64q-16 0 -14 15q4 73 59 107t140 34q179 0 179 -164v-263h43q15 0 15 -15v-49q0 -15 -15 -15h-118q-13 0 -15 15l-7 46q-54 -73 -156 -73q-64 0 -106 33.5t-42 107.5 q0 34 11 60.5t26.5 43.5t43 29.5t49.5 18.5t56.5 10t54 4.5t52.5 1.5zM330 151v77q-29 0 -43 -0.5t-41 -3t-41.5 -8.5t-31.5 -15t-24.5 -25t-7.5 -37q0 -69 79 -69q52 0 81 24.5t29 56.5zM262 714l43 -116q4 -10 1 -14t-14 -4h-44q-20 0 -28 17l-65 118q-5 10 -3 13.5 t13 3.5h72q12 0 16.5 -3.5t8.5 -14.5z" />
<glyph unicode="&#xe1;" horiz-adv-x="524" d="M328 297v35q0 21 -2.5 36t-11 30t-27 23t-46.5 8q-44 0 -63.5 -16.5t-26.5 -47.5q-3 -15 -15 -15h-64q-16 0 -14 15q4 73 59 107t140 34q179 0 179 -164v-263h43q15 0 15 -15v-49q0 -15 -15 -15h-118q-13 0 -15 15l-7 46q-54 -73 -156 -73q-64 0 -106 33.5t-42 107.5 q0 34 11 60.5t26.5 43.5t43 29.5t49.5 18.5t56.5 10t54 4.5t52.5 1.5zM330 151v77q-29 0 -43 -0.5t-41 -3t-41.5 -8.5t-31.5 -15t-24.5 -25t-7.5 -37q0 -69 79 -69q52 0 81 24.5t29 56.5zM217 598l42 116q4 11 8.5 14.5t16.5 3.5h72q11 0 13 -3.5t-3 -13.5l-65 -118 q-5 -10 -10.5 -13.5t-17.5 -3.5h-43q-11 0 -14 4t1 14z" />
<glyph unicode="&#xe2;" horiz-adv-x="524" d="M328 297v35q0 21 -2.5 36t-11 30t-27 23t-46.5 8q-44 0 -63.5 -16.5t-26.5 -47.5q-3 -15 -15 -15h-64q-16 0 -14 15q4 73 59 107t140 34q179 0 179 -164v-263h43q15 0 15 -15v-49q0 -15 -15 -15h-118q-13 0 -15 15l-7 46q-54 -73 -156 -73q-64 0 -106 33.5t-42 107.5 q0 34 11 60.5t26.5 43.5t43 29.5t49.5 18.5t56.5 10t54 4.5t52.5 1.5zM330 151v77q-29 0 -43 -0.5t-41 -3t-41.5 -8.5t-31.5 -15t-24.5 -25t-7.5 -37q0 -69 79 -69q52 0 81 24.5t29 56.5zM177 580h-59q-16 0 -7 13l84 135q9 13 23 13h76q14 0 23 -13l84 -135q9 -13 -7 -13 h-59q-15 0 -23 12l-58 85l-54 -84q-9 -13 -23 -13z" />
<glyph unicode="&#xe3;" horiz-adv-x="524" d="M328 297v35q0 21 -2.5 36t-11 30t-27 23t-46.5 8q-44 0 -63.5 -16.5t-26.5 -47.5q-3 -15 -15 -15h-64q-16 0 -14 15q4 73 59 107t140 34q179 0 179 -164v-263h43q15 0 15 -15v-49q0 -15 -15 -15h-118q-13 0 -15 15l-7 46q-54 -73 -156 -73q-64 0 -106 33.5t-42 107.5 q0 34 11 60.5t26.5 43.5t43 29.5t49.5 18.5t56.5 10t54 4.5t52.5 1.5zM330 151v77q-29 0 -43 -0.5t-41 -3t-41.5 -8.5t-31.5 -15t-24.5 -25t-7.5 -37q0 -69 79 -69q52 0 81 24.5t29 56.5zM153 712q27 0 93 -20.5t89 -20.5q34 0 34 27q0 13 15 13h24q12 0 12 -14 q0 -50 -21.5 -74.5t-54.5 -24.5q-32 0 -98 19t-81 19q-30 0 -30 -22q0 -7 -2 -8.5t-10 -1.5h-31q-12 0 -12 14q0 53 22 73.5t51 20.5z" />
<glyph unicode="&#xe4;" horiz-adv-x="524" d="M328 297v35q0 21 -2.5 36t-11 30t-27 23t-46.5 8q-44 0 -63.5 -16.5t-26.5 -47.5q-3 -15 -15 -15h-64q-16 0 -14 15q4 73 59 107t140 34q179 0 179 -164v-263h43q15 0 15 -15v-49q0 -15 -15 -15h-118q-13 0 -15 15l-7 46q-54 -73 -156 -73q-64 0 -106 33.5t-42 107.5 q0 34 11 60.5t26.5 43.5t43 29.5t49.5 18.5t56.5 10t54 4.5t52.5 1.5zM330 151v77q-29 0 -43 -0.5t-41 -3t-41.5 -8.5t-31.5 -15t-24.5 -25t-7.5 -37q0 -69 79 -69q52 0 81 24.5t29 56.5zM347 595q-28 0 -45 16.5t-17 45.5q0 28 17 44t45 16q62 0 62 -60q0 -29 -17.5 -45.5 t-44.5 -16.5zM144 595q-28 0 -45 16.5t-17 45.5q0 28 17 44t45 16q62 0 62 -60q0 -29 -17.5 -45.5t-44.5 -16.5z" />
<glyph unicode="&#xe5;" horiz-adv-x="524" d="M328 297v35q0 21 -2.5 36t-11 30t-27 23t-46.5 8q-44 0 -63.5 -16.5t-26.5 -47.5q-3 -15 -15 -15h-64q-16 0 -14 15q4 73 59 107t140 34q179 0 179 -164v-263h43q15 0 15 -15v-49q0 -15 -15 -15h-118q-13 0 -15 15l-7 46q-54 -73 -156 -73q-64 0 -106 33.5t-42 107.5 q0 34 11 60.5t26.5 43.5t43 29.5t49.5 18.5t56.5 10t54 4.5t52.5 1.5zM330 151v77q-29 0 -43 -0.5t-41 -3t-41.5 -8.5t-31.5 -15t-24.5 -25t-7.5 -37q0 -69 79 -69q52 0 81 24.5t29 56.5zM256 565q-46 0 -72 29t-26 72q0 42 28.5 71t71.5 29q45 0 72 -28t27 -67 q0 -46 -28 -76t-73 -30zM258 714q-42 0 -42 -48q0 -21 11 -35t31 -14t31.5 14t11.5 35q0 22 -11.5 35t-31.5 13z" />
<glyph unicode="&#xe6;" horiz-adv-x="778" d="M716 22q-72 -34 -160 -34q-115 0 -172 63q-88 -63 -190 -63q-72 0 -115.5 35t-43.5 113q0 35 11 62t26.5 45t43 30.5t49.5 19t56.5 10.5t54 4.5t52.5 1.5v27q0 49 -20 71t-65 22q-81 0 -92 -60q-2 -12 -6.5 -15.5t-16.5 -3.5h-52q-11 0 -14.5 4t-2.5 15q13 137 193 137 q112 0 145 -70q56 70 160 70q53 0 91 -18t59.5 -50t31 -69.5t9.5 -83.5q0 -20 -1 -31q-1 -12 -4.5 -15.5t-15.5 -3.5h-292q0 -163 144 -163q51 0 108 25q11 4 15 2.5t9 -12.5l15 -39q4 -11 2.5 -16t-12.5 -10zM141 145q0 -75 87 -75q35 0 70 13.5t53 29.5q-27 47 -27 122 q-27 -1 -42 -1.5t-40 -3.5t-40 -9t-30.5 -15.5t-23 -25t-7.5 -35.5zM546 422q-31 0 -54 -12t-34.5 -31t-16.5 -36t-6 -34h203q0 23 -3 41t-12 35.5t-28.5 27t-48.5 9.5z" />
<glyph unicode="&#xe7;" horiz-adv-x="468" d="M149 254q0 -182 141 -182q45 0 105 27q15 6 21 -9l18 -44q5 -14 -8 -21q-52 -32 -133 -36l-13 -21l16 -14q38 -33 38 -62q0 -41 -96 -105q-13 -8 -21 3l-8 10q-9 11 1 20q41 36 41 56t-22 37l-9 7q-10 9 -3 21l33 48q-110 6 -162.5 74t-52.5 182q0 115 59.5 188t177.5 73 q90 0 133 -49t43 -125q0 -13 -17 -13h-60q-16 0 -17 15q-5 88 -89 88q-60 0 -88 -41.5t-28 -126.5z" />
<glyph unicode="&#xe8;" horiz-adv-x="489" d="M265 -12q-119 0 -174.5 69.5t-55.5 190.5q0 108 59 183t170 75q55 0 94.5 -20.5t60.5 -56t30.5 -74t9.5 -82.5q0 -22 -1 -34q-1 -10 -4 -13t-14 -3h-294q5 -72 35.5 -111.5t105.5 -39.5q55 0 113 26q14 7 20 -8l19 -46q5 -12 -9 -20q-66 -36 -165 -36zM146 297h208 q2 125 -98 125q-59 0 -83.5 -37.5t-26.5 -87.5zM273 714l43 -116q4 -10 1 -14t-14 -4h-44q-12 0 -17.5 3.5t-10.5 13.5l-65 118q-5 10 -3 13.5t13 3.5h72q12 0 16.5 -3.5t8.5 -14.5z" />
<glyph unicode="&#xe9;" horiz-adv-x="489" d="M265 -12q-119 0 -174.5 69.5t-55.5 190.5q0 108 59 183t170 75q55 0 94.5 -20.5t60.5 -56t30.5 -74t9.5 -82.5q0 -22 -1 -34q-1 -10 -4 -13t-14 -3h-294q5 -72 35.5 -111.5t105.5 -39.5q55 0 113 26q14 7 20 -8l19 -46q5 -12 -9 -20q-66 -36 -165 -36zM146 297h208 q2 125 -98 125q-59 0 -83.5 -37.5t-26.5 -87.5zM234 598l42 116q4 11 8.5 14.5t16.5 3.5h72q11 0 13 -3.5t-3 -13.5l-65 -118q-8 -17 -28 -17h-43q-11 0 -14 4t1 14z" />
<glyph unicode="&#xea;" horiz-adv-x="489" d="M265 -12q-119 0 -174.5 69.5t-55.5 190.5q0 108 59 183t170 75q55 0 94.5 -20.5t60.5 -56t30.5 -74t9.5 -82.5q0 -22 -1 -34q-1 -10 -4 -13t-14 -3h-294q5 -72 35.5 -111.5t105.5 -39.5q55 0 113 26q14 7 20 -8l19 -46q5 -12 -9 -20q-66 -36 -165 -36zM146 297h208 q2 125 -98 125q-59 0 -83.5 -37.5t-26.5 -87.5zM182 580h-59q-16 0 -7 13l84 135q9 13 23 13h76q14 0 23 -13l84 -135q9 -13 -7 -13h-59q-16 0 -23 12l-58 85l-54 -84q-9 -13 -23 -13z" />
<glyph unicode="&#xeb;" horiz-adv-x="489" d="M265 -12q-119 0 -174.5 69.5t-55.5 190.5q0 108 59 183t170 75q55 0 94.5 -20.5t60.5 -56t30.5 -74t9.5 -82.5q0 -22 -1 -34q-1 -10 -4 -13t-14 -3h-294q5 -72 35.5 -111.5t105.5 -39.5q55 0 113 26q14 7 20 -8l19 -46q5 -12 -9 -20q-66 -36 -165 -36zM146 297h208 q2 125 -98 125q-59 0 -83.5 -37.5t-26.5 -87.5zM367 595q-28 0 -45 16.5t-17 45.5q0 28 17 44t45 16q62 0 62 -60q0 -29 -17.5 -45.5t-44.5 -16.5zM164 595q-28 0 -45 16.5t-17 45.5q0 28 17 44t45 16q62 0 62 -60q0 -29 -17.5 -45.5t-44.5 -16.5z" />
<glyph unicode="&#xec;" horiz-adv-x="294" d="M206 480v-401h63q15 0 15 -15v-49q0 -15 -15 -15h-238q-15 0 -15 15v49q0 15 15 15h63v334h-54q-15 0 -15 15v52q0 15 15 15h151q15 0 15 -15zM147 714l43 -116q4 -10 1 -14t-14 -4h-44q-12 0 -17.5 3.5t-10.5 13.5l-65 118q-5 10 -3 13.5t13 3.5h72q12 0 16.5 -3.5 t8.5 -14.5z" />
<glyph unicode="&#xed;" horiz-adv-x="294" d="M206 480v-401h63q15 0 15 -15v-49q0 -15 -15 -15h-238q-15 0 -15 15v49q0 15 15 15h63v334h-54q-15 0 -15 15v52q0 15 15 15h151q15 0 15 -15zM101 598l42 116q4 11 8.5 14.5t16.5 3.5h72q11 0 13 -3.5t-3 -13.5l-65 -118q-5 -10 -10.5 -13.5t-17.5 -3.5h-43q-11 0 -14 4 t1 14z" />
<glyph unicode="&#xee;" horiz-adv-x="294" d="M206 480v-401h63q15 0 15 -15v-49q0 -15 -15 -15h-238q-15 0 -15 15v49q0 15 15 15h63v334h-54q-15 0 -15 15v52q0 15 15 15h151q15 0 15 -15zM70 580h-59q-16 0 -7 13l84 135q9 13 23 13h76q14 0 23 -13l84 -135q9 -13 -7 -13h-59q-16 0 -23 12l-58 85l-54 -84 q-9 -13 -23 -13z" />
<glyph unicode="&#xef;" horiz-adv-x="294" d="M206 79v401q0 15 -15 15h-151q-15 0 -15 -15v-52q0 -15 15 -15h54v-334h-63q-15 0 -15 -15v-49q0 -15 15 -15h238q15 0 15 15v49q0 15 -15 15h-63zM226 595q-28 0 -45 16.5t-17 45.5q0 28 17 44t45 16q62 0 62 -60q0 -29 -17.5 -45.5t-44.5 -16.5zM23 595q-28 0 -45 16.5 t-17 45.5q0 28 17 44t45 16q62 0 62 -60q0 -29 -17.5 -45.5t-44.5 -16.5z" />
<glyph unicode="&#xf0;" horiz-adv-x="528" d="M357 568l-93 -43q-10 -5 -15 -3t-9 12l-6 14q-8 18 10 25l91 43q-43 58 -111 58q-79 0 -86 -76q-2 -11 -6 -15t-15 -4h-46q-11 0 -15 4t-3 15q4 149 175 149q125 0 188 -94l89 42q10 5 15 3t9 -12l7 -16q4 -9 2 -14t-12 -9l-86 -40q51 -109 51 -309q0 -156 -56.5 -233 t-177.5 -77q-106 0 -164 59t-58 169q0 91 52.5 153t145.5 62q100 0 154 -75q-2 128 -30 212zM383 259q-16 33 -52 59t-76 26q-57 0 -85.5 -34t-28.5 -93q0 -66 29 -106.5t90 -40.5q42 0 69 17.5t38 49t14 59t2 63.5z" />
<glyph unicode="&#xf1;" horiz-adv-x="604" d="M25 427v53q0 15 15 15h136q13 0 16 -15l9 -58q56 84 160 84q155 0 155 -170v-257h58q15 0 15 -15v-49q0 -15 -15 -15h-218q-15 0 -15 15v49q0 15 15 15h48v207q0 63 -16 92t-70 29q-46 0 -79 -30t-33 -68v-230h62q15 0 15 -15v-49q0 -15 -15 -15h-227q-15 0 -15 15v49 q0 15 15 15h53v334h-54q-15 0 -15 14zM205 712q27 0 93 -20.5t89 -20.5q34 0 34 27q0 13 15 13h24q12 0 12 -14q0 -50 -21.5 -74.5t-54.5 -24.5q-32 0 -98 19t-81 19q-30 0 -30 -22q0 -7 -2 -8.5t-10 -1.5h-31q-12 0 -12 14q0 53 22 73.5t51 20.5z" />
<glyph unicode="&#xf2;" horiz-adv-x="532" d="M35 240q0 75 23 130t60.5 83t75.5 40.5t78 12.5q28 0 53.5 -4t58.5 -19t56.5 -40t40 -72t16.5 -110q0 -134 -67.5 -203.5t-173.5 -69.5q-104 0 -162.5 63.5t-58.5 188.5zM265 70q60 0 87.5 44.5t27.5 132.5t-27.5 132.5t-89.5 44.5q-115 0 -115 -162q0 -192 117 -192z M283 714l43 -116q4 -10 1 -14t-14 -4h-44q-12 0 -17.5 3.5t-10.5 13.5l-65 118q-5 10 -3 13.5t13 3.5h72q12 0 16.5 -3.5t8.5 -14.5z" />
<glyph unicode="&#xf3;" horiz-adv-x="532" d="M35 240q0 75 23 130t60.5 83t75.5 40.5t78 12.5q28 0 53.5 -4t58.5 -19t56.5 -40t40 -72t16.5 -110q0 -134 -67.5 -203.5t-173.5 -69.5q-104 0 -162.5 63.5t-58.5 188.5zM265 70q60 0 87.5 44.5t27.5 132.5t-27.5 132.5t-89.5 44.5q-115 0 -115 -162q0 -192 117 -192z M240 598l42 116q4 11 8.5 14.5t16.5 3.5h72q11 0 13 -3.5t-3 -13.5l-65 -118q-8 -17 -28 -17h-43q-11 0 -14 4t1 14z" />
<glyph unicode="&#xf4;" horiz-adv-x="532" d="M35 240q0 75 23 130t60.5 83t75.5 40.5t78 12.5q28 0 53.5 -4t58.5 -19t56.5 -40t40 -72t16.5 -110q0 -134 -67.5 -203.5t-173.5 -69.5q-104 0 -162.5 63.5t-58.5 188.5zM265 70q60 0 87.5 44.5t27.5 132.5t-27.5 132.5t-89.5 44.5q-115 0 -115 -162q0 -192 117 -192z M189 580h-59q-16 0 -7 13l84 135q9 13 23 13h76q14 0 23 -13l84 -135q9 -13 -7 -13h-59q-16 0 -23 12l-58 85l-54 -84q-9 -13 -23 -13z" />
<glyph unicode="&#xf5;" horiz-adv-x="532" d="M35 240q0 75 23 130t60.5 83t75.5 40.5t78 12.5q28 0 53.5 -4t58.5 -19t56.5 -40t40 -72t16.5 -110q0 -134 -67.5 -203.5t-173.5 -69.5q-104 0 -162.5 63.5t-58.5 188.5zM265 70q60 0 87.5 44.5t27.5 132.5t-27.5 132.5t-89.5 44.5q-115 0 -115 -162q0 -192 117 -192z M169 712q27 0 93 -20.5t89 -20.5q34 0 34 27q0 13 15 13h24q12 0 12 -14q0 -50 -21.5 -74.5t-54.5 -24.5q-32 0 -98 19t-81 19q-30 0 -30 -22q0 -7 -2 -8.5t-10 -1.5h-31q-12 0 -12 14q0 53 22 73.5t51 20.5z" />
<glyph unicode="&#xf6;" horiz-adv-x="532" d="M35 240q0 75 23 130t60.5 83t75.5 40.5t78 12.5q28 0 53.5 -4t58.5 -19t56.5 -40t40 -72t16.5 -110q0 -134 -67.5 -203.5t-173.5 -69.5q-104 0 -162.5 63.5t-58.5 188.5zM265 70q60 0 87.5 44.5t27.5 132.5t-27.5 132.5t-89.5 44.5q-115 0 -115 -162q0 -192 117 -192z M375 595q-28 0 -45 16.5t-17 45.5q0 28 17 44t45 16q62 0 62 -60q0 -29 -17.5 -45.5t-44.5 -16.5zM172 595q-28 0 -45 16.5t-17 45.5q0 28 17 44t45 16q62 0 62 -60q0 -29 -17.5 -45.5t-44.5 -16.5z" />
<glyph unicode="&#xf7;" horiz-adv-x="530" d="M264 82q-35 0 -55 19.5t-20 49.5q0 29 21 49t53 20q34 0 55 -19t21 -49t-20 -50t-55 -20zM264 388q-35 0 -55 19.5t-20 49.5q0 29 21 49t53 20q34 0 55 -19t21 -49t-20 -50t-55 -20zM35 284v27q0 11 4 15t15 4h422q11 0 15 -4t4 -15v-27q0 -11 -4 -15t-15 -4h-422 q-11 0 -15 4t-4 15z" />
<glyph unicode="&#xf8;" horiz-adv-x="532" d="M35 240q0 75 23 130t60.5 83t75.5 40.5t78 12.5t69 -7l32 74q4 11 8.5 14.5t16.5 3.5h24q11 0 14 -3.5t-1 -14.5l-41 -95q103 -56 103 -217q0 -134 -67.5 -203.5t-173.5 -69.5q-39 0 -72 9l-34 -80q-4 -11 -8.5 -14.5t-16.5 -3.5h-23q-11 0 -14 3.5t1 14.5l44 102 q-98 60 -98 221zM265 70q60 0 87.5 44.5t27.5 132.5q0 89 -29 134l-131 -302q20 -9 45 -9zM148 262q0 -97 28 -143l129 298q-21 7 -42 7q-115 0 -115 -162z" />
<glyph unicode="&#xf9;" horiz-adv-x="599" d="M510 79h44q15 0 15 -15v-49q0 -15 -15 -15h-112q-12 0 -15 15l-9 56q-64 -83 -168 -83q-162 0 -162 170v255h-53q-15 0 -15 15v52q0 15 15 15h150q15 0 15 -15v-292q0 -60 15.5 -85.5t70.5 -25.5q46 0 79 30t33 68v238h-63q-15 0 -15 15v52q0 15 15 15h160q15 0 15 -15 v-401zM315 714l43 -116q4 -10 1 -14t-14 -4h-44q-12 0 -17.5 3.5t-10.5 13.5l-65 118q-5 10 -3 13.5t13 3.5h72q12 0 16.5 -3.5t8.5 -14.5z" />
<glyph unicode="&#xfa;" horiz-adv-x="599" d="M510 79h44q15 0 15 -15v-49q0 -15 -15 -15h-112q-12 0 -15 15l-9 56q-64 -83 -168 -83q-162 0 -162 170v255h-53q-15 0 -15 15v52q0 15 15 15h150q15 0 15 -15v-292q0 -60 15.5 -85.5t70.5 -25.5q46 0 79 30t33 68v238h-63q-15 0 -15 15v52q0 15 15 15h160q15 0 15 -15 v-401zM248 598l42 116q4 11 8.5 14.5t16.5 3.5h72q11 0 13 -3.5t-3 -13.5l-65 -118q-8 -17 -28 -17h-43q-11 0 -14 4t1 14z" />
<glyph unicode="&#xfb;" horiz-adv-x="599" d="M510 79h44q15 0 15 -15v-49q0 -15 -15 -15h-112q-12 0 -15 15l-9 56q-64 -83 -168 -83q-162 0 -162 170v255h-53q-15 0 -15 15v52q0 15 15 15h150q15 0 15 -15v-292q0 -60 15.5 -85.5t70.5 -25.5q46 0 79 30t33 68v238h-63q-15 0 -15 15v52q0 15 15 15h160q15 0 15 -15 v-401zM216 580h-59q-16 0 -7 13l84 135q9 13 23 13h76q14 0 23 -13l84 -135q9 -13 -7 -13h-59q-16 0 -23 12l-58 85l-54 -84q-9 -13 -23 -13z" />
<glyph unicode="&#xfc;" horiz-adv-x="599" d="M510 79h44q15 0 15 -15v-49q0 -15 -15 -15h-112q-12 0 -15 15l-9 56q-64 -83 -168 -83q-162 0 -162 170v255h-53q-15 0 -15 15v52q0 15 15 15h150q15 0 15 -15v-292q0 -60 15.5 -85.5t70.5 -25.5q46 0 79 30t33 68v238h-63q-15 0 -15 15v52q0 15 15 15h160q15 0 15 -15 v-401zM388 595q-28 0 -45 16.5t-17 45.5q0 28 17 44t45 16q62 0 62 -60q0 -29 -17.5 -45.5t-44.5 -16.5zM185 595q-28 0 -45 16.5t-17 45.5q0 28 17 44t45 16q62 0 62 -60q0 -29 -17.5 -45.5t-44.5 -16.5z" />
<glyph unicode="&#xfd;" horiz-adv-x="519" d="M165 481l117 -364l104 296h-51q-15 0 -15 15v52q0 15 15 15h146q12 0 17.5 -9.5t0.5 -20.5l-214 -559q-15 -38 -25.5 -58.5t-30 -44t-47.5 -33.5t-68 -10q-65 0 -111 22q-11 6 -7 19l17 49q4 13 19 9q48 -16 79 -16q30 0 46.5 15.5t34.5 64.5l25 66l-152 424h-50 q-15 0 -15 15v52q0 15 15 15h131q15 0 19 -14zM251 598l42 116q4 11 8.5 14.5t16.5 3.5h72q11 0 13 -3.5t-3 -13.5l-65 -118q-5 -10 -10.5 -13.5t-17.5 -3.5h-43q-11 0 -14 4t1 14z" />
<glyph unicode="&#xfe;" horiz-adv-x="584" d="M89 -151v815h-54q-15 0 -15 15v52q0 15 15 15h151q12 0 15 -15v-309q24 37 64 60.5t88 23.5q92 0 144 -60.5t52 -178.5q0 -143 -61 -211t-157 -68q-79 0 -130 42v-180h106q15 0 15 -15v-50q0 -15 -15 -15h-271q-15 0 -15 15v49q0 15 15 15h53zM201 304v-191q5 -5 14 -12 t38.5 -18.5t61.5 -11.5q58 0 89.5 39.5t31.5 133.5q0 38 -4 65t-15.5 53t-36 39t-61.5 13q-47 0 -82.5 -29.5t-35.5 -80.5z" />
<glyph unicode="&#xff;" horiz-adv-x="519" d="M165 481l117 -364l104 296h-51q-15 0 -15 15v52q0 15 15 15h146q12 0 17.5 -9.5t0.5 -20.5l-214 -559q-15 -38 -25.5 -58.5t-30 -44t-47.5 -33.5t-68 -10q-65 0 -111 22q-11 6 -7 19l17 49q4 13 19 9q48 -16 79 -16q30 0 46.5 15.5t34.5 64.5l25 66l-152 424h-50 q-15 0 -15 15v52q0 15 15 15h131q15 0 19 -14zM366 595q-28 0 -45 16.5t-17 45.5q0 28 17 44t45 16q62 0 62 -60q0 -29 -17.5 -45.5t-44.5 -16.5zM163 595q-28 0 -45 16.5t-17 45.5q0 28 17 44t45 16q62 0 62 -60q0 -29 -17.5 -45.5t-44.5 -16.5z" />
<glyph unicode="&#x100;" horiz-adv-x="696" d="M214 214l-46 -135h60q15 0 15 -15v-49q0 -15 -15 -15h-213q-15 0 -15 15v49q0 15 15 15h59l200 586q6 14 20 14h97q14 0 20 -14l202 -586h68q15 0 15 -15v-49q0 -15 -15 -15h-251q-15 0 -15 15v49q0 15 15 15h62l-47 135h-231zM329 583l-95 -294h189zM478 760h-260 q-11 0 -15 4t-4 15v43q0 11 4 15t15 4h260q11 0 15 -4t4 -15v-43q0 -11 -4 -15t-15 -4z" />
<glyph unicode="&#x101;" horiz-adv-x="524" d="M328 297v35q0 21 -2.5 36t-11 30t-27 23t-46.5 8q-44 0 -63.5 -16.5t-26.5 -47.5q-3 -15 -15 -15h-64q-16 0 -14 15q4 73 59 107t140 34q179 0 179 -164v-263h43q15 0 15 -15v-49q0 -15 -15 -15h-118q-13 0 -15 15l-7 46q-54 -73 -156 -73q-64 0 -106 33.5t-42 107.5 q0 34 11 60.5t26.5 43.5t43 29.5t49.5 18.5t56.5 10t54 4.5t52.5 1.5zM330 151v77q-29 0 -43 -0.5t-41 -3t-41.5 -8.5t-31.5 -15t-24.5 -25t-7.5 -37q0 -69 79 -69q52 0 81 24.5t29 56.5zM381 612h-260q-11 0 -15 4t-4 15v43q0 11 4 15t15 4h260q11 0 15 -4t4 -15v-43 q0 -11 -4 -15t-15 -4z" />
<glyph unicode="&#x102;" horiz-adv-x="696" d="M214 214l-46 -135h60q15 0 15 -15v-49q0 -15 -15 -15h-213q-15 0 -15 15v49q0 15 15 15h59l200 586q6 14 20 14h97q14 0 20 -14l202 -586h68q15 0 15 -15v-49q0 -15 -15 -15h-251q-15 0 -15 15v49q0 15 15 15h62l-47 135h-231zM329 583l-95 -294h189zM354 811q75 0 88 42 q4 12 9 15.5t17 3.5h31q11 0 15 -4t3 -15q-4 -56 -48 -87t-118 -31q-78 0 -119.5 31t-43.5 87q0 11 4 15t15 4h32q12 0 16.5 -3.5t7.5 -15.5q11 -42 91 -42z" />
<glyph unicode="&#x103;" horiz-adv-x="524" d="M328 297v35q0 21 -2.5 36t-11 30t-27 23t-46.5 8q-44 0 -63.5 -16.5t-26.5 -47.5q-3 -15 -15 -15h-64q-16 0 -14 15q4 73 59 107t140 34q179 0 179 -164v-263h43q15 0 15 -15v-49q0 -15 -15 -15h-118q-13 0 -15 15l-7 46q-54 -73 -156 -73q-64 0 -106 33.5t-42 107.5 q0 34 11 60.5t26.5 43.5t43 29.5t49.5 18.5t56.5 10t54 4.5t52.5 1.5zM330 151v77q-29 0 -43 -0.5t-41 -3t-41.5 -8.5t-31.5 -15t-24.5 -25t-7.5 -37q0 -69 79 -69q52 0 81 24.5t29 56.5zM255 660q77 0 92 47q4 12 9 15.5t17 3.5h27q11 0 15 -4t3 -15q-5 -59 -49 -93.5 t-117 -34.5q-77 0 -119 34.5t-44 93.5q0 11 4 15t15 4h28q12 0 16.5 -3.5t9.5 -15.5q10 -27 29.5 -37t63.5 -10z" />
<glyph unicode="&#x104;" horiz-adv-x="696" d="M450 -147q0 66 87 147h-107q-15 0 -15 15v49q0 15 15 15h62l-47 135h-231l-46 -135h60q15 0 15 -15v-49q0 -15 -15 -15h-213q-15 0 -15 15v49q0 15 15 15h59l200 586q6 14 20 14h97q14 0 20 -14l202 -586h68q15 0 15 -15v-49q0 -15 -15 -15h-80q-72 -78 -72 -128 q0 -36 33 -36q18 0 39 11q13 6 19 -6l10 -20q8 -15 -7 -24q-44 -30 -89 -30q-40 0 -62 24t-22 62zM329 583l-95 -294h189z" />
<glyph unicode="&#x105;" horiz-adv-x="540" d="M308 -147q0 66 87 147h-34q-13 0 -15 15l-7 46q-54 -73 -156 -73q-64 0 -106 33.5t-42 107.5q0 34 11 60.5t26.5 43.5t43 29.5t49.5 18.5t56.5 10t54 4.5t52.5 1.5v35q0 21 -2.5 36t-11 30t-27 23t-46.5 8q-44 0 -63.5 -16.5t-26.5 -47.5q-3 -15 -15 -15h-64 q-16 0 -14 15q4 73 59 107t140 34q179 0 179 -164v-263h43q15 0 15 -15v-49q0 -15 -15 -15h-20q-72 -78 -72 -128q0 -36 33 -36q18 0 39 11q13 6 19 -6l10 -20q8 -15 -7 -24q-44 -30 -89 -30q-40 0 -62 24t-22 62zM330 151v77q-29 0 -43 -0.5t-41 -3t-41.5 -8.5t-31.5 -15 t-24.5 -25t-7.5 -37q0 -69 79 -69q52 0 81 24.5t29 56.5z" />
<glyph unicode="&#x106;" horiz-adv-x="629" d="M43 336q0 96 28.5 169t75.5 113t99.5 59t109.5 19q116 0 209 -51q13 -7 13 -20v-129q0 -15 -15 -15h-56q-15 0 -14 15l3 70q-62 42 -141 42q-192 0 -192 -256q0 -80 19 -139.5t67 -98.5t123 -39q85 0 125 32l-4 70q-1 15 14 15h57q15 0 15 -15v-127q0 -14 -10 -19 q-88 -43 -201 -43q-164 0 -244.5 93t-80.5 255zM321 746l45 98q6 14 21 14h78q15 0 6 -12l-70 -102q-7 -12 -23 -12h-48q-15 0 -9 14z" />
<glyph unicode="&#x107;" horiz-adv-x="468" d="M149 254q0 -182 141 -182q45 0 105 27q15 6 21 -9l18 -44q5 -14 -8 -21q-61 -37 -154 -37q-121 0 -179 68.5t-58 188.5q0 115 59.5 188t177.5 73q90 0 133 -49t43 -125q0 -13 -17 -13h-60q-16 0 -17 15q-5 88 -89 88q-60 0 -88 -41.5t-28 -126.5zM242 598l42 116 q4 11 8.5 14.5t16.5 3.5h72q11 0 13 -3.5t-3 -13.5l-65 -118q-8 -17 -28 -17h-43q-11 0 -14 4t1 14z" />
<glyph unicode="&#x108;" horiz-adv-x="629" d="M43 336q0 96 28.5 169t75.5 113t99.5 59t109.5 19q116 0 209 -51q13 -7 13 -20v-129q0 -15 -15 -15h-56q-15 0 -14 15l3 70q-62 42 -141 42q-192 0 -192 -256q0 -80 19 -139.5t67 -98.5t123 -39q85 0 125 32l-4 70q-1 15 14 15h57q15 0 15 -15v-127q0 -14 -10 -19 q-88 -43 -201 -43q-164 0 -244.5 93t-80.5 255zM277 732h-55q-15 0 -6 12l82 107q9 12 24 12h76q15 0 24 -12l82 -107q9 -12 -6 -12h-57q-16 0 -25 12l-58 71l-57 -71q-9 -12 -24 -12z" />
<glyph unicode="&#x109;" horiz-adv-x="468" d="M149 254q0 -182 141 -182q45 0 105 27q15 6 21 -9l18 -44q5 -14 -8 -21q-61 -37 -154 -37q-121 0 -179 68.5t-58 188.5q0 115 59.5 188t177.5 73q90 0 133 -49t43 -125q0 -13 -17 -13h-60q-16 0 -17 15q-5 88 -89 88q-60 0 -88 -41.5t-28 -126.5zM196 580h-59 q-16 0 -7 13l84 135q9 13 23 13h76q14 0 23 -13l84 -135q9 -13 -7 -13h-59q-16 0 -23 12l-58 85l-54 -84q-9 -13 -23 -13z" />
<glyph unicode="&#x10a;" horiz-adv-x="629" d="M43 336q0 96 28.5 169t75.5 113t99.5 59t109.5 19q116 0 209 -51q13 -7 13 -20v-129q0 -15 -15 -15h-56q-15 0 -14 15l3 70q-62 42 -141 42q-192 0 -192 -256q0 -80 19 -139.5t67 -98.5t123 -39q85 0 125 32l-4 70q-1 15 14 15h57q15 0 15 -15v-127q0 -14 -10 -19 q-88 -43 -201 -43q-164 0 -244.5 93t-80.5 255zM282 801q0 31 19.5 51.5t51.5 20.5q33 0 52.5 -20.5t19.5 -51.5t-20 -51t-52 -20q-33 0 -52 20t-19 51z" />
<glyph unicode="&#x10b;" horiz-adv-x="468" d="M149 254q0 -182 141 -182q45 0 105 27q15 6 21 -9l18 -44q5 -14 -8 -21q-61 -37 -154 -37q-121 0 -179 68.5t-58 188.5q0 115 59.5 188t177.5 73q90 0 133 -49t43 -125q0 -13 -17 -13h-60q-16 0 -17 15q-5 88 -89 88q-60 0 -88 -41.5t-28 -126.5zM198 635q0 31 19.5 51.5 t51.5 20.5q33 0 52.5 -20.5t19.5 -51.5t-20 -51t-52 -20q-33 0 -52 20t-19 51z" />
<glyph unicode="&#x10c;" horiz-adv-x="629" d="M43 336q0 96 28.5 169t75.5 113t99.5 59t109.5 19q116 0 209 -51q13 -7 13 -20v-129q0 -15 -15 -15h-56q-15 0 -14 15l3 70q-62 42 -141 42q-192 0 -192 -256q0 -80 19 -139.5t67 -98.5t123 -39q85 0 125 32l-4 70q-1 15 14 15h57q15 0 15 -15v-127q0 -14 -10 -19 q-88 -43 -201 -43q-164 0 -244.5 93t-80.5 255zM444 863h55q15 0 6 -12l-82 -107q-9 -12 -24 -12h-76q-15 0 -24 12l-82 107q-9 12 6 12h57q16 0 25 -12l58 -71l57 71q9 12 24 12z" />
<glyph unicode="&#x10d;" horiz-adv-x="468" d="M149 254q0 -182 141 -182q45 0 105 27q15 6 21 -9l18 -44q5 -14 -8 -21q-61 -37 -154 -37q-121 0 -179 68.5t-58 188.5q0 115 59.5 188t177.5 73q90 0 133 -49t43 -125q0 -13 -17 -13h-60q-16 0 -17 15q-5 88 -89 88q-60 0 -88 -41.5t-28 -126.5zM353 741h59q16 0 7 -13 l-84 -135q-9 -13 -23 -13h-76q-14 0 -23 13l-84 135q-9 13 7 13h59q15 0 23 -12l58 -85l54 84q9 13 23 13z" />
<glyph unicode="&#x10e;" horiz-adv-x="679" d="M271 685q36 0 66.5 -2.5t69.5 -10.5t69.5 -21.5t61.5 -38.5t51.5 -58.5t33.5 -83.5t13 -112q0 -181 -100 -269.5t-273 -88.5h-208q-15 0 -15 15v49q0 15 15 15h52v519h-52q-15 0 -15 15v51q0 15 15 15q128 6 216 6zM516 340q0 132 -56.5 197t-176.5 65h-64v-524h66 q110 0 170.5 72t60.5 190zM369 863h55q15 0 6 -12l-82 -107q-9 -12 -24 -12h-76q-15 0 -24 12l-82 107q-9 12 6 12h57q16 0 25 -12l58 -71l57 71q9 12 24 12z" />
<glyph unicode="&#x10f;" horiz-adv-x="609" d="M495 79h43q15 0 15 -15v-49q0 -15 -15 -15h-113q-13 0 -15 15l-8 59q-51 -86 -163 -86q-98 0 -151 61.5t-53 183.5q0 137 61.5 205t158.5 68q44 0 78 -16.5t50 -39.5v213h-53q-15 0 -15 15v53q0 15 15 15h150q15 0 15 -15v-652zM383 188v176q-4 6 -12.5 15t-37 24 t-61.5 15q-124 0 -124 -168q0 -38 4 -65.5t15.5 -54.5t36 -41t62.5 -14q46 0 81.5 31t35.5 82zM561 731v-190q0 -15 15 -15h35q15 0 18 15l32 190q1 15 -13 15h-72q-15 0 -15 -15z" />
<glyph unicode="&#x110;" horiz-adv-x="692" d="M284 685q36 0 66.5 -2.5t69.5 -10.5t69.5 -21.5t61.5 -38.5t51.5 -58.5t33.5 -83.5t13 -112q0 -181 -100 -269.5t-273 -88.5h-208q-15 0 -15 15v49q0 15 15 15h52v235h-48q-11 0 -15 4t-4 15v15q0 11 4 15t15 4h48v231h-52q-15 0 -15 15v51q0 15 15 15q128 6 216 6z M529 340q0 132 -56.5 197t-176.5 65h-64v-235h150q11 0 15 -4t4 -15v-15q0 -11 -4 -15t-15 -4h-150v-236h66q110 0 170.5 72t60.5 190z" />
<glyph unicode="&#x111;" horiz-adv-x="583" d="M495 79h43q15 0 15 -15v-49q0 -15 -15 -15h-113q-13 0 -15 15l-8 59q-51 -86 -163 -86q-98 0 -151 61.5t-53 183.5q0 136 60.5 199.5t159.5 63.5q44 0 78 -16.5t50 -39.5v118h-143q-11 0 -15 4t-4 15v15q0 11 4 15t15 4h143v52h-53q-15 0 -15 15v53q0 15 15 15h150 q15 0 15 -15v-120h43q11 0 15 -4t4 -15v-15q0 -11 -4 -15t-15 -4h-43v-479zM383 188v166q-4 6 -12.5 15t-37 24t-61.5 15q-124 0 -124 -161q0 -37 4 -64t15.5 -53.5t36 -40.5t62.5 -14q46 0 81.5 31t35.5 82z" />
<glyph unicode="&#x112;" horiz-adv-x="555" d="M220 599v-213h149l-4 51q-1 15 14 15h56q15 0 15 -15v-177q0 -15 -15 -15h-56q-15 0 -14 15l3 48h-148v-230h229l-4 71q-1 15 14 15h56q15 0 15 -15v-134q0 -15 -15 -15h-460q-15 0 -15 15v49q0 15 15 15h53v519h-53q-15 0 -15 15v51q0 15 15 15h440q15 0 15 -15v-134 q0 -15 -15 -15h-56q-15 0 -14 15l4 69h-209zM424 760h-260q-11 0 -15 4t-4 15v43q0 11 4 15t15 4h260q11 0 15 -4t4 -15v-43q0 -11 -4 -15t-15 -4z" />
<glyph unicode="&#x113;" horiz-adv-x="489" d="M265 -12q-119 0 -174.5 69.5t-55.5 190.5q0 108 59 183t170 75q55 0 94.5 -20.5t60.5 -56t30.5 -74t9.5 -82.5q0 -22 -1 -34q-1 -10 -4 -13t-14 -3h-294q5 -72 35.5 -111.5t105.5 -39.5q55 0 113 26q14 7 20 -8l19 -46q5 -12 -9 -20q-66 -36 -165 -36zM146 297h208 q2 125 -98 125q-59 0 -83.5 -37.5t-26.5 -87.5zM400 612h-260q-11 0 -15 4t-4 15v43q0 11 4 15t15 4h260q11 0 15 -4t4 -15v-43q0 -11 -4 -15t-15 -4z" />
<glyph unicode="&#x114;" horiz-adv-x="555" d="M220 599v-213h149l-4 51q-1 15 14 15h56q15 0 15 -15v-177q0 -15 -15 -15h-56q-15 0 -14 15l3 48h-148v-230h229l-4 71q-1 15 14 15h56q15 0 15 -15v-134q0 -15 -15 -15h-460q-15 0 -15 15v49q0 15 15 15h53v519h-53q-15 0 -15 15v51q0 15 15 15h440q15 0 15 -15v-134 q0 -15 -15 -15h-56q-15 0 -14 15l4 69h-209zM291 811q75 0 88 42q4 12 9 15.5t17 3.5h31q11 0 15 -4t3 -15q-4 -56 -48 -87t-118 -31q-78 0 -119.5 31t-43.5 87q0 11 4 15t15 4h32q12 0 16.5 -3.5t7.5 -15.5q10 -42 91 -42z" />
<glyph unicode="&#x115;" horiz-adv-x="489" d="M265 -12q-119 0 -174.5 69.5t-55.5 190.5q0 108 59 183t170 75q55 0 94.5 -20.5t60.5 -56t30.5 -74t9.5 -82.5q0 -22 -1 -34q-1 -10 -4 -13t-14 -3h-294q5 -72 35.5 -111.5t105.5 -39.5q55 0 113 26q14 7 20 -8l19 -46q5 -12 -9 -20q-66 -36 -165 -36zM146 297h208 q2 125 -98 125q-59 0 -83.5 -37.5t-26.5 -87.5zM268 660q77 0 92 47q4 12 9 15.5t17 3.5h27q11 0 15 -4t3 -15q-5 -59 -49 -93.5t-117 -34.5q-77 0 -119 34.5t-44 93.5q0 11 4 15t15 4h28q12 0 16.5 -3.5t9.5 -15.5q10 -27 29.5 -37t63.5 -10z" />
<glyph unicode="&#x116;" horiz-adv-x="555" d="M220 599v-213h149l-4 51q-1 15 14 15h56q15 0 15 -15v-177q0 -15 -15 -15h-56q-15 0 -14 15l3 48h-148v-230h229l-4 71q-1 15 14 15h56q15 0 15 -15v-134q0 -15 -15 -15h-460q-15 0 -15 15v49q0 15 15 15h53v519h-53q-15 0 -15 15v51q0 15 15 15h440q15 0 15 -15v-134 q0 -15 -15 -15h-56q-15 0 -14 15l4 69h-209zM221 801q0 31 19.5 51.5t51.5 20.5q33 0 52.5 -20.5t19.5 -51.5t-20 -51t-52 -20q-33 0 -52 20t-19 51z" />
<glyph unicode="&#x117;" horiz-adv-x="489" d="M265 -12q-119 0 -174.5 69.5t-55.5 190.5q0 108 59 183t170 75q55 0 94.5 -20.5t60.5 -56t30.5 -74t9.5 -82.5q0 -22 -1 -34q-1 -10 -4 -13t-14 -3h-294q5 -72 35.5 -111.5t105.5 -39.5q55 0 113 26q14 7 20 -8l19 -46q5 -12 -9 -20q-66 -36 -165 -36zM146 297h208 q2 125 -98 125q-59 0 -83.5 -37.5t-26.5 -87.5zM184 635q0 31 19.5 51.5t51.5 20.5q33 0 52.5 -20.5t19.5 -51.5t-20 -51t-52 -20q-33 0 -52 20t-19 51z" />
<glyph unicode="&#x118;" horiz-adv-x="555" d="M316 -147q0 66 87 147h-348q-15 0 -15 15v49q0 15 15 15h53v519h-53q-15 0 -15 15v51q0 15 15 15h440q15 0 15 -15v-134q0 -15 -15 -15h-56q-15 0 -14 15l4 69h-209v-213h149l-4 51q-1 15 14 15h56q15 0 15 -15v-177q0 -15 -15 -15h-56q-15 0 -14 15l3 48h-148v-230h229 l-4 71q-1 15 14 15h56q15 0 15 -15v-134q0 -15 -15 -15h-48q-72 -78 -72 -128q0 -36 33 -36q18 0 39 11q13 6 19 -6l10 -20q8 -15 -7 -24q-44 -30 -89 -30q-40 0 -62 24t-22 62z" />
<glyph unicode="&#x119;" horiz-adv-x="489" d="M220 -147q0 63 75 136q-5 0 -15 -0.5t-15 -0.5q-119 0 -174.5 69.5t-55.5 190.5q0 108 59 183t170 75q55 0 94.5 -20.5t60.5 -56t30.5 -74t9.5 -82.5q0 -22 -1 -34q-1 -10 -4 -13t-14 -3h-294q5 -72 35.5 -111.5t105.5 -39.5q55 0 113 26q14 7 20 -8l19 -46q5 -12 -9 -20 q-41 -22 -50 -28q-41 -28 -61 -62t-20 -62q0 -36 33 -36q18 0 39 11q13 6 19 -6l10 -20q8 -15 -7 -24q-44 -30 -89 -30q-40 0 -62 24t-22 62zM146 297h208q2 125 -98 125q-59 0 -83.5 -37.5t-26.5 -87.5z" />
<glyph unicode="&#x11a;" horiz-adv-x="555" d="M220 599v-213h149l-4 51q-1 15 14 15h56q15 0 15 -15v-177q0 -15 -15 -15h-56q-15 0 -14 15l3 48h-148v-230h229l-4 71q-1 15 14 15h56q15 0 15 -15v-134q0 -15 -15 -15h-460q-15 0 -15 15v49q0 15 15 15h53v519h-53q-15 0 -15 15v51q0 15 15 15h440q15 0 15 -15v-134 q0 -15 -15 -15h-56q-15 0 -14 15l4 69h-209zM376 863h55q15 0 6 -12l-82 -107q-9 -12 -24 -12h-76q-15 0 -24 12l-82 107q-9 12 6 12h57q16 0 25 -12l58 -71l57 71q9 12 24 12z" />
<glyph unicode="&#x11b;" horiz-adv-x="489" d="M265 -12q-119 0 -174.5 69.5t-55.5 190.5q0 108 59 183t170 75q55 0 94.5 -20.5t60.5 -56t30.5 -74t9.5 -82.5q0 -22 -1 -34q-1 -10 -4 -13t-14 -3h-294q5 -72 35.5 -111.5t105.5 -39.5q55 0 113 26q14 7 20 -8l19 -46q5 -12 -9 -20q-66 -36 -165 -36zM146 297h208 q2 125 -98 125q-59 0 -83.5 -37.5t-26.5 -87.5zM339 741h59q16 0 7 -13l-84 -135q-9 -13 -23 -13h-76q-14 0 -23 13l-84 135q-9 13 7 13h59q15 0 23 -12l58 -85l54 84q9 13 23 13z" />
<glyph unicode="&#x11c;" horiz-adv-x="695" d="M607 234v-170q0 -14 -14 -21q-43 -23 -106.5 -39t-118.5 -16q-86 0 -150 27t-101.5 76t-55.5 111.5t-18 138.5q0 94 28.5 165.5t75.5 111.5t99.5 59t109.5 19q122 0 208 -53q14 -8 14 -22v-125q0 -15 -15 -15h-57q-15 0 -14 15l3 67q-63 45 -140 45q-70 0 -114.5 -36.5 t-61 -90t-16.5 -124.5q0 -80 18.5 -140t67 -100t123.5 -40q80 0 132 35v122h-64q-15 0 -15 15v50q0 15 15 15h220q15 0 15 -15v-50q0 -15 -15 -15h-53zM273 732h-55q-15 0 -6 12l82 107q9 12 24 12h76q15 0 24 -12l82 -107q9 -12 -6 -12h-57q-16 0 -25 12l-58 71l-57 -71 q-9 -12 -24 -12z" />
<glyph unicode="&#x11d;" horiz-adv-x="570" d="M490 413v-355q0 -64 -5 -119q-8 -85 -62.5 -132t-158.5 -47q-96 0 -164 30q-12 5 -8 20l18 53q4 14 20 8q61 -25 122 -25q64 0 95 30t31 106v78q-44 -72 -148 -72q-92 0 -143.5 63t-51.5 182q0 138 60.5 205.5t154.5 67.5q89 0 145 -65l10 39q5 15 18 15h122q15 0 15 -15 v-52q0 -15 -15 -15h-55zM378 187v178q-4 6 -12.5 15t-37 23.5t-61.5 14.5q-53 0 -86 -39.5t-33 -127.5q0 -86 24 -131.5t93 -45.5q44 0 78.5 31t34.5 82zM218 580h-59q-16 0 -7 13l84 135q9 13 23 13h76q14 0 23 -13l84 -135q9 -13 -7 -13h-59q-16 0 -23 12l-58 85l-54 -84 q-9 -13 -23 -13z" />
<glyph unicode="&#x11e;" horiz-adv-x="695" d="M607 234v-170q0 -14 -14 -21q-43 -23 -106.5 -39t-118.5 -16q-86 0 -150 27t-101.5 76t-55.5 111.5t-18 138.5q0 94 28.5 165.5t75.5 111.5t99.5 59t109.5 19q122 0 208 -53q14 -8 14 -22v-125q0 -15 -15 -15h-57q-15 0 -14 15l3 67q-63 45 -140 45q-70 0 -114.5 -36.5 t-61 -90t-16.5 -124.5q0 -80 18.5 -140t67 -100t123.5 -40q80 0 132 35v122h-64q-15 0 -15 15v50q0 15 15 15h220q15 0 15 -15v-50q0 -15 -15 -15h-53zM370 811q75 0 88 42q4 12 9 15.5t17 3.5h31q11 0 15 -4t3 -15q-4 -56 -48 -87t-118 -31q-78 0 -119.5 31t-43.5 87 q0 11 4 15t15 4h32q12 0 16.5 -3.5t7.5 -15.5q11 -42 91 -42z" />
<glyph unicode="&#x11f;" horiz-adv-x="570" d="M490 413v-355q0 -64 -5 -119q-8 -85 -62.5 -132t-158.5 -47q-96 0 -164 30q-12 5 -8 20l18 53q4 14 20 8q61 -25 122 -25q64 0 95 30t31 106v78q-44 -72 -148 -72q-92 0 -143.5 63t-51.5 182q0 138 60.5 205.5t154.5 67.5q89 0 145 -65l10 39q5 15 18 15h122q15 0 15 -15 v-52q0 -15 -15 -15h-55zM378 187v178q-4 6 -12.5 15t-37 23.5t-61.5 14.5q-53 0 -86 -39.5t-33 -127.5q0 -86 24 -131.5t93 -45.5q44 0 78.5 31t34.5 82zM291 660q77 0 92 47q4 12 9 15.5t17 3.5h27q11 0 15 -4t3 -15q-5 -59 -49 -93.5t-117 -34.5q-77 0 -119 34.5t-44 93.5 q0 11 4 15t15 4h28q12 0 16.5 -3.5t9.5 -15.5q10 -27 29.5 -37t63.5 -10z" />
<glyph unicode="&#x120;" horiz-adv-x="695" d="M607 234v-170q0 -14 -14 -21q-43 -23 -106.5 -39t-118.5 -16q-86 0 -150 27t-101.5 76t-55.5 111.5t-18 138.5q0 94 28.5 165.5t75.5 111.5t99.5 59t109.5 19q122 0 208 -53q14 -8 14 -22v-125q0 -15 -15 -15h-57q-15 0 -14 15l3 67q-63 45 -140 45q-70 0 -114.5 -36.5 t-61 -90t-16.5 -124.5q0 -80 18.5 -140t67 -100t123.5 -40q80 0 132 35v122h-64q-15 0 -15 15v50q0 15 15 15h220q15 0 15 -15v-50q0 -15 -15 -15h-53zM292 801q0 31 19.5 51.5t51.5 20.5q33 0 52.5 -20.5t19.5 -51.5t-20 -51t-52 -20q-33 0 -52 20t-19 51z" />
<glyph unicode="&#x121;" horiz-adv-x="570" d="M490 413v-355q0 -64 -5 -119q-8 -85 -62.5 -132t-158.5 -47q-96 0 -164 30q-12 5 -8 20l18 53q4 14 20 8q61 -25 122 -25q64 0 95 30t31 106v78q-44 -72 -148 -72q-92 0 -143.5 63t-51.5 182q0 138 60.5 205.5t154.5 67.5q89 0 145 -65l10 39q5 15 18 15h122q15 0 15 -15 v-52q0 -15 -15 -15h-55zM378 187v178q-4 6 -12.5 15t-37 23.5t-61.5 14.5q-53 0 -86 -39.5t-33 -127.5q0 -86 24 -131.5t93 -45.5q44 0 78.5 31t34.5 82zM210 635q0 31 19.5 51.5t51.5 20.5q33 0 52.5 -20.5t19.5 -51.5t-20 -51t-52 -20q-33 0 -52 20t-19 51z" />
<glyph unicode="&#x122;" horiz-adv-x="695" d="M607 234v-170q0 -14 -14 -21q-43 -23 -106.5 -39t-118.5 -16q-86 0 -150 27t-101.5 76t-55.5 111.5t-18 138.5q0 94 28.5 165.5t75.5 111.5t99.5 59t109.5 19q122 0 208 -53q14 -8 14 -22v-125q0 -15 -15 -15h-57q-15 0 -14 15l3 67q-63 45 -140 45q-70 0 -114.5 -36.5 t-61 -90t-16.5 -124.5q0 -80 18.5 -140t67 -100t123.5 -40q80 0 132 35v122h-64q-15 0 -15 15v50q0 15 15 15h220q15 0 15 -15v-50q0 -15 -15 -15h-53zM369 -212l-38 -58q-7 -10 -17 -6l-12 5q-11 4 -6 16l22 72q-2 2 -7.5 9t-8 11.5t-6.5 11.5t-6 14.5t-2 16.5 q0 23 14.5 36.5t42.5 13.5q60 0 60 -53q0 -31 -36 -89z" />
<glyph unicode="&#x123;" horiz-adv-x="570" d="M490 413v-355q0 -64 -5 -119q-8 -85 -62.5 -132t-158.5 -47q-96 0 -164 30q-12 5 -8 20l18 53q4 14 20 8q61 -25 122 -25q64 0 95 30t31 106v78q-44 -72 -148 -72q-92 0 -143.5 63t-51.5 182q0 138 60.5 205.5t154.5 67.5q89 0 145 -65l10 39q5 15 18 15h122q15 0 15 -15 v-52q0 -15 -15 -15h-55zM378 187v178q-4 6 -12.5 15t-37 23.5t-61.5 14.5q-53 0 -86 -39.5t-33 -127.5q0 -86 24 -131.5t93 -45.5q44 0 78.5 31t34.5 82zM254 724l43 68q8 12 18 7l12 -6q9 -4 5 -17l-27 -81q2 -2 7.5 -9t8 -11.5t6.5 -11.5t6 -14.5t2 -16.5q0 -23 -15 -37.5 t-42 -14.5q-60 0 -60 55q0 31 36 89z" />
<glyph unicode="&#x124;" horiz-adv-x="743" d="M220 598v-206h303v206h-53q-15 0 -15 15v51q0 15 15 15h218q15 0 15 -15v-51q0 -15 -15 -15h-53v-519h53q15 0 15 -15v-49q0 -15 -15 -15h-218q-15 0 -15 15v49q0 15 15 15h53v227h-303v-227h53q15 0 15 -15v-49q0 -15 -15 -15h-218q-15 0 -15 15v49q0 15 15 15h53v519 h-53q-15 0 -15 15v51q0 15 15 15h218q15 0 15 -15v-51q0 -15 -15 -15h-53zM288 732h-55q-15 0 -6 12l82 107q9 12 24 12h76q15 0 24 -12l82 -107q9 -12 -6 -12h-57q-16 0 -25 12l-58 71l-57 -71q-9 -12 -24 -12z" />
<glyph unicode="&#x125;" horiz-adv-x="599" d="M20 679v52q0 15 15 15h151q15 0 15 -15v-308q56 83 155 83q155 0 155 -170v-257h59q15 0 15 -15v-49q0 -15 -15 -15h-219q-15 0 -15 15v49q0 15 15 15h48v207q0 63 -16 92t-70 29q-46 0 -79 -30t-33 -68v-230h61q15 0 15 -15v-49q0 -15 -15 -15h-227q-15 0 -15 15v49 q0 15 15 15h54v585h-54q-15 0 -15 15zM33 772h-55q-15 0 -6 12l82 107q9 12 24 12h76q15 0 24 -12l82 -107q9 -12 -6 -12h-57q-16 0 -25 12l-58 71l-57 -71q-9 -12 -24 -12z" />
<glyph unicode="&#x126;" horiz-adv-x="743" d="M220 598v-59h303v59h-53q-15 0 -15 15v51q0 15 15 15h218q15 0 15 -15v-51q0 -15 -15 -15h-53v-59h49q11 0 15 -4t4 -15v-15q0 -11 -4 -15t-15 -4h-49v-407h53q15 0 15 -15v-49q0 -15 -15 -15h-218q-15 0 -15 15v49q0 15 15 15h53v227h-303v-227h53q15 0 15 -15v-49 q0 -15 -15 -15h-218q-15 0 -15 15v49q0 15 15 15h53v407h-50q-11 0 -15 4t-4 15v15q0 11 4 15t15 4h50v59h-53q-15 0 -15 15v51q0 15 15 15h218q15 0 15 -15v-51q0 -15 -15 -15h-53zM220 392h303v94h-303v-94z" />
<glyph unicode="&#x127;" horiz-adv-x="599" d="M20 679v52q0 15 15 15h151q15 0 15 -15v-120h146q11 0 15 -4t4 -15v-15q0 -11 -4 -15t-15 -4h-146v-145q56 83 155 83q155 0 155 -170v-247h59q15 0 15 -15v-49q0 -15 -15 -15h-219q-15 0 -15 15v49q0 15 15 15h48v197q0 63 -16 92t-70 29q-46 0 -79 -30t-33 -68v-220h61 q15 0 15 -15v-49q0 -15 -15 -15h-227q-15 0 -15 15v49q0 15 15 15h54v479h-50q-11 0 -15 4t-4 15v15q0 11 4 15t15 4h50v53h-54q-15 0 -15 15z" />
<glyph unicode="&#x128;" horiz-adv-x="328" d="M220 598v-519h53q15 0 15 -15v-49q0 -15 -15 -15h-218q-15 0 -15 15v49q0 15 15 15h53v519h-53q-15 0 -15 15v51q0 15 15 15h218q15 0 15 -15v-51q0 -15 -15 -15h-53zM67 858q27 0 93 -20.5t89 -20.5q34 0 34 27q0 13 15 13h24q12 0 12 -14q0 -50 -21.5 -74.5 t-54.5 -24.5q-32 0 -98 19t-81 19q-30 0 -30 -22q0 -7 -2 -8.5t-10 -1.5h-31q-12 0 -12 14q0 53 22 73.5t51 20.5z" />
<glyph unicode="&#x129;" horiz-adv-x="294" d="M206 480v-401h63q15 0 15 -15v-49q0 -15 -15 -15h-238q-15 0 -15 15v49q0 15 15 15h63v334h-54q-15 0 -15 15v52q0 15 15 15h151q15 0 15 -15zM50 712q27 0 93 -20.5t89 -20.5q34 0 34 27q0 13 15 13h24q12 0 12 -14q0 -50 -21.5 -74.5t-54.5 -24.5t-99 19t-80 19 q-30 0 -30 -22q0 -7 -2 -8.5t-10 -1.5h-31q-12 0 -12 14q0 53 22 73.5t51 20.5z" />
<glyph unicode="&#x12a;" horiz-adv-x="328" d="M220 598v-519h53q15 0 15 -15v-49q0 -15 -15 -15h-218q-15 0 -15 15v49q0 15 15 15h53v519h-53q-15 0 -15 15v51q0 15 15 15h218q15 0 15 -15v-51q0 -15 -15 -15h-53zM294 760h-260q-11 0 -15 4t-4 15v43q0 11 4 15t15 4h260q11 0 15 -4t4 -15v-43q0 -11 -4 -15t-15 -4z " />
<glyph unicode="&#x12b;" horiz-adv-x="294" d="M206 79v401q0 15 -15 15h-151q-15 0 -15 -15v-52q0 -15 15 -15h54v-334h-63q-15 0 -15 -15v-49q0 -15 15 -15h238q15 0 15 15v49q0 15 -15 15h-63zM277 612h-260q-11 0 -15 4t-4 15v43q0 11 4 15t15 4h260q11 0 15 -4t4 -15v-43q0 -11 -4 -15t-15 -4z" />
<glyph unicode="&#x12c;" horiz-adv-x="328" d="M220 598v-519h53q15 0 15 -15v-49q0 -15 -15 -15h-218q-15 0 -15 15v49q0 15 15 15h53v519h-53q-15 0 -15 15v51q0 15 15 15h218q15 0 15 -15v-51q0 -15 -15 -15h-53zM170 811q75 0 88 42q4 12 9 15.5t17 3.5h31q11 0 15 -4t3 -15q-4 -56 -48 -87t-118 -31 q-78 0 -119.5 31t-43.5 87q0 11 4 15t15 4h32q12 0 16.5 -3.5t7.5 -15.5q11 -42 91 -42z" />
<glyph unicode="&#x12d;" horiz-adv-x="294" d="M206 480v-401h63q15 0 15 -15v-49q0 -15 -15 -15h-238q-15 0 -15 15v49q0 15 15 15h63v334h-54q-15 0 -15 15v52q0 15 15 15h151q15 0 15 -15zM148 660q77 0 92 47q4 12 9 15.5t17 3.5h27q11 0 15 -4t3 -15q-5 -59 -49 -93.5t-117 -34.5q-77 0 -119 34.5t-44 93.5 q0 11 4 15t15 4h28q12 0 16.5 -3.5t9.5 -15.5q10 -27 29.5 -37t63.5 -10z" />
<glyph unicode="&#x12e;" horiz-adv-x="328" d="M62 -147q0 66 87 147h-94q-15 0 -15 15v49q0 15 15 15h53v519h-53q-15 0 -15 15v51q0 15 15 15h218q15 0 15 -15v-51q0 -15 -15 -15h-53v-519h53q15 0 15 -15v-49q0 -15 -15 -15h-60q-72 -78 -72 -128q0 -36 33 -36q18 0 39 11q13 6 19 -6l10 -20q8 -15 -7 -24 q-44 -30 -89 -30q-40 0 -62 24t-22 62z" />
<glyph unicode="&#x12f;" horiz-adv-x="294" d="M45 -147q0 -38 22 -62t62 -24q45 0 89 30q15 9 7 24l-10 20q-6 12 -19 6q-21 -11 -39 -11q-33 0 -33 36q0 50 72 128h73q15 0 15 15v49q0 15 -15 15h-63v401q0 15 -15 15h-151q-15 0 -15 -15v-52q0 -15 15 -15h54v-334h-63q-15 0 -15 -15v-49q0 -15 15 -15h101 q-87 -81 -87 -147zM66 635q0 31 19.5 51.5t51.5 20.5q33 0 52.5 -20.5t19.5 -51.5t-20 -51t-52 -20q-33 0 -52 20t-19 51z" />
<glyph unicode="&#x130;" horiz-adv-x="328" d="M220 598v-519h53q15 0 15 -15v-49q0 -15 -15 -15h-218q-15 0 -15 15v49q0 15 15 15h53v519h-53q-15 0 -15 15v51q0 15 15 15h218q15 0 15 -15v-51q0 -15 -15 -15h-53zM89 801q0 31 19.5 51.5t51.5 20.5q33 0 52.5 -20.5t19.5 -51.5t-20 -51t-52 -20q-33 0 -52 20t-19 51z " />
<glyph unicode="&#x131;" horiz-adv-x="294" d="M206 480v-401h63q15 0 15 -15v-49q0 -15 -15 -15h-238q-15 0 -15 15v49q0 15 15 15h63v334h-54q-15 0 -15 15v52q0 15 15 15h151q15 0 15 -15z" />
<glyph unicode="&#x132;" horiz-adv-x="657" d="M220 598v-519h53q15 0 15 -15v-49q0 -15 -15 -15h-218q-15 0 -15 15v49q0 15 15 15h53v519h-53q-15 0 -15 15v51q0 15 15 15h218q15 0 15 -15v-51q0 -15 -15 -15h-53zM437 -38v636h-53q-15 0 -15 15v51q0 15 15 15h218q15 0 15 -15v-51q0 -15 -15 -15h-53v-640 q0 -198 -183 -198q-69 0 -113 21q-10 5 -5 19l18 52q5 15 18 10q34 -13 70 -13q43 0 63 26t20 87z" />
<glyph unicode="&#x133;" horiz-adv-x="583" d="M206 79v401q0 15 -15 15h-151q-15 0 -15 -15v-52q0 -15 15 -15h54v-334h-63q-15 0 -15 -15v-49q0 -15 15 -15h238q15 0 15 15v49q0 15 -15 15h-63zM66 635q0 31 19.5 51.5t51.5 20.5q33 0 52.5 -20.5t19.5 -51.5t-20 -51t-52 -20q-33 0 -52 20t-19 51zM500 480v-521 q0 -199 -177 -199q-76 0 -120 21q-13 7 -8 20l20 55q5 13 19 8q33 -12 70 -12q84 0 84 117v444h-54q-15 0 -15 15v52q0 15 15 15h151q15 0 15 -15zM360 635q0 31 19.5 51.5t51.5 20.5q33 0 52.5 -20.5t19.5 -51.5t-20 -51t-52 -20q-33 0 -52 20t-19 51z" />
<glyph unicode="&#x134;" horiz-adv-x="329" d="M109 -38v636h-53q-15 0 -15 15v51q0 15 15 15h218q15 0 15 -15v-51q0 -15 -15 -15h-53v-640q0 -198 -183 -198q-69 0 -113 21q-10 5 -5 19l18 52q5 15 18 10q34 -13 70 -13q43 0 63 26t20 87zM81 732h-55q-15 0 -6 12l82 107q9 12 24 12h76q15 0 24 -12l82 -107 q9 -12 -6 -12h-57q-16 0 -25 12l-58 71l-57 -71q-9 -12 -24 -12z" />
<glyph unicode="&#x135;" horiz-adv-x="289" d="M206 480v-521q0 -199 -177 -199q-76 0 -120 21q-13 7 -8 20l20 55q5 13 19 8q33 -12 70 -12q84 0 84 117v444h-54q-15 0 -15 15v52q0 15 15 15h151q15 0 15 -15zM52 580h-59q-16 0 -7 13l84 135q9 13 23 13h76q14 0 23 -13l84 -135q9 -13 -7 -13h-59q-16 0 -23 12l-58 85 l-54 -84q-9 -13 -23 -13z" />
<glyph unicode="&#x136;" horiz-adv-x="664" d="M220 598v-214h52l186 214h-53q-15 0 -15 15v51q0 15 15 15h204q15 0 15 -15v-53q0 -15 -15 -15h-51l-198 -231l199 -286h65q15 0 15 -15v-49q0 -15 -15 -15h-128q-15 0 -24 12l-201 290h-51v-223h53q15 0 15 -15v-49q0 -15 -15 -15h-218q-15 0 -15 15v49q0 15 15 15h53 v519h-53q-15 0 -15 15v51q0 15 15 15h218q15 0 15 -15v-51q0 -15 -15 -15h-53zM357 -212l-38 -58q-7 -10 -17 -6l-12 5q-11 4 -6 16l22 72q-2 2 -7.5 9t-8 11.5t-6.5 11.5t-6 14.5t-2 16.5q0 23 14.5 36.5t42.5 13.5q60 0 60 -53q0 -31 -36 -89z" />
<glyph unicode="&#x137;" horiz-adv-x="566" d="M206 731v-399h51l155 152q11 11 26 11h78q15 0 15 -15v-52q0 -15 -15 -15h-61l-110 -107l137 -227h59q15 0 15 -15v-49q0 -15 -15 -15h-129q-14 0 -23 13l-150 242h-33v-176h53q15 0 15 -15v-49q0 -15 -15 -15h-218q-15 0 -15 15v49q0 15 15 15h53v586h-54q-15 0 -15 15 v51q0 15 15 15h151q15 0 15 -15zM308 -212l-38 -58q-7 -10 -17 -6l-12 5q-11 4 -6 16l22 72q-2 2 -7.5 9t-8 11.5t-6.5 11.5t-6 14.5t-2 16.5q0 23 14.5 36.5t42.5 13.5q60 0 60 -53q0 -31 -36 -89z" />
<glyph unicode="&#x138;" horiz-adv-x="566" d="M44 495h143q11 0 15 -4t4 -15v-184h51l130 188q11 15 30 15h95q11 0 15 -4t4 -15v-45q0 -11 -4 -15t-15 -3h-66l-98 -136l135 -198h64q11 0 15 -4t4 -15v-41q0 -11 -4 -15t-15 -4h-131q-19 0 -30 16l-134 199h-46v-136h49q11 1 15 -3t4 -15v-42q0 -11 -4 -15t-15 -4h-210 q-11 0 -15 4t-4 15v42q0 11 4 15t15 3h49v335h-50q-11 -1 -15 3t-4 15v44q0 11 4 15t15 4z" />
<glyph unicode="&#x139;" horiz-adv-x="525" d="M220 598v-519h209l-4 70q-1 15 14 15h56q15 0 15 -15v-197q0 -15 -15 -15h-56q-15 0 -14 15l3 48h-373q-15 0 -15 15v49q0 15 15 15h53v519h-53q-15 0 -15 15v51q0 15 15 15h238q15 0 15 -15v-51q0 -15 -15 -15h-73zM120 746l45 98q6 14 21 14h78q15 0 6 -12l-70 -102 q-8 -12 -23 -12h-48q-15 0 -9 14z" />
<glyph unicode="&#x13a;" horiz-adv-x="294" d="M206 731v-652h63q15 0 15 -15v-49q0 -15 -15 -15h-238q-15 0 -15 15v49q0 15 15 15h63v585h-54q-15 0 -15 15v52q0 15 15 15h151q15 0 15 -15zM103 794l45 98q6 14 21 14h78q15 0 6 -12l-70 -102q-7 -12 -23 -12h-48q-15 0 -9 14z" />
<glyph unicode="&#x13b;" horiz-adv-x="525" d="M220 598v-519h209l-4 70q-1 15 14 15h56q15 0 15 -15v-197q0 -15 -15 -15h-56q-15 0 -14 15l3 48h-373q-15 0 -15 15v49q0 15 15 15h53v519h-53q-15 0 -15 15v51q0 15 15 15h238q15 0 15 -15v-51q0 -15 -15 -15h-73zM287 -212l-38 -58q-7 -10 -17 -6l-12 5q-11 4 -6 16 l22 72q-2 2 -7.5 9t-8 11.5t-6.5 11.5t-6 14.5t-2 16.5q0 23 14.5 36.5t42.5 13.5q60 0 60 -53q0 -31 -36 -89z" />
<glyph unicode="&#x13c;" horiz-adv-x="294" d="M206 731v-652h63q15 0 15 -15v-49q0 -15 -15 -15h-238q-15 0 -15 15v49q0 15 15 15h63v585h-54q-15 0 -15 15v52q0 15 15 15h151q15 0 15 -15zM172 -212l-38 -58q-7 -10 -17 -6l-12 5q-11 4 -6 16l22 72q-2 2 -7.5 9t-8 11.5t-6.5 11.5t-6 14.5t-2 16.5q0 23 14.5 36.5 t42.5 13.5q60 0 60 -53q0 -31 -36 -89z" />
<glyph unicode="&#x13d;" horiz-adv-x="525" d="M220 598v-519h209l-4 70q-1 15 14 15h56q15 0 15 -15v-197q0 -15 -15 -15h-56q-15 0 -14 15l3 48h-373q-15 0 -15 15v49q0 15 15 15h53v519h-53q-15 0 -15 15v51q0 15 15 15h238q15 0 15 -15v-51q0 -15 -15 -15h-73zM371 664v-190q0 -15 15 -15h35q15 0 18 15l32 190 q1 15 -13 15h-72q-15 0 -15 -15z" />
<glyph unicode="&#x13e;" horiz-adv-x="316" d="M206 731v-652h63q15 0 15 -15v-49q0 -15 -15 -15h-238q-15 0 -15 15v49q0 15 15 15h63v585h-54q-15 0 -15 15v52q0 15 15 15h151q15 0 15 -15zM268 731v-190q0 -15 15 -15h35q15 0 18 15l32 190q1 15 -13 15h-72q-15 0 -15 -15z" />
<glyph unicode="&#x13f;" horiz-adv-x="525" d="M220 598v-519h209l-4 70q-1 15 14 15h56q15 0 15 -15v-197q0 -15 -15 -15h-56q-15 0 -14 15l3 48h-373q-15 0 -15 15v49q0 15 15 15h53v519h-53q-15 0 -15 15v51q0 15 15 15h238q15 0 15 -15v-51q0 -15 -15 -15h-73zM344 327q0 31 19.5 51.5t51.5 20.5q33 0 52.5 -20.5 t19.5 -51.5t-20 -51t-52 -20q-33 0 -52 20t-19 51z" />
<glyph unicode="&#x140;" horiz-adv-x="401" d="M206 731v-652h63q15 0 15 -15v-49q0 -15 -15 -15h-238q-15 0 -15 15v49q0 15 15 15h63v585h-54q-15 0 -15 15v52q0 15 15 15h151q15 0 15 -15zM276 350q0 31 19.5 51.5t51.5 20.5q33 0 52.5 -20.5t19.5 -51.5t-20 -51t-52 -20q-33 0 -52 20t-19 51z" />
<glyph unicode="&#x141;" horiz-adv-x="525" d="M220 598v-212l182 54q10 3 14 0t4 -14v-26q0 -12 -3.5 -16.5t-14.5 -7.5l-182 -54v-243h209l-4 70q-1 15 14 15h56q15 0 15 -15v-197q0 -15 -15 -15h-56q-15 0 -14 15l3 48h-373q-15 0 -15 15v49q0 15 15 15h53v217l-51 -15q-11 -3 -14.5 0t-3.5 14v26q0 12 3.5 16.5 t14.5 7.5l51 15v238h-53q-15 0 -15 15v51q0 15 15 15h238q15 0 15 -15v-51q0 -15 -15 -15h-73z" />
<glyph unicode="&#x142;" horiz-adv-x="294" d="M206 731v-291l76 31q10 4 13.5 1.5t3.5 -13.5v-26q0 -12 -3 -16.5t-14 -9.5l-76 -31v-297h63q15 0 15 -15v-49q0 -15 -15 -15h-238q-15 0 -15 15v49q0 15 15 15h63v258l-67 -27q-10 -4 -13.5 -1.5t-3.5 13.5v26q0 12 3 16.5t14 9.5l67 27v263h-54q-15 0 -15 15v52 q0 15 15 15h151q15 0 15 -15z" />
<glyph unicode="&#x143;" horiz-adv-x="743" d="M645 598v-583q0 -15 -15 -15h-73q-15 0 -23 12l-339 501v-434h83q15 0 15 -15v-49q0 -15 -15 -15h-223q-15 0 -15 15v49q0 15 15 15h53v519h-53q-15 0 -15 15v51q0 15 15 15h147q14 0 23 -13l333 -506v438h-53q-15 0 -15 15v51q0 15 15 15h193q15 0 15 -15v-51 q0 -15 -15 -15h-53zM340 746l45 98q6 14 21 14h78q15 0 6 -12l-70 -102q-8 -12 -23 -12h-48q-15 0 -9 14z" />
<glyph unicode="&#x144;" horiz-adv-x="604" d="M25 427v53q0 15 15 15h136q13 0 16 -15l9 -58q56 84 160 84q155 0 155 -170v-257h58q15 0 15 -15v-49q0 -15 -15 -15h-218q-15 0 -15 15v49q0 15 15 15h48v207q0 63 -16 92t-70 29q-46 0 -79 -30t-33 -68v-230h62q15 0 15 -15v-49q0 -15 -15 -15h-227q-15 0 -15 15v49 q0 15 15 15h53v334h-54q-15 0 -15 14zM287 598l42 116q4 11 8.5 14.5t16.5 3.5h72q11 0 13 -3.5t-3 -13.5l-65 -118q-5 -10 -10.5 -13.5t-17.5 -3.5h-43q-11 0 -14 4t1 14z" />
<glyph unicode="&#x145;" horiz-adv-x="743" d="M645 598v-583q0 -15 -15 -15h-73q-15 0 -23 12l-339 501v-434h83q15 0 15 -15v-49q0 -15 -15 -15h-223q-15 0 -15 15v49q0 15 15 15h53v519h-53q-15 0 -15 15v51q0 15 15 15h147q14 0 23 -13l333 -506v438h-53q-15 0 -15 15v51q0 15 15 15h193q15 0 15 -15v-51 q0 -15 -15 -15h-53zM407 -212l-38 -58q-7 -10 -17 -6l-12 5q-11 4 -6 16l22 72q-2 2 -7.5 9t-8 11.5t-6.5 11.5t-6 14.5t-2 16.5q0 23 14.5 36.5t42.5 13.5q60 0 60 -53q0 -31 -36 -89z" />
<glyph unicode="&#x146;" horiz-adv-x="604" d="M25 427v53q0 15 15 15h136q13 0 16 -15l9 -58q56 84 160 84q155 0 155 -170v-257h58q15 0 15 -15v-49q0 -15 -15 -15h-218q-15 0 -15 15v49q0 15 15 15h48v207q0 63 -16 92t-70 29q-46 0 -79 -30t-33 -68v-230h62q15 0 15 -15v-49q0 -15 -15 -15h-227q-15 0 -15 15v49 q0 15 15 15h53v334h-54q-15 0 -15 14zM327 -212l-38 -58q-7 -10 -17 -6l-12 5q-11 4 -6 16l22 72q-2 2 -7.5 9t-8 11.5t-6.5 11.5t-6 14.5t-2 16.5q0 23 14.5 36.5t42.5 13.5q60 0 60 -53q0 -31 -36 -89z" />
<glyph unicode="&#x147;" horiz-adv-x="743" d="M645 598v-583q0 -15 -15 -15h-73q-15 0 -23 12l-339 501v-434h83q15 0 15 -15v-49q0 -15 -15 -15h-223q-15 0 -15 15v49q0 15 15 15h53v519h-53q-15 0 -15 15v51q0 15 15 15h147q14 0 23 -13l333 -506v438h-53q-15 0 -15 15v51q0 15 15 15h193q15 0 15 -15v-51 q0 -15 -15 -15h-53zM464 863h55q15 0 6 -12l-82 -107q-9 -12 -24 -12h-76q-15 0 -24 12l-82 107q-9 12 6 12h57q16 0 25 -12l58 -71l57 71q9 12 24 12z" />
<glyph unicode="&#x148;" horiz-adv-x="604" d="M25 427v53q0 15 15 15h136q13 0 16 -15l9 -58q56 84 160 84q155 0 155 -170v-257h58q15 0 15 -15v-49q0 -15 -15 -15h-218q-15 0 -15 15v49q0 15 15 15h48v207q0 63 -16 92t-70 29q-46 0 -79 -30t-33 -68v-230h62q15 0 15 -15v-49q0 -15 -15 -15h-227q-15 0 -15 15v49 q0 15 15 15h53v334h-54q-15 0 -15 14zM396 741h59q16 0 7 -13l-84 -135q-9 -13 -23 -13h-76q-14 0 -23 13l-84 135q-9 13 7 13h59q16 0 23 -12l58 -85l54 84q9 13 23 13z" />
<glyph unicode="&#x149;" horiz-adv-x="604" d="M25 427v53q0 15 15 15h136q13 0 16 -15l9 -58q56 84 160 84q155 0 155 -170v-257h58q15 0 15 -15v-49q0 -15 -15 -15h-218q-15 0 -15 15v49q0 15 15 15h48v207q0 63 -16 92t-70 29q-46 0 -79 -30t-33 -68v-230h62q15 0 15 -15v-49q0 -15 -15 -15h-227q-15 0 -15 15v49 q0 15 15 15h53v334h-54q-15 0 -15 14zM119 628l-44 -74q-9 -15 -26 -8h-1q-11 5 -13 9t2 15l29 90q-31 41 -31 70q0 24 16.5 40t43.5 16t45 -16t18 -42q0 -17 -6 -35.5t-12 -29.5t-21 -35z" />
<glyph unicode="&#x14a;" horiz-adv-x="743" d="M645 598v-639q0 -199 -177 -199q-59 0 -113 19q-17 7 -11 25l15 45q4 10 9 12.5t16 -0.5q29 -10 62 -10q47 0 67 25.5t20 89.5v47l-338 500v-434h83q15 0 15 -15v-49q0 -15 -15 -15h-223q-15 0 -15 15v49q0 15 15 15h53v519h-53q-15 0 -15 15v51q0 15 15 15h147 q14 0 23 -13l333 -506v438h-53q-15 0 -15 15v51q0 15 15 15h193q15 0 15 -15v-51q0 -15 -15 -15h-53z" />
<glyph unicode="&#x14b;" horiz-adv-x="604" d="M320 -120q84 0 84 117v289q0 63 -16 92t-70 29q-46 0 -79 -30t-33 -68v-230h62q15 0 15 -15v-49q0 -15 -15 -15h-227q-15 0 -15 15v49q0 15 15 15h53v334h-54q-15 0 -15 14v53q0 15 15 15h136q13 0 16 -15l9 -58q56 84 160 84q155 0 155 -170v-349q0 -199 -177 -199 q-76 0 -120 21q-13 7 -8 20l20 55q5 13 19 8q33 -12 70 -12z" />
<glyph unicode="&#x14c;" horiz-adv-x="692" d="M43 333q0 100 30 174.5t78.5 113.5t99 57t103.5 18q37 0 71 -6t77 -26.5t73.5 -55t52 -98.5t21.5 -149q0 -180 -88.5 -276.5t-227.5 -96.5q-138 0 -214 88t-76 257zM345 82q179 0 179 260q0 266 -182 266q-64 0 -105.5 -34.5t-57.5 -86t-16 -119.5q0 -286 182 -286z M476 760h-260q-11 0 -15 4t-4 15v43q0 11 4 15t15 4h260q11 0 15 -4t4 -15v-43q0 -11 -4 -15t-15 -4z" />
<glyph unicode="&#x14d;" horiz-adv-x="532" d="M35 240q0 75 23 130t60.5 83t75.5 40.5t78 12.5q28 0 53.5 -4t58.5 -19t56.5 -40t40 -72t16.5 -110q0 -134 -67.5 -203.5t-173.5 -69.5q-104 0 -162.5 63.5t-58.5 188.5zM265 70q60 0 87.5 44.5t27.5 132.5t-27.5 132.5t-89.5 44.5q-115 0 -115 -162q0 -192 117 -192z M400 612h-260q-11 0 -15 4t-4 15v43q0 11 4 15t15 4h260q11 0 15 -4t4 -15v-43q0 -11 -4 -15t-15 -4z" />
<glyph unicode="&#x14e;" horiz-adv-x="692" d="M43 333q0 100 30 174.5t78.5 113.5t99 57t103.5 18q37 0 71 -6t77 -26.5t73.5 -55t52 -98.5t21.5 -149q0 -180 -88.5 -276.5t-227.5 -96.5q-138 0 -214 88t-76 257zM345 82q179 0 179 260q0 266 -182 266q-64 0 -105.5 -34.5t-57.5 -86t-16 -119.5q0 -286 182 -286z M361 811q75 0 88 42q4 12 9 15.5t17 3.5h31q11 0 15 -4t3 -15q-4 -56 -48 -87t-118 -31q-78 0 -119.5 31t-43.5 87q0 11 4 15t15 4h32q12 0 16.5 -3.5t7.5 -15.5q10 -42 91 -42z" />
<glyph unicode="&#x14f;" horiz-adv-x="532" d="M35 240q0 75 23 130t60.5 83t75.5 40.5t78 12.5q28 0 53.5 -4t58.5 -19t56.5 -40t40 -72t16.5 -110q0 -134 -67.5 -203.5t-173.5 -69.5q-104 0 -162.5 63.5t-58.5 188.5zM265 70q60 0 87.5 44.5t27.5 132.5t-27.5 132.5t-89.5 44.5q-115 0 -115 -162q0 -192 117 -192z M267 660q77 0 92 47q4 12 9 15.5t17 3.5h27q11 0 15 -4t3 -15q-5 -59 -49 -93.5t-117 -34.5q-77 0 -119 34.5t-44 93.5q0 11 4 15t15 4h28q12 0 16.5 -3.5t9.5 -15.5q10 -27 29.5 -37t63.5 -10z" />
<glyph unicode="&#x150;" horiz-adv-x="692" d="M43 333q0 100 30 174.5t78.5 113.5t99 57t103.5 18q37 0 71 -6t77 -26.5t73.5 -55t52 -98.5t21.5 -149q0 -180 -88.5 -276.5t-227.5 -96.5q-138 0 -214 88t-76 257zM345 82q179 0 179 260q0 266 -182 266q-64 0 -105.5 -34.5t-57.5 -86t-16 -119.5q0 -286 182 -286z M395 746l45 98q6 14 21 14h68q15 0 6 -12l-70 -102q-7 -12 -23 -12h-38q-15 0 -9 14zM261 746l45 98q6 14 21 14h68q15 0 6 -12l-70 -102q-7 -12 -23 -12h-38q-15 0 -9 14z" />
<glyph unicode="&#x151;" horiz-adv-x="532" d="M35 240q0 75 23 130t60.5 83t75.5 40.5t78 12.5q28 0 53.5 -4t58.5 -19t56.5 -40t40 -72t16.5 -110q0 -134 -67.5 -203.5t-173.5 -69.5q-104 0 -162.5 63.5t-58.5 188.5zM265 70q60 0 87.5 44.5t27.5 132.5t-27.5 132.5t-89.5 44.5q-115 0 -115 -162q0 -192 117 -192z M305 594l45 124q4 14 20 14h68q15 0 8 -13l-69 -126q-7 -13 -22 -13h-40q-14 0 -10 14zM167 594l45 124q4 14 20 14h68q15 0 8 -13l-69 -126q-7 -13 -22 -13h-40q-14 0 -10 14z" />
<glyph unicode="&#x152;" horiz-adv-x="976" d="M855 599h-209v-213h149l-4 47q-1 11 3 15t15 4h48q11 0 15 -4t4 -15v-169q0 -11 -4 -15t-15 -4h-48q-11 0 -15 4t-3 15l3 44h-148v-226h229l-4 63q-1 11 3 15t15 4h48q11 0 15 -4t4 -15v-126q0 -11 -4 -15t-15 -4h-384q-11 0 -15 4t-4 15v36q-70 -67 -194 -67 q-139 0 -214.5 86.5t-75.5 255.5q0 81 20.5 146t52 105t74 67t83 37.5t81.5 10.5q106 0 173 -55v19q0 11 4 15t15 4h364q11 0 15 -4t4 -15v-126q0 -11 -4 -15t-15 -4h-48q-11 0 -15 4t-3 15zM170 368q0 -286 182 -286q93 0 136 69.5t43 187.5q0 122 -43 195.5t-139 73.5 q-93 0 -136 -68t-43 -172z" />
<glyph unicode="&#x153;" horiz-adv-x="830" d="M606 -12q-122 0 -176 79q-59 -79 -174 -79q-104 0 -162.5 63.5t-58.5 188.5q0 75 23 130t60.5 83t75.5 40.5t78 12.5q115 0 168 -75q58 75 165 75q55 0 94.5 -20.5t60.5 -56t30.5 -74t9.5 -82.5q0 -22 -1 -34q-1 -10 -4 -13t-14 -3h-294q5 -72 35.5 -111.5t105.5 -39.5 q54 0 113 26q14 7 20 -8l19 -46q5 -12 -9 -20q-66 -36 -165 -36zM265 70q60 0 87.5 44.5t27.5 132.5t-27.5 132.5t-89.5 44.5q-115 0 -115 -162q0 -192 117 -192zM487 297h208q2 125 -98 125q-59 0 -83.5 -37.5t-26.5 -87.5z" />
<glyph unicode="&#x154;" horiz-adv-x="616" d="M40 15v49q0 15 15 15h52v520h-52q-15 0 -15 15v50q0 15 15 15q128 6 213 6q260 0 260 -186q0 -65 -33 -114.5t-88 -75.5l117 -230h62q15 0 15 -15v-49q0 -15 -15 -15h-132q-15 0 -22 13l-136 269h-20q-32 0 -57 3v-206h63q15 0 15 -15v-49q0 -15 -15 -15h-227 q-15 0 -15 15zM219 602v-241q8 -1 23 -1q81 0 126 32t45 96q0 114 -158 114h-36zM212 746l45 98q6 14 21 14h78q15 0 6 -12l-70 -102q-8 -12 -23 -12h-48q-15 0 -9 14z" />
<glyph unicode="&#x155;" horiz-adv-x="451" d="M343 506q40 0 64 -8q12 -4 12 -18v-135q0 -15 -15 -15h-65q-15 0 -14 15l4 58q-5 1 -17 1q-46 0 -76 -37.5t-30 -100.5v-187h110q15 0 15 -15v-49q0 -15 -15 -15h-275q-15 0 -15 15v49q0 15 15 15h53v334h-54q-15 0 -15 15v52q0 15 15 15h132q14 0 17 -15l11 -71 q17 40 55 68.5t88 28.5zM197 598l42 116q4 11 8.5 14.5t16.5 3.5h72q11 0 13 -3.5t-3 -13.5l-65 -118q-5 -10 -10.5 -13.5t-17.5 -3.5h-43q-11 0 -14 4t1 14z" />
<glyph unicode="&#x156;" horiz-adv-x="616" d="M40 15v49q0 15 15 15h52v520h-52q-15 0 -15 15v50q0 15 15 15q128 6 213 6q260 0 260 -186q0 -65 -33 -114.5t-88 -75.5l117 -230h62q15 0 15 -15v-49q0 -15 -15 -15h-132q-15 0 -22 13l-136 269h-20q-32 0 -57 3v-206h63q15 0 15 -15v-49q0 -15 -15 -15h-227 q-15 0 -15 15zM219 602v-241q8 -1 23 -1q81 0 126 32t45 96q0 114 -158 114h-36zM333 -212l-38 -58q-7 -10 -17 -6l-12 5q-11 4 -6 16l22 72q-2 2 -7.5 9t-8 11.5t-6.5 11.5t-6 14.5t-2 16.5q0 23 14.5 36.5t42.5 13.5q60 0 60 -53q0 -31 -36 -89z" />
<glyph unicode="&#x157;" horiz-adv-x="451" d="M343 506q40 0 64 -8q12 -4 12 -18v-135q0 -15 -15 -15h-65q-15 0 -14 15l4 58q-5 1 -17 1q-46 0 -76 -37.5t-30 -100.5v-187h110q15 0 15 -15v-49q0 -15 -15 -15h-275q-15 0 -15 15v49q0 15 15 15h53v334h-54q-15 0 -15 15v52q0 15 15 15h132q14 0 17 -15l11 -71 q17 40 55 68.5t88 28.5zM173 -212l-38 -58q-7 -10 -17 -6l-12 5q-11 4 -6 16l22 72q-2 2 -7.5 9t-8 11.5t-6.5 11.5t-6 14.5t-2 16.5q0 23 14.5 36.5t42.5 13.5q60 0 60 -53q0 -31 -36 -89z" />
<glyph unicode="&#x158;" horiz-adv-x="616" d="M40 15v49q0 15 15 15h52v520h-52q-15 0 -15 15v50q0 15 15 15q128 6 213 6q260 0 260 -186q0 -65 -33 -114.5t-88 -75.5l117 -230h62q15 0 15 -15v-49q0 -15 -15 -15h-132q-15 0 -22 13l-136 269h-20q-32 0 -57 3v-206h63q15 0 15 -15v-49q0 -15 -15 -15h-227 q-15 0 -15 15zM219 602v-241q8 -1 23 -1q81 0 126 32t45 96q0 114 -158 114h-36zM348 863h55q15 0 6 -12l-82 -107q-9 -12 -24 -12h-76q-15 0 -24 12l-82 107q-9 12 6 12h57q16 0 25 -12l58 -71l57 71q9 12 24 12z" />
<glyph unicode="&#x159;" horiz-adv-x="451" d="M343 506q40 0 64 -8q12 -4 12 -18v-135q0 -15 -15 -15h-65q-15 0 -14 15l4 58q-5 1 -17 1q-46 0 -76 -37.5t-30 -100.5v-187h110q15 0 15 -15v-49q0 -15 -15 -15h-275q-15 0 -15 15v49q0 15 15 15h53v334h-54q-15 0 -15 15v52q0 15 15 15h132q14 0 17 -15l11 -71 q17 40 55 68.5t88 28.5zM315 741h59q16 0 7 -13l-84 -135q-9 -13 -23 -13h-76q-14 0 -23 13l-84 135q-9 13 7 13h59q15 0 23 -12l58 -85l54 84q9 13 23 13z" />
<glyph unicode="&#x15a;" horiz-adv-x="517" d="M283 696q74 0 148 -22q14 -4 14 -18v-138q0 -15 -15 -15h-56q-15 0 -14 15l3 67q-40 24 -90 24q-48 0 -77.5 -23.5t-29.5 -64.5q0 -43 27 -69.5t90 -50.5q37 -14 54 -21t49.5 -26t48 -37.5t29 -49.5t13.5 -69q0 -99 -62.5 -154.5t-177.5 -55.5q-85 0 -168 26 q-14 4 -14 18v159q0 15 15 15h56q15 0 14 -15l-4 -83q13 -12 43.5 -22.5t62.5 -10.5q124 0 124 101q0 49 -33 77.5t-99 50.5q-39 13 -66 26.5t-55 35t-42 54t-14 74.5q0 88 60 145t166 57zM237 746l45 98q6 14 21 14h78q15 0 6 -12l-70 -102q-7 -12 -23 -12h-48q-15 0 -9 14 z" />
<glyph unicode="&#x15b;" horiz-adv-x="431" d="M232 506q67 0 124 -18q14 -4 14 -18v-106q0 -15 -15 -15h-58q-16 0 -13 15l5 51q-30 16 -66 16q-80 0 -80 -56q0 -25 18.5 -41t47 -24t61 -19.5t61 -25.5t47 -43.5t18.5 -72.5q0 -76 -53 -118.5t-149 -42.5q-67 0 -141 20q-13 4 -13 19v106q0 15 15 15h58q15 0 14 -15 l-3 -52q27 -20 77 -20q89 0 89 63q0 32 -25.5 50.5t-62 28.5t-73.5 22.5t-62.5 44t-25.5 82.5q0 66 51 110t140 44zM184 598l42 116q4 11 8.5 14.5t16.5 3.5h72q11 0 13 -3.5t-3 -13.5l-65 -118q-8 -17 -28 -17h-43q-11 0 -14 4t1 14z" />
<glyph unicode="&#x15c;" horiz-adv-x="517" d="M283 696q74 0 148 -22q14 -4 14 -18v-138q0 -15 -15 -15h-56q-15 0 -14 15l3 67q-40 24 -90 24q-48 0 -77.5 -23.5t-29.5 -64.5q0 -43 27 -69.5t90 -50.5q37 -14 54 -21t49.5 -26t48 -37.5t29 -49.5t13.5 -69q0 -99 -62.5 -154.5t-177.5 -55.5q-85 0 -168 26 q-14 4 -14 18v159q0 15 15 15h56q15 0 14 -15l-4 -83q13 -12 43.5 -22.5t62.5 -10.5q124 0 124 101q0 49 -33 77.5t-99 50.5q-39 13 -66 26.5t-55 35t-42 54t-14 74.5q0 88 60 145t166 57zM192 732h-55q-15 0 -6 12l82 107q9 12 24 12h76q15 0 24 -12l82 -107q9 -12 -6 -12 h-57q-16 0 -25 12l-58 71l-57 -71q-9 -12 -24 -12z" />
<glyph unicode="&#x15d;" horiz-adv-x="431" d="M232 506q67 0 124 -18q14 -4 14 -18v-106q0 -15 -15 -15h-58q-16 0 -13 15l5 51q-30 16 -66 16q-80 0 -80 -56q0 -25 18.5 -41t47 -24t61 -19.5t61 -25.5t47 -43.5t18.5 -72.5q0 -76 -53 -118.5t-149 -42.5q-67 0 -141 20q-13 4 -13 19v106q0 15 15 15h58q15 0 14 -15 l-3 -52q27 -20 77 -20q89 0 89 63q0 32 -25.5 50.5t-62 28.5t-73.5 22.5t-62.5 44t-25.5 82.5q0 66 51 110t140 44zM138 580h-59q-16 0 -7 13l84 135q9 13 23 13h76q14 0 23 -13l84 -135q9 -13 -7 -13h-59q-16 0 -23 12l-58 85l-54 -84q-9 -13 -23 -13z" />
<glyph unicode="&#x15e;" horiz-adv-x="517" d="M283 696q74 0 148 -22q14 -4 14 -18v-138q0 -15 -15 -15h-56q-15 0 -14 15l3 67q-40 24 -90 24q-47 0 -76 -23.5t-29 -64.5q0 -42 26 -67.5t90 -49.5q30 -11 44.5 -17.5t42 -20t42.5 -27.5t32 -34.5t24.5 -47.5t7.5 -59q0 -89 -51.5 -143t-146.5 -64l-14 -23l16 -14 q38 -33 38 -62q0 -41 -96 -105q-13 -8 -21 3l-8 10q-9 11 1 20q41 36 41 56t-22 37l-9 7q-11 9 -3 21l32 47q-88 1 -165 26q-14 4 -14 18v159q0 15 15 15h56q15 0 14 -15l-4 -83q13 -12 43.5 -22.5t62.5 -10.5q122 0 122 95q0 53 -32 81.5t-98 50.5q-40 13 -66.5 26 t-54.5 34.5t-42 53.5t-14 74q0 88 60 147t166 59z" />
<glyph unicode="&#x15f;" horiz-adv-x="431" d="M232 506q67 0 124 -18q14 -4 14 -18v-106q0 -15 -15 -15h-58q-16 0 -13 15l5 51q-30 16 -66 16q-80 0 -80 -56q0 -25 18.5 -41t47 -24t61 -19.5t61 -25.5t47 -43.5t18.5 -72.5q0 -66 -41.5 -107.5t-117.5 -50.5l-14 -23l16 -14q38 -33 38 -62q0 -41 -96 -105 q-13 -8 -21 3l-8 10q-9 11 1 20q41 36 41 56t-22 37l-9 7q-11 9 -3 21l32 47q-65 0 -139 20q-13 4 -13 19v106q0 15 15 15h58q15 0 14 -15l-3 -52q27 -20 77 -20q89 0 89 63q0 32 -25.5 50.5t-62 28.5t-73.5 22.5t-62.5 44t-25.5 82.5q0 66 51 110t140 44z" />
<glyph unicode="&#x160;" horiz-adv-x="517" d="M283 696q74 0 148 -22q14 -4 14 -18v-138q0 -15 -15 -15h-56q-15 0 -14 15l3 67q-40 24 -90 24q-48 0 -77.5 -23.5t-29.5 -64.5q0 -43 27 -69.5t90 -50.5q37 -14 54 -21t49.5 -26t48 -37.5t29 -49.5t13.5 -69q0 -99 -62.5 -154.5t-177.5 -55.5q-85 0 -168 26 q-14 4 -14 18v159q0 15 15 15h56q15 0 14 -15l-4 -83q13 -12 43.5 -22.5t62.5 -10.5q124 0 124 101q0 49 -33 77.5t-99 50.5q-39 13 -66 26.5t-55 35t-42 54t-14 74.5q0 88 60 145t166 57zM355 863h55q15 0 6 -12l-82 -107q-9 -12 -24 -12h-76q-15 0 -24 12l-82 107 q-9 12 6 12h57q16 0 25 -12l58 -71l57 71q9 12 24 12z" />
<glyph unicode="&#x161;" horiz-adv-x="431" d="M232 506q67 0 124 -18q14 -4 14 -18v-106q0 -15 -15 -15h-58q-16 0 -13 15l5 51q-30 16 -66 16q-80 0 -80 -56q0 -25 18.5 -41t47 -24t61 -19.5t61 -25.5t47 -43.5t18.5 -72.5q0 -76 -53 -118.5t-149 -42.5q-67 0 -141 20q-13 4 -13 19v106q0 15 15 15h58q15 0 14 -15 l-3 -52q27 -20 77 -20q89 0 89 63q0 32 -25.5 50.5t-62 28.5t-73.5 22.5t-62.5 44t-25.5 82.5q0 66 51 110t140 44zM304 741h59q16 0 7 -13l-84 -135q-9 -13 -23 -13h-76q-14 0 -23 13l-84 135q-9 13 7 13h59q16 0 23 -12l58 -85l54 84q9 13 23 13z" />
<glyph unicode="&#x162;" horiz-adv-x="593" d="M436 0h-107l-20 -32l16 -14q38 -33 38 -62q0 -41 -96 -105q-13 -8 -21 3l-8 10q-9 11 1 20q41 36 41 56t-22 37l-9 7q-11 9 -3 21l41 59h-129q-15 0 -15 15v49q0 15 15 15h82v520h-135l5 -78q1 -15 -14 -15h-61q-15 0 -15 15v143q0 15 15 15h523q15 0 15 -15v-143 q0 -15 -15 -15h-61q-15 0 -14 15l5 78h-135v-520h83q15 0 15 -15v-49q0 -15 -15 -15z" />
<glyph unicode="&#x163;" horiz-adv-x="369" d="M199 413v-252q0 -47 12 -68t48 -21q30 0 61 14q11 4 16 -8l18 -46q5 -12 -9 -20q-39 -20 -97 -23l-13 -21l16 -14q38 -33 38 -62q0 -41 -96 -105q-13 -8 -21 3l-8 10q-9 11 1 20q41 36 41 56t-22 37l-9 7q-11 9 -3 21l33 48q-34 3 -57.5 16.5t-35 28t-17.5 42.5t-7 45.5 t-1 50.5v241h-57q-15 0 -15 15v52q0 15 15 15h57v135q0 15 15 15h82q15 0 15 -15v-135h101q15 0 15 -15v-52q0 -15 -15 -15h-101z" />
<glyph unicode="&#x164;" horiz-adv-x="593" d="M436 0h-278q-15 0 -15 15v49q0 15 15 15h82v520h-135l5 -78q1 -15 -14 -15h-61q-15 0 -15 15v143q0 15 15 15h523q15 0 15 -15v-143q0 -15 -15 -15h-61q-15 0 -14 15l5 78h-135v-520h83q15 0 15 -15v-49q0 -15 -15 -15zM379 863h55q15 0 6 -12l-82 -107q-9 -12 -24 -12 h-76q-15 0 -24 12l-82 107q-9 12 6 12h57q16 0 25 -12l58 -71l57 71q9 12 24 12z" />
<glyph unicode="&#x165;" horiz-adv-x="369" d="M199 413v-252q0 -47 12 -68t48 -21q30 0 61 14q11 4 16 -8l18 -46q5 -12 -9 -20q-48 -24 -114 -24q-30 0 -53.5 6t-38.5 14.5t-25.5 25t-15.5 29t-7.5 35.5t-3 36t-0.5 38v241h-57q-15 0 -15 15v52q0 15 15 15h57v135q0 15 15 15h82q15 0 15 -15v-135h101q15 0 15 -15 v-52q0 -15 -15 -15h-101zM271 559v190q0 15 15 15h72q14 0 13 -15l-32 -190q-3 -15 -18 -15h-35q-15 0 -15 15z" />
<glyph unicode="&#x166;" horiz-adv-x="593" d="M240 345v254h-135l5 -78q1 -15 -14 -15h-61q-15 0 -15 15v143q0 15 15 15h523q15 0 15 -15v-143q0 -15 -15 -15h-61q-15 0 -14 15l5 78h-135v-254h94q11 0 15 -4t4 -15v-20q0 -11 -4 -15t-15 -4h-94v-208h83q15 0 15 -15v-49q0 -15 -15 -15h-278q-15 0 -15 15v49 q0 15 15 15h82v208h-91q-11 0 -15 4t-4 15v20q0 11 4 15t15 4h91z" />
<glyph unicode="&#x167;" horiz-adv-x="369" d="M199 413v-113h97q11 0 15 -4t4 -15v-20q0 -11 -4 -15t-15 -4h-97v-81q0 -47 12 -68t48 -21q30 0 61 14q11 4 16 -8l18 -46q5 -12 -9 -20q-48 -24 -114 -24q-30 0 -53.5 6t-38.5 14.5t-25.5 25t-15.5 29t-7.5 35.5t-3 36t-0.5 38v70h-49q-11 0 -15 4t-4 15v20q0 11 4 15 t15 4h49v113h-57q-15 0 -15 15v52q0 15 15 15h57v135q0 15 15 15h82q15 0 15 -15v-135h101q15 0 15 -15v-52q0 -15 -15 -15h-101z" />
<glyph unicode="&#x168;" horiz-adv-x="713" d="M205 598v-314q0 -50 5 -82.5t20 -63.5t47 -45.5t83 -14.5q90 0 127 52t37 151v317h-53q-15 0 -15 15v51q0 15 15 15h202q15 0 15 -15v-51q0 -15 -15 -15h-53v-338q0 -55 -12 -100t-40 -85.5t-81.5 -63.5t-129.5 -23q-148 0 -206 64.5t-58 196.5v349h-53q-15 0 -15 15v51 q0 15 15 15h218q15 0 15 -15v-51q0 -15 -15 -15h-53zM259 858q27 0 93 -20.5t89 -20.5q34 0 34 27q0 13 15 13h24q12 0 12 -14q0 -50 -21.5 -74.5t-54.5 -24.5q-32 0 -98 19t-81 19q-30 0 -30 -22q0 -7 -2 -8.5t-10 -1.5h-31q-12 0 -12 14q0 53 22 73.5t51 20.5z" />
<glyph unicode="&#x169;" horiz-adv-x="599" d="M510 79h44q15 0 15 -15v-49q0 -15 -15 -15h-112q-12 0 -15 15l-9 56q-64 -83 -168 -83q-162 0 -162 170v255h-53q-15 0 -15 15v52q0 15 15 15h150q15 0 15 -15v-292q0 -60 15.5 -85.5t70.5 -25.5q46 0 79 30t33 68v238h-63q-15 0 -15 15v52q0 15 15 15h160q15 0 15 -15 v-401zM202 712q27 0 93 -20.5t89 -20.5q34 0 34 27q0 13 15 13h24q12 0 12 -14q0 -50 -21.5 -74.5t-54.5 -24.5t-99 19t-80 19q-30 0 -30 -22q0 -7 -2 -8.5t-10 -1.5h-31q-12 0 -12 14q0 53 22 73.5t51 20.5z" />
<glyph unicode="&#x16a;" horiz-adv-x="713" d="M205 598v-314q0 -50 5 -82.5t20 -63.5t47 -45.5t83 -14.5q90 0 127 52t37 151v317h-53q-15 0 -15 15v51q0 15 15 15h202q15 0 15 -15v-51q0 -15 -15 -15h-53v-338q0 -55 -12 -100t-40 -85.5t-81.5 -63.5t-129.5 -23q-148 0 -206 64.5t-58 196.5v349h-53q-15 0 -15 15v51 q0 15 15 15h218q15 0 15 -15v-51q0 -15 -15 -15h-53zM486 760h-260q-11 0 -15 4t-4 15v43q0 11 4 15t15 4h260q11 0 15 -4t4 -15v-43q0 -11 -4 -15t-15 -4z" />
<glyph unicode="&#x16b;" horiz-adv-x="599" d="M510 79h44q15 0 15 -15v-49q0 -15 -15 -15h-112q-12 0 -15 15l-9 56q-64 -83 -168 -83q-162 0 -162 170v255h-53q-15 0 -15 15v52q0 15 15 15h150q15 0 15 -15v-292q0 -60 15.5 -85.5t70.5 -25.5q46 0 79 30t33 68v238h-63q-15 0 -15 15v52q0 15 15 15h160q15 0 15 -15 v-401zM429 612h-260q-11 0 -15 4t-4 15v43q0 11 4 15t15 4h260q11 0 15 -4t4 -15v-43q0 -11 -4 -15t-15 -4z" />
<glyph unicode="&#x16c;" horiz-adv-x="713" d="M205 598v-314q0 -50 5 -82.5t20 -63.5t47 -45.5t83 -14.5q90 0 127 52t37 151v317h-53q-15 0 -15 15v51q0 15 15 15h202q15 0 15 -15v-51q0 -15 -15 -15h-53v-338q0 -55 -12 -100t-40 -85.5t-81.5 -63.5t-129.5 -23q-148 0 -206 64.5t-58 196.5v349h-53q-15 0 -15 15v51 q0 15 15 15h218q15 0 15 -15v-51q0 -15 -15 -15h-53zM382 811q75 0 88 42q4 12 9 15.5t17 3.5h31q11 0 15 -4t3 -15q-4 -56 -48 -87t-118 -31q-78 0 -119.5 31t-43.5 87q0 11 4 15t15 4h32q12 0 16.5 -3.5t7.5 -15.5q11 -42 91 -42z" />
<glyph unicode="&#x16d;" horiz-adv-x="599" d="M510 79h44q15 0 15 -15v-49q0 -15 -15 -15h-112q-12 0 -15 15l-9 56q-64 -83 -168 -83q-162 0 -162 170v255h-53q-15 0 -15 15v52q0 15 15 15h150q15 0 15 -15v-292q0 -60 15.5 -85.5t70.5 -25.5q46 0 79 30t33 68v238h-63q-15 0 -15 15v52q0 15 15 15h160q15 0 15 -15 v-401zM300 660q77 0 92 47q4 12 9 15.5t17 3.5h27q11 0 15 -4t3 -15q-5 -59 -49 -93.5t-117 -34.5q-77 0 -119 34.5t-44 93.5q0 11 4 15t15 4h28q12 0 16.5 -3.5t9.5 -15.5q10 -27 29.5 -37t63.5 -10z" />
<glyph unicode="&#x16e;" horiz-adv-x="713" d="M205 598v-314q0 -50 5 -82.5t20 -63.5t47 -45.5t83 -14.5q90 0 127 52t37 151v317h-53q-15 0 -15 15v51q0 15 15 15h202q15 0 15 -15v-51q0 -15 -15 -15h-53v-338q0 -55 -12 -100t-40 -85.5t-81.5 -63.5t-129.5 -23q-148 0 -206 64.5t-58 196.5v349h-53q-15 0 -15 15v51 q0 15 15 15h218q15 0 15 -15v-51q0 -15 -15 -15h-53zM372 718q-46 0 -72 29t-26 72q0 42 28.5 71t71.5 29q45 0 72 -28t27 -67q0 -46 -28 -76t-73 -30zM374 867q-42 0 -42 -48q0 -21 11 -35t31 -14t31.5 14t11.5 35q0 22 -11.5 35t-31.5 13z" />
<glyph unicode="&#x16f;" horiz-adv-x="599" d="M510 79h44q15 0 15 -15v-49q0 -15 -15 -15h-112q-12 0 -15 15l-9 56q-64 -83 -168 -83q-162 0 -162 170v255h-53q-15 0 -15 15v52q0 15 15 15h150q15 0 15 -15v-292q0 -60 15.5 -85.5t70.5 -25.5q46 0 79 30t33 68v238h-63q-15 0 -15 15v52q0 15 15 15h160q15 0 15 -15 v-401zM291 565q-46 0 -72 29t-26 72q0 42 28.5 71t71.5 29q45 0 72 -28t27 -67q0 -46 -28 -76t-73 -30zM293 714q-42 0 -42 -48q0 -21 11 -35t31 -14t31.5 14t11.5 35q0 22 -11.5 35t-31.5 13z" />
<glyph unicode="&#x170;" horiz-adv-x="713" d="M205 598v-314q0 -50 5 -82.5t20 -63.5t47 -45.5t83 -14.5q90 0 127 52t37 151v317h-53q-15 0 -15 15v51q0 15 15 15h202q15 0 15 -15v-51q0 -15 -15 -15h-53v-338q0 -55 -12 -100t-40 -85.5t-81.5 -63.5t-129.5 -23q-148 0 -206 64.5t-58 196.5v349h-53q-15 0 -15 15v51 q0 15 15 15h218q15 0 15 -15v-51q0 -15 -15 -15h-53zM402 746l45 98q6 14 21 14h68q15 0 6 -12l-70 -102q-8 -12 -23 -12h-38q-15 0 -9 14zM268 746l45 98q6 14 21 14h68q15 0 6 -12l-70 -102q-8 -12 -23 -12h-38q-15 0 -9 14z" />
<glyph unicode="&#x171;" horiz-adv-x="599" d="M510 79h44q15 0 15 -15v-49q0 -15 -15 -15h-112q-12 0 -15 15l-9 56q-64 -83 -168 -83q-162 0 -162 170v255h-53q-15 0 -15 15v52q0 15 15 15h150q15 0 15 -15v-292q0 -60 15.5 -85.5t70.5 -25.5q46 0 79 30t33 68v238h-63q-15 0 -15 15v52q0 15 15 15h160q15 0 15 -15 v-401zM323 594l45 124q4 14 20 14h68q15 0 8 -13l-69 -126q-7 -13 -22 -13h-40q-14 0 -10 14zM185 594l45 124q4 14 20 14h68q15 0 8 -13l-69 -126q-7 -13 -22 -13h-40q-14 0 -10 14z" />
<glyph unicode="&#x172;" horiz-adv-x="713" d="M329 -147q0 66 78 138q-24 -3 -50 -3q-148 0 -206 64.5t-58 196.5v349h-53q-15 0 -15 15v51q0 15 15 15h218q15 0 15 -15v-51q0 -15 -15 -15h-53v-314q0 -50 5 -82.5t20 -63.5t47 -45.5t83 -14.5q90 0 127 52t37 151v317h-53q-15 0 -15 15v51q0 15 15 15h202q15 0 15 -15 v-51q0 -15 -15 -15h-53v-338q0 -164 -118 -249q-94 -68 -94 -139q0 -36 33 -36q18 0 39 11q13 6 19 -6l10 -20q8 -15 -7 -24q-44 -30 -89 -30q-40 0 -62 24t-22 62z" />
<glyph unicode="&#x173;" horiz-adv-x="599" d="M383 -147q0 66 87 147h-28q-12 0 -15 15l-9 56q-64 -83 -168 -83q-162 0 -162 170v255h-53q-15 0 -15 15v52q0 15 15 15h150q15 0 15 -15v-292q0 -60 15.5 -85.5t70.5 -25.5q46 0 79 30t33 68v238h-63q-15 0 -15 15v52q0 15 15 15h160q15 0 15 -15v-401h44q15 0 15 -15 v-49q0 -15 -15 -15h-20q-72 -78 -72 -128q0 -36 33 -36q18 0 39 11q13 6 19 -6l10 -20q8 -15 -7 -24q-44 -30 -89 -30q-40 0 -62 24t-22 62z" />
<glyph unicode="&#x174;" horiz-adv-x="997" d="M216 15l-144 583h-52q-15 0 -15 15v51q0 15 15 15h250q15 0 15 -15v-51q0 -15 -15 -15h-71l107 -465l146 532q4 14 19 14h82q15 0 19 -14l145 -535l115 468h-66q-15 0 -15 15v51q0 15 15 15h211q15 0 15 -15v-51q0 -15 -15 -15h-53l-154 -583q-4 -15 -19 -15h-94 q-15 0 -19 14l-140 498l-134 -498q-4 -14 -19 -14h-110q-15 0 -19 15zM425 732h-55q-15 0 -6 12l82 107q9 12 24 12h76q15 0 24 -12l82 -107q9 -12 -6 -12h-57q-16 0 -25 12l-58 71l-57 -71q-9 -12 -24 -12z" />
<glyph unicode="&#x175;" horiz-adv-x="781" d="M165 480l91 -357l99 358q4 14 19 14h80q15 0 19 -14l102 -360l89 292h-48q-15 0 -15 15v52q0 15 15 15h128q12 0 17.5 -8t2.5 -19l-138 -454q-4 -14 -19 -14h-90q-15 0 -19 15l-95 353l-99 -354q-4 -14 -19 -14h-90q-15 0 -19 14l-109 399h-52q-15 0 -15 15v52 q0 15 15 15h131q15 0 19 -15zM341 580h-59q-16 0 -7 13l84 135q9 13 23 13h76q14 0 23 -13l84 -135q9 -13 -7 -13h-59q-15 0 -23 12l-58 85l-54 -84q-9 -13 -23 -13z" />
<glyph unicode="&#x176;" horiz-adv-x="664" d="M279 257l-202 341h-52q-15 0 -15 15v51q0 15 15 15h254q15 0 15 -15v-51q0 -15 -15 -15h-71l144 -246l143 246h-67q-15 0 -15 15v51q0 15 15 15h211q15 0 15 -15v-51q0 -15 -15 -15h-53l-195 -328v-192h53q15 0 15 -15v-48q0 -15 -15 -15h-218q-15 0 -15 15v48 q0 15 15 15h53v179zM269 732h-55q-15 0 -6 12l82 107q9 12 24 12h76q15 0 24 -12l82 -107q9 -12 -6 -12h-57q-16 0 -25 12l-58 71l-57 -71q-9 -12 -24 -12z" />
<glyph unicode="&#x177;" horiz-adv-x="519" d="M165 481l117 -364l104 296h-51q-15 0 -15 15v52q0 15 15 15h146q12 0 17.5 -9.5t0.5 -20.5l-214 -559q-15 -38 -25.5 -58.5t-30 -44t-47.5 -33.5t-68 -10q-65 0 -111 22q-11 6 -7 19l17 49q4 13 19 9q48 -16 79 -16q30 0 46.5 15.5t34.5 64.5l25 66l-152 424h-50 q-15 0 -15 15v52q0 15 15 15h131q15 0 19 -14zM181 580h-59q-16 0 -7 13l84 135q9 13 23 13h76q14 0 23 -13l84 -135q9 -13 -7 -13h-59q-15 0 -23 12l-58 85l-54 -84q-9 -13 -23 -13z" />
<glyph unicode="&#x178;" horiz-adv-x="664" d="M279 257l-202 341h-52q-15 0 -15 15v51q0 15 15 15h254q15 0 15 -15v-51q0 -15 -15 -15h-71l144 -246l143 246h-67q-15 0 -15 15v51q0 15 15 15h211q15 0 15 -15v-51q0 -15 -15 -15h-53l-195 -328v-192h53q15 0 15 -15v-48q0 -15 -15 -15h-218q-15 0 -15 15v48 q0 15 15 15h53v179zM447 738q-28 0 -45 16.5t-17 45.5q0 28 17 44t45 16q62 0 62 -60q0 -29 -17.5 -45.5t-44.5 -16.5zM244 738q-28 0 -45 16.5t-17 45.5q0 28 17 44t45 16q62 0 62 -60q0 -29 -17.5 -45.5t-44.5 -16.5z" />
<glyph unicode="&#x179;" horiz-adv-x="588" d="M63 679h472q15 0 15 -15v-48q0 -15 -9 -27l-376 -511h306l-6 71q-1 15 14 15h59q15 0 15 -15v-197q0 -15 -15 -15h-56q-15 0 -14 15l3 48h-425q-15 0 -15 15v48q0 15 9 27l372 511h-279l5 -80q1 -15 -14 -15h-61q-15 0 -15 15v143q0 15 15 15zM267 746l45 98q6 14 21 14 h78q15 0 6 -12l-70 -102q-7 -12 -23 -12h-48q-15 0 -9 14z" />
<glyph unicode="&#x17a;" horiz-adv-x="452" d="M422 141l-1 -126q0 -15 -15 -15h-356q-15 0 -15 15v58q0 15 9 27l249 315h-166l2 -53q1 -15 -14 -15h-55q-15 0 -15 15v118q0 15 15 15h343q15 0 15 -15v-56q0 -15 -9 -27l-255 -319h185l-2 63q-1 15 14 15h56q15 0 15 -15zM195 598l42 116q4 11 8.5 14.5t16.5 3.5h72 q11 0 13 -3.5t-3 -13.5l-65 -118q-5 -10 -10.5 -13.5t-17.5 -3.5h-43q-11 0 -14 4t1 14z" />
<glyph unicode="&#x17b;" horiz-adv-x="588" d="M63 679h472q15 0 15 -15v-48q0 -15 -9 -27l-376 -511h306l-6 71q-1 15 14 15h59q15 0 15 -15v-197q0 -15 -15 -15h-56q-15 0 -14 15l3 48h-425q-15 0 -15 15v48q0 15 9 27l372 511h-279l5 -80q1 -15 -14 -15h-61q-15 0 -15 15v143q0 15 15 15zM219 801q0 31 19.5 51.5 t51.5 20.5q33 0 52.5 -20.5t19.5 -51.5t-20 -51t-52 -20q-33 0 -52 20t-19 51z" />
<glyph unicode="&#x17c;" horiz-adv-x="452" d="M422 141l-1 -126q0 -15 -15 -15h-356q-15 0 -15 15v58q0 15 9 27l249 315h-166l2 -53q1 -15 -14 -15h-55q-15 0 -15 15v118q0 15 15 15h343q15 0 15 -15v-56q0 -15 -9 -27l-255 -319h185l-2 63q-1 15 14 15h56q15 0 15 -15zM151 635q0 31 19.5 51.5t51.5 20.5 q33 0 52.5 -20.5t19.5 -51.5t-20 -51t-52 -20q-33 0 -52 20t-19 51z" />
<glyph unicode="&#x17d;" horiz-adv-x="588" d="M63 679h472q15 0 15 -15v-48q0 -15 -9 -27l-376 -511h306l-6 71q-1 15 14 15h59q15 0 15 -15v-197q0 -15 -15 -15h-56q-15 0 -14 15l3 48h-425q-15 0 -15 15v48q0 15 9 27l372 511h-279l5 -80q1 -15 -14 -15h-61q-15 0 -15 15v143q0 15 15 15zM377 863h55q15 0 6 -12 l-82 -107q-9 -12 -24 -12h-76q-15 0 -24 12l-82 107q-9 12 6 12h57q16 0 25 -12l58 -71l57 71q9 12 24 12z" />
<glyph unicode="&#x17e;" horiz-adv-x="452" d="M422 141l-1 -126q0 -15 -15 -15h-356q-15 0 -15 15v58q0 15 9 27l249 315h-166l2 -53q1 -15 -14 -15h-55q-15 0 -15 15v118q0 15 15 15h343q15 0 15 -15v-56q0 -15 -9 -27l-255 -319h185l-2 63q-1 15 14 15h56q15 0 15 -15zM311 741h59q16 0 7 -13l-84 -135 q-9 -13 -23 -13h-76q-14 0 -23 13l-84 135q-9 13 7 13h59q15 0 23 -12l58 -85l54 84q9 13 23 13z" />
<glyph unicode="&#x17f;" horiz-adv-x="358" d="M209 568v-489h106q15 0 15 -15v-49q0 -15 -15 -15h-280q-15 0 -15 15v49q0 15 15 15h62v513q0 34 6 61t21.5 52.5t47 39.5t78.5 14q61 0 117 -25q12 -5 8 -19l-15 -50q-5 -12 -17 -7q-40 18 -71 18q-41 0 -52 -23.5t-11 -84.5z" />
<glyph unicode="&#x192;" d="M111 269h58l17 95q7 38 15.5 62t26.5 51t52.5 40.5t84.5 13.5q59 0 105 -22q17 -8 8 -25l-19 -38q-5 -11 -10 -12.5t-16 2.5q-30 13 -55 13q-42 0 -57.5 -23.5t-26.5 -84.5l-13 -72h117q11 0 14.5 -4t1.5 -15l-7 -43q-1 -11 -6 -15t-16 -3h-117l-49 -264 q-7 -37 -15.5 -61t-27 -50.5t-52.5 -39.5t-83 -13q-59 0 -105 22q-17 8 -8 25l18 39q5 11 10 12.5t16 -2.5q28 -13 56 -13q42 0 57 23t26 83l44 241h-57q-11 -1 -14.5 3t-1.5 15l7 41q1 12 5.5 15.5t16.5 3.5z" />
<glyph unicode="&#x1fa;" horiz-adv-x="696" d="M214 214l-46 -135h60q15 0 15 -15v-49q0 -15 -15 -15h-213q-15 0 -15 15v49q0 15 15 15h59l200 586q-32 34 -32 82q0 42 28.5 71t71.5 29q45 0 72 -28t27 -67q0 -45 -30 -87l202 -586h68q15 0 15 -15v-49q0 -15 -15 -15h-251q-15 0 -15 15v49q0 15 15 15h62l-47 135h-231 zM329 583l-95 -294h189zM292 878l45 98q6 14 21 14h78q15 0 6 -12l-70 -102q-8 -12 -23 -12h-48q-15 0 -9 14zM342 795q-42 0 -42 -48q0 -21 11 -35t31 -14t31.5 14t11.5 35q0 22 -11.5 35t-31.5 13z" />
<glyph unicode="&#x1fb;" horiz-adv-x="524" d="M328 297v35q0 21 -2.5 36t-11 30t-27 23t-46.5 8q-44 0 -63.5 -16.5t-26.5 -47.5q-3 -15 -15 -15h-64q-16 0 -14 15q4 73 59 107t140 34q179 0 179 -164v-263h43q15 0 15 -15v-49q0 -15 -15 -15h-118q-13 0 -15 15l-7 46q-54 -73 -156 -73q-64 0 -106 33.5t-42 107.5 q0 34 11 60.5t26.5 43.5t43 29.5t49.5 18.5t56.5 10t54 4.5t52.5 1.5zM330 151v77q-29 0 -43 -0.5t-41 -3t-41.5 -8.5t-31.5 -15t-24.5 -25t-7.5 -37q0 -69 79 -69q52 0 81 24.5t29 56.5zM256 534q-46 0 -72 29t-26 72q0 42 28.5 71t71.5 29q45 0 72 -28t27 -67 q0 -46 -28 -76t-73 -30zM258 683q-42 0 -42 -48q0 -21 11 -35t31 -14t31.5 14t11.5 35q0 22 -11.5 35t-31.5 13zM217 772l45 98q6 14 21 14h78q15 0 6 -12l-70 -102q-7 -12 -23 -12h-48q-15 0 -9 14z" />
<glyph unicode="&#x1fc;" horiz-adv-x="879" d="M437 214h-198l-71 -135h52q11 1 15 -3t4 -15v-42q0 -11 -4 -15t-15 -4h-201q-11 0 -15 4t-4 15v42q0 11 4 15t15 3h48l277 520h-48q-11 -1 -15 3t-4 15v43q0 11 4 15t15 4h524q11 0 15 -4t4 -15v-126q0 -11 -4 -15t-15 -4h-48q-11 0 -15 4t-3 15l4 65h-209v-213h149 l-4 47q-1 11 3 15t15 4h48q11 0 15 -4t4 -15v-169q0 -11 -4 -15t-15 -4h-48q-11 0 -15 4t-3 15l3 44h-148v-229h229l-4 66q-1 11 3 15t15 4h48q11 0 15 -4t4 -15v-126q0 -11 -4 -15t-15 -4h-452q-11 0 -15 4t-4 15v42q0 11 4 15t15 3h49v135zM437 289v310l-164 -310h164z M512 746l45 98q6 14 21 14h78q15 0 6 -12l-70 -102q-8 -12 -23 -12h-48q-15 0 -9 14z" />
<glyph unicode="&#x1fd;" horiz-adv-x="778" d="M716 22q-72 -34 -160 -34q-115 0 -172 63q-88 -63 -190 -63q-72 0 -115.5 35t-43.5 113q0 35 11 62t26.5 45t43 30.5t49.5 19t56.5 10.5t54 4.5t52.5 1.5v27q0 49 -20 71t-65 22q-81 0 -92 -60q-2 -12 -6.5 -15.5t-16.5 -3.5h-52q-11 0 -14.5 4t-2.5 15q13 137 193 137 q112 0 145 -70q56 70 160 70q53 0 91 -18t59.5 -50t31 -69.5t9.5 -83.5q0 -20 -1 -31q-1 -12 -4.5 -15.5t-15.5 -3.5h-292q0 -163 144 -163q51 0 108 25q11 4 15 2.5t9 -12.5l15 -39q4 -11 2.5 -16t-12.5 -10zM141 145q0 -75 87 -75q35 0 70 13.5t53 29.5q-27 47 -27 122 q-27 -1 -42 -1.5t-40 -3.5t-40 -9t-30.5 -15.5t-23 -25t-7.5 -35.5zM546 422q-31 0 -54 -12t-34.5 -31t-16.5 -36t-6 -34h203q0 23 -3 41t-12 35.5t-28.5 27t-48.5 9.5zM360 598l42 116q4 11 8.5 14.5t16.5 3.5h72q11 0 13 -3.5t-3 -13.5l-65 -118q-8 -17 -28 -17h-43 q-11 0 -14 4t1 14z" />
<glyph unicode="&#x1fe;" horiz-adv-x="692" d="M43 333q0 100 30 174.5t78.5 113.5t99 57t103.5 18q41 0 80 -8l21 55q4 11 8.5 14.5t16.5 3.5h31q11 0 14 -3.5t-1 -14.5l-28 -76q153 -73 153 -306q0 -180 -88.5 -276.5t-227.5 -96.5q-47 0 -84 10l-24 -65q-4 -11 -8.5 -14.5t-16.5 -3.5h-30q-11 0 -14 3.5t1 14.5 l32 86q-146 76 -146 314zM345 82q179 0 179 260q0 156 -66 222l-174 -472q28 -10 61 -10zM163 368q0 -174 65 -241l174 472q-27 9 -60 9q-64 0 -105.5 -34.5t-57.5 -86t-16 -119.5zM301 746l45 98q6 14 21 14h78q15 0 6 -12l-70 -102q-7 -12 -23 -12h-48q-15 0 -9 14z" />
<glyph unicode="&#x1ff;" horiz-adv-x="532" d="M35 240q0 75 23 130t60.5 83t75.5 40.5t78 12.5t69 -7l32 74q4 11 8.5 14.5t16.5 3.5h24q11 0 14 -3.5t-1 -14.5l-41 -95q103 -56 103 -217q0 -134 -67.5 -203.5t-173.5 -69.5q-39 0 -72 9l-34 -80q-4 -11 -8.5 -14.5t-16.5 -3.5h-23q-11 0 -14 3.5t1 14.5l44 102 q-98 60 -98 221zM265 70q60 0 87.5 44.5t27.5 132.5q0 89 -29 134l-131 -302q20 -9 45 -9zM148 262q0 -97 28 -143l129 298q-21 7 -42 7q-115 0 -115 -162zM223 598l42 116q4 11 8.5 14.5t16.5 3.5h72q11 0 13 -3.5t-3 -13.5l-65 -118q-5 -10 -10.5 -13.5t-17.5 -3.5h-43 q-11 0 -14 4t1 14z" />
<glyph unicode="&#x218;" horiz-adv-x="517" d="M283 696q74 0 148 -22q14 -4 14 -18v-138q0 -15 -15 -15h-56q-15 0 -14 15l3 67q-40 24 -90 24q-48 0 -77.5 -23.5t-29.5 -64.5q0 -43 27 -69.5t90 -50.5q37 -14 54 -21t49.5 -26t48 -37.5t29 -49.5t13.5 -69q0 -99 -62.5 -154.5t-177.5 -55.5q-85 0 -168 26 q-14 4 -14 18v159q0 15 15 15h56q15 0 14 -15l-4 -83q13 -12 43.5 -22.5t62.5 -10.5q124 0 124 101q0 49 -33 77.5t-99 50.5q-39 13 -66 26.5t-55 35t-42 54t-14 74.5q0 88 60 145t166 57zM277 -212l-38 -58q-7 -10 -17 -6l-12 5q-11 4 -6 16l22 72q-2 2 -7.5 9t-8 11.5 t-6.5 11.5t-6 14.5t-2 16.5q0 23 14.5 36.5t42.5 13.5q60 0 60 -53q0 -31 -36 -89z" />
<glyph unicode="&#x219;" horiz-adv-x="431" d="M232 506q67 0 124 -18q14 -4 14 -18v-106q0 -15 -15 -15h-58q-16 0 -13 15l5 51q-30 16 -66 16q-80 0 -80 -56q0 -25 18.5 -41t47 -24t61 -19.5t61 -25.5t47 -43.5t18.5 -72.5q0 -76 -53 -118.5t-149 -42.5q-67 0 -141 20q-13 4 -13 19v106q0 15 15 15h58q15 0 14 -15 l-3 -52q27 -20 77 -20q89 0 89 63q0 32 -25.5 50.5t-62 28.5t-73.5 22.5t-62.5 44t-25.5 82.5q0 66 51 110t140 44zM233 -212l-38 -58q-7 -10 -17 -6l-12 5q-11 4 -6 16l22 72q-2 2 -7.5 9t-8 11.5t-6.5 11.5t-6 14.5t-2 16.5q0 23 14.5 36.5t42.5 13.5q60 0 60 -53 q0 -31 -36 -89z" />
<glyph unicode="&#x21a;" horiz-adv-x="593" d="M436 0h-278q-15 0 -15 15v49q0 15 15 15h82v520h-135l5 -78q1 -15 -14 -15h-61q-15 0 -15 15v143q0 15 15 15h523q15 0 15 -15v-143q0 -15 -15 -15h-61q-15 0 -14 15l5 78h-135v-520h83q15 0 15 -15v-49q0 -15 -15 -15zM321 -212l-38 -58q-7 -10 -17 -6l-12 5 q-11 4 -6 16l22 72q-2 2 -7.5 9t-8 11.5t-6.5 11.5t-6 14.5t-2 16.5q0 23 14.5 36.5t42.5 13.5q60 0 60 -53q0 -31 -36 -89z" />
<glyph unicode="&#x21b;" horiz-adv-x="369" d="M199 413v-252q0 -47 12 -68t48 -21q30 0 61 14q11 4 16 -8l18 -46q5 -12 -9 -20q-48 -24 -114 -24q-30 0 -53.5 6t-38.5 14.5t-25.5 25t-15.5 29t-7.5 35.5t-3 36t-0.5 38v241h-57q-15 0 -15 15v52q0 15 15 15h57v135q0 15 15 15h82q15 0 15 -15v-135h101q15 0 15 -15 v-52q0 -15 -15 -15h-101zM209 -212l-38 -58q-7 -10 -17 -6l-12 5q-11 4 -6 16l22 72q-2 2 -7.5 9t-8 11.5t-6.5 11.5t-6 14.5t-2 16.5q0 23 14.5 36.5t42.5 13.5q60 0 60 -53q0 -31 -36 -89z" />
<glyph unicode="&#x237;" horiz-adv-x="289" d="M206 480v-521q0 -199 -177 -199q-76 0 -120 21q-13 7 -8 20l20 55q5 13 19 8q33 -12 70 -12q84 0 84 117v444h-54q-15 0 -15 15v52q0 15 15 15h151q15 0 15 -15z" />
<glyph unicode="&#x2bc;" d="M274 595l-44 -74q-9 -15 -26 -8h-1q-11 5 -13 9t2 15l29 90q-31 41 -31 70q0 24 16.5 40t43.5 16t45 -16t18 -42q0 -17 -6 -35.5t-12 -29.5t-21 -35z" />
<glyph unicode="&#x2c6;" d="M173 580h-59q-16 0 -7 13l84 135q9 13 23 13h76q14 0 23 -13l84 -135q9 -13 -7 -13h-59q-15 0 -23 12l-58 85l-54 -84q-9 -13 -23 -13z" />
<glyph unicode="&#x2c7;" d="M331 741h59q16 0 7 -13l-84 -135q-9 -13 -23 -13h-76q-14 0 -23 13l-84 135q-9 13 7 13h59q15 0 23 -12l58 -85l54 84q9 13 23 13z" />
<glyph unicode="&#x2c9;" d="M380 612h-260q-11 0 -15 4t-4 15v43q0 11 4 15t15 4h260q11 0 15 -4t4 -15v-43q0 -11 -4 -15t-15 -4z" />
<glyph unicode="&#x2d8;" d="M251 660q77 0 92 47q4 12 9 15.5t17 3.5h27q11 0 15 -4t3 -15q-5 -59 -49 -93.5t-117 -34.5q-77 0 -119 34.5t-44 93.5q0 11 4 15t15 4h28q12 0 16.5 -3.5t9.5 -15.5q10 -27 29.5 -37t63.5 -10z" />
<glyph unicode="&#x2d9;" d="M175 635q0 31 19.5 51.5t51.5 20.5q33 0 52.5 -20.5t19.5 -51.5t-20 -51t-52 -20q-33 0 -52 20t-19 51z" />
<glyph unicode="&#x2da;" d="M248 565q-46 0 -72 29t-26 72q0 42 28.5 71t71.5 29q45 0 72 -28t27 -67q0 -46 -28 -76t-73 -30zM250 714q-42 0 -42 -48q0 -21 11 -35t31 -14t31.5 14t11.5 35q0 22 -11.5 35t-31.5 13z" />
<glyph unicode="&#x2db;" d="M142 -147q0 67 93 152l62 -1q-76 -80 -76 -132q0 -36 33 -36q18 0 39 11q13 6 19 -6l10 -20q8 -15 -7 -24q-44 -30 -89 -30q-40 0 -62 24t-22 62z" />
<glyph unicode="&#x2dc;" d="M153 712q27 0 93 -20.5t89 -20.5q34 0 34 27q0 13 15 13h24q12 0 12 -14q0 -50 -21.5 -74.5t-54.5 -24.5q-32 0 -98 19t-81 19q-30 0 -30 -22q0 -7 -2 -8.5t-10 -1.5h-31q-12 0 -12 14q0 53 22 73.5t51 20.5z" />
<glyph unicode="&#x2dd;" d="M224 594l45 124q4 14 20 14h68q15 0 8 -13l-69 -126q-7 -13 -22 -13h-40q-14 0 -10 14zM86 594l45 124q4 14 20 14h68q15 0 8 -13l-69 -126q-7 -13 -22 -13h-40q-14 0 -10 14z" />
<glyph unicode="&#x394;" horiz-adv-x="713" d="M653 0h-602q-19 0 -13 18l243 647q6 14 20 14h103q14 0 20 -14l242 -642q4 -7 0.5 -15t-13.5 -8zM349 583l-181 -504h364z" />
<glyph unicode="&#x3a9;" horiz-adv-x="782" d="M344 79q15 -6 15 -20v-44q0 -15 -15 -15h-257q-15 0 -15 15v49q0 15 15 15h131q-60 40 -96 113t-36 158q0 162 86.5 254.5t219.5 92.5q139 0 220 -89t81 -245q0 -88 -36 -163.5t-97 -120.5h146q15 0 15 -15v-49q0 -15 -15 -15h-257q-15 0 -15 15v44q0 11 13 19 q62 39 96 102t34 172q0 256 -187 256q-89 0 -138.5 -63.5t-49.5 -197.5q0 -99 40.5 -171.5t101.5 -96.5z" />
<glyph unicode="&#x3bc;" horiz-adv-x="599" d="M510 79h44q15 0 15 -15v-49q0 -15 -15 -15h-112q-12 0 -15 15l-9 56q-58 -78 -154 -78q-41 0 -71 10v-190q0 -15 -15 -15h-75q-15 0 -15 15v667q0 15 15 15h82q15 0 15 -15v-294q0 -60 15.5 -85.5t70.5 -25.5q46 0 79 31t33 69v305q0 15 15 15h82q15 0 15 -15v-401z" />
<glyph unicode="&#x3c0;" horiz-adv-x="640" d="M58 495h523q15 0 15 -15v-52q0 -15 -15 -15h-58v-398q0 -15 -15 -15h-82q-15 0 -15 15v398h-176v-398q0 -15 -15 -15h-82q-15 0 -15 15v398h-65q-15 0 -15 15v52q0 15 15 15z" />
<glyph unicode="&#x1e80;" horiz-adv-x="997" d="M216 15l-144 583h-52q-15 0 -15 15v51q0 15 15 15h250q15 0 15 -15v-51q0 -15 -15 -15h-71l107 -465l146 532q4 14 19 14h82q15 0 19 -14l145 -535l115 468h-66q-15 0 -15 15v51q0 15 15 15h211q15 0 15 -15v-51q0 -15 -15 -15h-53l-154 -583q-4 -15 -19 -15h-94 q-15 0 -19 14l-140 498l-134 -498q-4 -14 -19 -14h-110q-15 0 -19 15zM513 841l41 -92q8 -17 -11 -17h-40q-19 0 -30 15l-65 96q-11 15 8 15h70q12 0 17 -3t10 -14z" />
<glyph unicode="&#x1e81;" horiz-adv-x="781" d="M165 480l91 -357l99 358q4 14 19 14h80q15 0 19 -14l102 -360l89 292h-48q-15 0 -15 15v52q0 15 15 15h128q12 0 17.5 -8t2.5 -19l-138 -454q-4 -14 -19 -14h-90q-15 0 -19 15l-95 353l-99 -354q-4 -14 -19 -14h-90q-15 0 -19 14l-109 399h-52q-15 0 -15 15v52 q0 15 15 15h131q15 0 19 -15zM421 714l43 -116q4 -10 1 -14t-14 -4h-44q-12 0 -17.5 3.5t-10.5 13.5l-65 118q-5 10 -3 13.5t13 3.5h72q12 0 16.5 -3.5t8.5 -14.5z" />
<glyph unicode="&#x1e82;" horiz-adv-x="997" d="M216 15l-144 583h-52q-15 0 -15 15v51q0 15 15 15h250q15 0 15 -15v-51q0 -15 -15 -15h-71l107 -465l146 532q4 14 19 14h82q15 0 19 -14l145 -535l115 468h-66q-15 0 -15 15v51q0 15 15 15h211q15 0 15 -15v-51q0 -15 -15 -15h-53l-154 -583q-4 -15 -19 -15h-94 q-15 0 -19 14l-140 498l-134 -498q-4 -14 -19 -14h-110q-15 0 -19 15zM477 746l45 98q6 14 21 14h78q15 0 6 -12l-70 -102q-7 -12 -23 -12h-48q-15 0 -9 14z" />
<glyph unicode="&#x1e83;" horiz-adv-x="781" d="M165 480l91 -357l99 358q4 14 19 14h80q15 0 19 -14l102 -360l89 292h-48q-15 0 -15 15v52q0 15 15 15h128q12 0 17.5 -8t2.5 -19l-138 -454q-4 -14 -19 -14h-90q-15 0 -19 15l-95 353l-99 -354q-4 -14 -19 -14h-90q-15 0 -19 14l-109 399h-52q-15 0 -15 15v52 q0 15 15 15h131q15 0 19 -15zM382 598l42 116q4 11 8.5 14.5t16.5 3.5h72q11 0 13 -3.5t-3 -13.5l-65 -118q-8 -17 -28 -17h-43q-11 0 -14 4t1 14z" />
<glyph unicode="&#x1e84;" horiz-adv-x="997" d="M216 15l-144 583h-52q-15 0 -15 15v51q0 15 15 15h250q15 0 15 -15v-51q0 -15 -15 -15h-71l107 -465l146 532q4 14 19 14h82q15 0 19 -14l145 -535l115 468h-66q-15 0 -15 15v51q0 15 15 15h211q15 0 15 -15v-51q0 -15 -15 -15h-53l-154 -583q-4 -15 -19 -15h-94 q-15 0 -19 14l-140 498l-134 -498q-4 -14 -19 -14h-110q-15 0 -19 15zM609 738q-28 0 -45 16.5t-17 45.5q0 28 17 44t45 16q62 0 62 -60q0 -29 -17.5 -45.5t-44.5 -16.5zM406 738q-28 0 -45 16.5t-17 45.5q0 28 17 44t45 16q62 0 62 -60q0 -29 -17.5 -45.5t-44.5 -16.5z" />
<glyph unicode="&#x1e85;" horiz-adv-x="781" d="M165 480l91 -357l99 358q4 14 19 14h80q15 0 19 -14l102 -360l89 292h-48q-15 0 -15 15v52q0 15 15 15h128q12 0 17.5 -8t2.5 -19l-138 -454q-4 -14 -19 -14h-90q-15 0 -19 15l-95 353l-99 -354q-4 -14 -19 -14h-90q-15 0 -19 14l-109 399h-52q-15 0 -15 15v52 q0 15 15 15h131q15 0 19 -15zM521 595q-28 0 -45 16.5t-17 45.5q0 28 17 44t45 16q62 0 62 -60q0 -29 -17.5 -45.5t-44.5 -16.5zM318 595q-28 0 -45 16.5t-17 45.5q0 28 17 44t45 16q62 0 62 -60q0 -29 -17.5 -45.5t-44.5 -16.5z" />
<glyph unicode="&#x1ef2;" horiz-adv-x="664" d="M279 257l-202 341h-52q-15 0 -15 15v51q0 15 15 15h254q15 0 15 -15v-51q0 -15 -15 -15h-71l144 -246l143 246h-67q-15 0 -15 15v51q0 15 15 15h211q15 0 15 -15v-51q0 -15 -15 -15h-53l-195 -328v-192h53q15 0 15 -15v-48q0 -15 -15 -15h-218q-15 0 -15 15v48 q0 15 15 15h53v179zM340 841l41 -92q8 -17 -11 -17h-40q-19 0 -30 15l-65 96q-11 15 8 15h70q19 0 27 -17z" />
<glyph unicode="&#x1ef3;" horiz-adv-x="519" d="M165 481l117 -364l104 296h-51q-15 0 -15 15v52q0 15 15 15h146q12 0 17.5 -9.5t0.5 -20.5l-214 -559q-15 -38 -25.5 -58.5t-30 -44t-47.5 -33.5t-68 -10q-65 0 -111 22q-11 6 -7 19l17 49q4 13 19 9q48 -16 79 -16q30 0 46.5 15.5t34.5 64.5l25 66l-152 424h-50 q-15 0 -15 15v52q0 15 15 15h131q15 0 19 -14zM273 714l43 -116q4 -10 1 -14t-14 -4h-44q-12 0 -17.5 3.5t-10.5 13.5l-65 118q-5 10 -3 13.5t13 3.5h72q12 0 16.5 -3.5t8.5 -14.5z" />
<glyph unicode="&#x2009;" horiz-adv-x="50" />
<glyph unicode="&#x2013;" d="M481 248h-462q-11 0 -15 4t-4 15v39q0 11 4 15t15 4h462q11 0 15 -4t4 -15v-39q0 -11 -4 -15t-15 -4z" />
<glyph unicode="&#x2014;" horiz-adv-x="999" d="M980 248h-961q-11 0 -15 4t-4 15v39q0 11 4 15t15 4h961q11 0 15 -4t4 -15v-39q0 -11 -4 -15t-15 -4z" />
<glyph unicode="&#x2018;" horiz-adv-x="254" d="M105 664l44 74q9 15 26 8h1q11 -5 13 -9t-2 -15l-29 -90q31 -41 31 -70q0 -24 -16.5 -40t-43.5 -16t-45 16t-18 42q0 17 6 35.5t12 29.5t21 35z" />
<glyph unicode="&#x2019;" horiz-adv-x="254" d="M157 595l-44 -74q-9 -15 -26 -8h-1q-11 5 -13 9t2 15l29 90q-31 41 -31 70q0 24 16.5 40t43.5 16t45 -16t18 -42q0 -17 -6 -35.5t-12 -29.5t-21 -35z" />
<glyph unicode="&#x201a;" horiz-adv-x="254" d="M157 -66l-44 -74q-9 -15 -26 -8h-1q-11 5 -13 9t2 15l29 90q-31 41 -31 70q0 24 16.5 40t43.5 16t45 -16t18 -42q0 -17 -6 -35.5t-12 -29.5t-21 -35z" />
<glyph unicode="&#x201c;" horiz-adv-x="404" d="M105 664l44 74q9 15 26 8h1q11 -5 13 -9t-2 -15l-29 -90q31 -41 31 -70q0 -24 -16.5 -40t-43.5 -16t-45 16t-18 42q0 17 6 35.5t12 29.5t21 35zM255 664l44 74q9 15 26 8h1q11 -5 13 -9t-2 -15l-29 -90q31 -41 31 -70q0 -24 -16.5 -40t-43.5 -16t-45 16t-18 42 q0 17 6 35.5t12 29.5t21 35z" />
<glyph unicode="&#x201d;" horiz-adv-x="404" d="M157 595l-44 -74q-9 -15 -26 -8h-1q-11 5 -13 9t2 15l29 90q-31 41 -31 70q0 24 16.5 40t43.5 16t45 -16t18 -42q0 -17 -6 -35.5t-12 -29.5t-21 -35zM307 595l-44 -74q-9 -15 -26 -8h-1q-11 5 -13 9t2 15l29 90q-31 41 -31 70q0 24 16.5 40t43.5 16t45 -16t18 -42 q0 -17 -6 -35.5t-12 -29.5t-21 -35z" />
<glyph unicode="&#x201e;" horiz-adv-x="394" d="M157 -66l-44 -74q-9 -15 -26 -8h-1q-11 5 -13 9t2 15l29 90q-31 41 -31 70q0 24 16.5 40t43.5 16t45 -16t18 -42q0 -17 -6 -35.5t-12 -29.5t-21 -35zM307 -66l-44 -74q-9 -15 -26 -8h-1q-11 5 -13 9t2 15l29 90q-31 41 -31 70q0 24 16.5 40t43.5 16t45 -16t18 -42 q0 -17 -6 -35.5t-12 -29.5t-21 -35z" />
<glyph unicode="&#x2020;" horiz-adv-x="491" d="M212 -53l-19 464l-122 16q-11 2 -15 6t-4 15v17q0 11 4 15t15 6l123 15l23 159q1 12 5.5 15.5t16.5 3.5h16q11 0 15 -4t6 -15l21 -158l123 -16q11 -2 15 -6t4 -15v-17q0 -11 -4 -15t-15 -6l-124 -16l-17 -464q-1 -11 -5 -15t-15 -4h-27q-11 0 -15 4t-5 15z" />
<glyph unicode="&#x2021;" horiz-adv-x="491" d="M209 303l-16 108l-122 16q-11 2 -15 6t-4 15v17q0 11 4 15t15 6l123 15l23 159q1 12 5.5 15.5t16.5 3.5h16q11 0 15 -4t6 -15l21 -158l123 -16q11 -2 15 -6t4 -15v-17q0 -11 -4 -15t-15 -6l-124 -16l-14 -108l14 -107l124 -16q11 -2 15 -6t4 -15v-17q0 -11 -4 -15t-15 -6 l-123 -16l-21 -158q-2 -11 -6 -15t-15 -4h-16q-12 0 -16.5 3.5t-5.5 15.5l-23 159l-123 15q-11 2 -15 6t-4 15v17q0 11 4 15t15 6l122 16z" />
<glyph unicode="&#x2022;" horiz-adv-x="361" d="M180 248q-47 0 -73.5 26.5t-26.5 66.5q0 39 27.5 66.5t70.5 27.5q47 0 75 -26t28 -67q0 -40 -26.5 -67t-74.5 -27z" />
<glyph unicode="&#x2026;" horiz-adv-x="773" d="M126 -19q-35 0 -55 19.5t-20 49.5q0 29 21 49t53 20q34 0 55 -19t21 -49t-20 -50t-55 -20zM373 -19q-35 0 -55 19.5t-20 49.5q0 29 21 49t53 20q34 0 55 -19t21 -49t-20 -50t-55 -20zM628 -19q-35 0 -55 19.5t-20 49.5q0 29 21 49t53 20q34 0 55 -19t21 -49t-20 -50 t-55 -20z" />
<glyph unicode="&#x2030;" horiz-adv-x="1068" d="M736 151q0 80 44 123t105 43q64 0 103.5 -41.5t39.5 -122.5q0 -79 -41 -124.5t-104 -45.5q-65 0 -106 45.5t-41 122.5zM819 147q0 -52 15 -77t49 -25q33 0 47.5 25t14.5 81q0 55 -13.5 80t-47.5 25q-35 0 -50 -26.5t-15 -82.5zM405 151q0 80 44 123t105 43 q64 0 103.5 -41.5t39.5 -122.5q0 -79 -41 -124.5t-104 -45.5q-65 0 -106 45.5t-41 122.5zM488 147q0 -52 15 -77t49 -25q33 0 47.5 25t14.5 81q0 55 -13.5 80t-47.5 25q-35 0 -50 -26.5t-15 -82.5zM40 491q0 80 44 123t105 43q64 0 103.5 -41.5t39.5 -122.5 q0 -79 -41 -124.5t-104 -45.5q-68 0 -107.5 45t-39.5 123zM123 487q0 -52 15 -77t49 -25q33 0 47.5 25t14.5 81q0 55 -13.5 80t-47.5 25q-35 0 -50 -26.5t-15 -82.5zM558 638l-308 -638q-8 -17 -27 -17h-39q-19 0 -11 17l307 638q8 17 27 17h40q19 0 11 -17z" />
<glyph unicode="&#x2039;" horiz-adv-x="327" d="M190 492h58q19 0 11 -17l-95 -187l92 -187q8 -17 -11 -17h-60q-20 0 -27 17l-85 169q-7 17 1 34l88 171q8 17 28 17z" />
<glyph unicode="&#x203a;" horiz-adv-x="327" d="M137 84h-58q-11 0 -13 3.5t3 13.5l95 188l-93 186q-8 17 11 17h60q20 0 27 -17l85 -169q7 -17 -1 -34l-88 -171q-5 -10 -10.5 -13.5t-17.5 -3.5z" />
<glyph unicode="&#x2044;" horiz-adv-x="123" d="M265 662l-320 -662q-5 -11 -10 -14t-17 -3h-39q-19 0 -11 17l319 662q5 11 10 14t17 3h40q19 0 11 -17z" />
<glyph unicode="&#x2074;" horiz-adv-x="349" d="M254 388h-50q-15 0 -15 15v58h-146q-11 0 -15 4t-4 15v19q0 17 11 34l137 201q11 15 30 15h48q11 0 15 -4t4 -15v-211h44q11 0 15 -4t4 -15v-20q0 -11 -4 -15t-15 -4h-44v-58q0 -15 -15 -15zM189 669l-102 -150h102v150z" />
<glyph unicode="&#x20ac;" horiz-adv-x="527" d="M31 293l2 15q1 12 5.5 15.5t16.5 3.5h37q12 72 51.5 120t85.5 66t99 18q92 0 155 -37q16 -9 16 -27v-88q0 -11 -4 -15t-15 -4h-43q-11 0 -15 4t-3 15l4 50q-36 32 -96 32q-63 0 -97 -37t-40 -97h192q11 0 14.5 -3.5t1.5 -14.5l-3 -17q-1 -11 -5.5 -14.5t-16.5 -3.5h-185 q-1 -21 1 -39h179q11 0 14.5 -4t1.5 -15l-2 -15q-1 -12 -5.5 -15.5t-16.5 -3.5h-165q25 -121 146 -121q51 0 82 19l-4 53q-1 11 2.5 15t14.5 4h45q11 0 15 -4t4 -15v-86q0 -19 -17 -27q-68 -32 -146 -32q-213 0 -245 194h-53q-11 0 -14.5 4t-2.5 15l2 15q2 11 6 15t15 4h42 q-1 19 0 39h-40q-11 0 -14.5 4t-1.5 15z" />
<glyph unicode="&#x2122;" horiz-adv-x="844" d="M270 344h-125q-15 0 -15 15v13q0 15 15 15h31v256h-63l2 -34q1 -15 -14 -15h-16q-15 0 -15 15v55q0 15 15 15h243q15 0 15 -15v-55q0 -15 -15 -15h-14q-15 0 -14 15l2 34h-64v-256h32q15 0 15 -15v-13q0 -15 -15 -15zM575 344h-20q-16 0 -20 14l-92 238v-209h28 q15 0 15 -15v-13q0 -15 -15 -15h-89q-15 0 -15 15v12q0 15 15 15h18v251h-18q-15 0 -15 15v12q0 15 15 15h75q16 0 20 -14l96 -254l99 254q4 14 20 14h67q15 0 15 -15v-12q0 -15 -15 -15h-17v-251h17q15 0 15 -15v-12q0 -15 -15 -15h-96q-15 0 -15 15v13q0 15 15 15h20v200 l-88 -229q-4 -14 -20 -14z" />
<glyph unicode="&#x2126;" horiz-adv-x="782" d="M344 79q15 -6 15 -20v-44q0 -15 -15 -15h-257q-15 0 -15 15v49q0 15 15 15h131q-60 40 -96 113t-36 158q0 162 86.5 254.5t219.5 92.5q139 0 220 -89t81 -245q0 -88 -36 -163.5t-97 -120.5h146q15 0 15 -15v-49q0 -15 -15 -15h-257q-15 0 -15 15v44q0 11 13 19 q62 39 96 102t34 172q0 256 -187 256q-89 0 -138.5 -63.5t-49.5 -197.5q0 -99 40.5 -171.5t101.5 -96.5z" />
<glyph unicode="&#x2202;" horiz-adv-x="596" d="M528 320q0 -167 -56.5 -249.5t-174.5 -82.5q-113 0 -168.5 67t-55.5 172q0 118 57.5 184.5t154.5 66.5q42 0 76 -17t52 -41q-8 99 -37.5 146t-86.5 47q-61 0 -111 -55q-10 -10 -21 0l-35 34q-13 13 -1 25q79 79 174 79q125 0 179 -96.5t54 -279.5zM302 71q36 0 60 19.5 t34.5 55.5t14.5 70.5t4 80.5q0 10 -2 26q-14 31 -43.5 51.5t-70.5 20.5q-108 0 -108 -163q0 -69 26 -115t85 -46z" />
<glyph unicode="&#x2206;" horiz-adv-x="713" d="M653 0h-602q-19 0 -13 18l243 647q6 14 20 14h103q14 0 20 -14l242 -642q4 -7 0.5 -15t-13.5 -8zM349 583l-181 -504h364z" />
<glyph unicode="&#x220f;" horiz-adv-x="749" d="M55 -59h53v723q0 15 15 15h497q15 0 15 -15v-723h53q15 0 15 -15v-49q0 -15 -15 -15h-218q-15 0 -15 15v49q0 15 15 15h53v652h-303v-652h53q15 0 15 -15v-49q0 -15 -15 -15h-218q-15 0 -15 15v49q0 15 15 15z" />
<glyph unicode="&#x2211;" horiz-adv-x="587" d="M417 277l-255 -317h343q15 0 15 -15v-52q0 -15 -15 -15h-460q-15 0 -15 15v48q0 10 10 23l247 310q9 12 1 21l-242 300q-6 8 -6 17v52q0 15 15 15h440q15 0 15 -15v-54q0 -15 -15 -15h-321l242 -297q9 -11 1 -21z" />
<glyph unicode="&#x2212;" horiz-adv-x="530" d="M35 284v27q0 11 4 15t15 4h422q11 0 15 -4t4 -15v-27q0 -11 -4 -15t-15 -4h-422q-11 0 -15 4t-4 15z" />
<glyph unicode="&#x2215;" horiz-adv-x="434" d="M398 727l-295 -810q-4 -11 -8.5 -14.5t-16.5 -3.5h-19q-11 0 -14 3.5t1 14.5l294 810q4 11 8.5 14.5t16.5 3.5h20q11 0 14 -3.5t-1 -14.5z" />
<glyph unicode="&#x2219;" horiz-adv-x="253" d="M126 339q-35 0 -55 19.5t-20 49.5q0 29 21 49t53 20q34 0 55 -19t21 -49t-20 -50t-55 -20z" />
<glyph unicode="&#x221a;" horiz-adv-x="662" d="M154 399l-83 -46q-13 -7 -20 7l-23 47q-6 14 9 22l168 87q15 7 20 -6l123 -357l217 624q5 13 16 13h71q6 0 8.5 -4.5t0.5 -10.5l-269 -762q-5 -13 -16 -13h-67q-11 0 -15 13z" />
<glyph unicode="&#x221e;" horiz-adv-x="739" d="M702 353q0 -71 -40 -115t-100 -50q-27 -3 -57 2q-83 16 -137 86q-78 -92 -168 -92q-73 0 -119 43t-46 115q0 70 47.5 117.5t120.5 47.5q55 0 94 -24.5t76 -74.5q43 51 82 75.5t93 24.5q71 0 112.5 -45.5t41.5 -109.5zM614 347q0 37 -19.5 58t-57.5 21q-55 0 -114 -84 q61 -78 120 -78q33 0 52 24.5t19 58.5zM319 340q-32 46 -58 66t-57 20q-37 0 -57.5 -23.5t-20.5 -59.5q0 -35 22 -58t58 -23q56 0 113 78z" />
<glyph unicode="&#x222b;" horiz-adv-x="390" d="M359 662l-10 -47q-3 -12 -17 -7q-27 9 -51 9q-52 0 -52 -54q0 -19 2 -43l29 -533q3 -75 3 -76q0 -62 -34.5 -94.5t-94.5 -32.5q-45 0 -96 17q-13 4 -9 21l10 47q3 12 17 7q27 -9 51 -9q52 0 52 54q0 13 -2 53l-29 519q-3 78 -3 80q0 62 34.5 94.5t94.5 32.5q45 0 96 -17 q13 -4 9 -21z" />
<glyph unicode="&#x2248;" horiz-adv-x="636" d="M186 275q37 0 133.5 -27.5t131.5 -27.5q23 0 35.5 7.5t12.5 30.5q0 16 15 16h37q15 0 15 -15q1 -71 -29.5 -103.5t-78.5 -32.5q-46 0 -143.5 27t-118.5 27q-24 0 -32.5 -9.5t-8.5 -32.5q0 -13 -14 -13h-44q-15 0 -15 16q0 72 32.5 104.5t71.5 32.5zM180 478 q37 0 133.5 -27.5t131.5 -27.5q23 0 35.5 7.5t12.5 30.5q0 16 15 16h37q15 0 15 -15q1 -71 -29.5 -103.5t-78.5 -32.5q-46 0 -143.5 27t-118.5 27q-24 0 -32.5 -9.5t-8.5 -32.5q0 -13 -14 -13h-44q-15 0 -15 16q0 72 32.5 104.5t71.5 32.5z" />
<glyph unicode="&#x2260;" horiz-adv-x="530" d="M35 339v27q0 11 4 15t15 4h229l31 71q5 11 9.5 14t16.5 3h17q19 0 12 -17l-31 -71h138q11 0 15 -4t4 -15v-27q0 -11 -4 -15t-15 -4h-167l-49 -114h216q11 0 15 -4t4 -15v-27q0 -11 -4 -15t-15 -4h-244l-34 -78q-5 -11 -9.5 -14t-16.5 -3h-17q-19 0 -12 17l34 78h-123 q-11 0 -15 4t-4 15v27q0 11 4 15t15 4h151l49 114h-200q-11 0 -15 4t-4 15z" />
<glyph unicode="&#x2264;" horiz-adv-x="530" d="M477 516v-40q0 -12 -3 -16.5t-14 -9.5l-321 -131l321 -139q17 -8 17 -27v-42q0 -19 -17 -11l-390 175q-11 5 -14 10t-3 17v30q0 12 3 16.5t14 9.5l390 170q17 7 17 -12zM53 19v27q0 11 4 15t15 4h386q11 0 15 -4t4 -15v-27q0 -11 -4 -15t-15 -4h-386q-11 0 -15 4t-4 15z " />
<glyph unicode="&#x2265;" horiz-adv-x="530" d="M53 111v40q0 12 3 16.5t14 9.5l321 131l-321 139q-11 5 -14 10t-3 17v42q0 19 17 11l390 -175q17 -8 17 -27v-30q0 -12 -3 -16.5t-14 -9.5l-390 -170q-17 -7 -17 12zM477 0v65h-424v-65h424z" />
<glyph unicode="&#x25ca;" horiz-adv-x="596" d="M231 14l-168 313q-6 10 2 24l171 314q6 14 20 14h95q14 0 20 -14l162 -313q5 -10 -3 -26l-164 -312q-6 -14 -20 -14h-95q-14 0 -20 14zM300 593l-133 -254l135 -253l133 253z" />
<glyph unicode="&#x25fc;" horiz-adv-x="495" d="M0 495h495v-495h-495v495z" />
<glyph unicode="&#xf6c3;" d="M275 -212l-38 -58q-7 -10 -17 -6l-12 5q-11 4 -6 16l22 72q-2 2 -7.5 9t-8 11.5t-6.5 11.5t-6 14.5t-2 16.5q0 23 14.5 36.5t42.5 13.5q60 0 60 -53q0 -31 -36 -89z" />
<glyph unicode="&#xfb00;" horiz-adv-x="684" d="M209 414v-335h83q15 0 15 -15v-49q0 -15 -15 -15h-257q-15 0 -15 15v49q0 15 15 15h62v335h-62q-15 0 -15 15v51q0 15 15 15h62v87q0 34 6 61t21.5 52.5t47 39.5t78.5 14q61 0 117 -25q12 -5 8 -19l-15 -50q-5 -12 -17 -7q-40 18 -71 18q-41 0 -52 -23.5t-11 -84.5v-63 h214v97q0 34 6 61t21.5 52.5t47 39.5t78.5 14q61 0 117 -25q12 -5 8 -19l-15 -50q-5 -12 -17 -7q-41 18 -71 18q-41 0 -52 -23.5t-11 -84.5v-73h121q15 0 15 -15v-51q0 -15 -15 -15h-121v-335h106q15 0 15 -15v-49q0 -15 -15 -15h-270q-15 0 -15 15v49q0 15 15 15h52v335 h-214z" />
<glyph unicode="&#xfb01;" horiz-adv-x="612" d="M209 414v-335h76q15 0 15 -15v-49q0 -15 -15 -15h-250q-15 0 -15 15v49q0 15 15 15h62v335h-62q-15 0 -15 15v51q0 15 15 15h62v97q0 70 43 118.5t137 48.5q88 0 160 -35q12 -5 8 -19l-17 -50q-5 -12 -17 -7q-66 28 -116 28q-47 0 -66.5 -25.5t-19.5 -82.5v-73h300 q15 0 15 -15v-401h63q15 0 15 -15v-49q0 -15 -15 -15h-228q-15 0 -15 15v49q0 15 15 15h53v335h-203z" />
<glyph unicode="&#xfb02;" horiz-adv-x="622" d="M534 729v-650h63q15 0 15 -15v-49q0 -15 -15 -15h-238q-15 0 -15 15v49q0 15 15 15h63v564q-68 33 -122 33q-51 0 -71 -25t-20 -83v-73h121q15 0 15 -15v-51q0 -15 -15 -15h-121v-335h76q15 0 15 -15v-49q0 -15 -15 -15h-250q-15 0 -15 15v49q0 15 15 15h62v335h-62 q-15 0 -15 15v51q0 15 15 15h62v97q0 70 43 118.5t137 48.5q86 0 156 -33l80 17q21 5 21 -14z" />
<glyph unicode="&#xfb03;" horiz-adv-x="938" d="M209 414v-335h83q15 0 15 -15v-49q0 -15 -15 -15h-257q-15 0 -15 15v49q0 15 15 15h62v335h-62q-15 0 -15 15v51q0 15 15 15h62v87q0 34 6 61t21.5 52.5t47 39.5t78.5 14q61 0 117 -25q12 -5 8 -19l-15 -50q-5 -12 -17 -7q-40 18 -71 18q-41 0 -52 -23.5t-11 -84.5v-63 h214v97q0 70 43 118.5t137 48.5q88 0 160 -35q12 -5 8 -19l-17 -50q-5 -12 -17 -7q-66 28 -116 28q-47 0 -66.5 -25.5t-19.5 -82.5v-73h300q15 0 15 -15v-401h63q15 0 15 -15v-49q0 -15 -15 -15h-228q-15 0 -15 15v49q0 15 15 15h53v335h-203v-335h76q15 0 15 -15v-49 q0 -15 -15 -15h-250q-15 0 -15 15v49q0 15 15 15h62v335h-214z" />
<glyph unicode="&#xfb04;" horiz-adv-x="950" d="M209 414v-335h83q15 0 15 -15v-49q0 -15 -15 -15h-257q-15 0 -15 15v49q0 15 15 15h62v335h-62q-15 0 -15 15v51q0 15 15 15h62v87q0 34 6 61t21.5 52.5t47 39.5t78.5 14q61 0 117 -25q12 -5 8 -19l-15 -50q-5 -12 -17 -7q-40 18 -71 18q-41 0 -52 -23.5t-11 -84.5v-63 h216v97q0 70 43 118.5t137 48.5q86 0 156 -33l80 17q21 5 21 -14v-650h63q15 0 15 -15v-49q0 -15 -15 -15h-238q-15 0 -15 15v49q0 15 15 15h63v564q-68 33 -122 33q-51 0 -71 -25t-20 -83v-73h121q15 0 15 -15v-51q0 -15 -15 -15h-121v-335h76q15 0 15 -15v-49 q0 -15 -15 -15h-250q-15 0 -15 15v49q0 15 15 15h62v335h-216z" />
<glyph horiz-adv-x="282" d="M233 278h-184q-11 0 -15 4t-4 15v39q0 11 4 15t15 4h184q11 0 15 -4t4 -15v-39q0 -11 -4 -15t-15 -4z" />
<glyph horiz-adv-x="294" d="M206 79v401q0 15 -15 15h-151q-15 0 -15 -15v-52q0 -15 15 -15h54v-334h-63q-15 0 -15 -15v-49q0 -15 15 -15h238q15 0 15 15v49q0 15 -15 15h-63zM66 635q0 31 19.5 51.5t51.5 20.5q33 0 52.5 -20.5t19.5 -51.5t-20 -51t-52 -20q-33 0 -52 20t-19 51z" />
<glyph horiz-adv-x="677" d="M507 413v-252q0 -47 12 -68t48 -21q29 0 61 14q11 4 16 -8l18 -46q5 -12 -9 -20q-48 -24 -114 -24q-30 0 -53.5 6t-38.5 14.5t-25.5 25t-15.5 29t-7.5 35.5t-3 36t-0.5 38v241h-196v-252q0 -47 12 -68t48 -21q30 0 61 14q11 4 16 -8l18 -46q5 -12 -9 -20 q-48 -24 -114 -24q-30 0 -53.5 6t-38.5 14.5t-25.5 25t-15.5 29t-7.5 35.5t-3 36t-0.5 38v241h-57q-15 0 -15 15v52q0 15 15 15h57v135q0 15 15 15h82q15 0 15 -15v-135h196v135q0 15 15 15h82q15 0 15 -15v-135h101q15 0 15 -15v-52q0 -15 -15 -15h-101z" />
<glyph d="M224 724l43 68q8 12 18 7l12 -6q9 -4 5 -17l-27 -81q2 -2 7.5 -9t8 -11.5t6.5 -11.5t6 -14.5t2 -16.5q0 -23 -15 -37.5t-42 -14.5q-60 0 -60 55q0 31 36 89z" />
<glyph d="M153 858q27 0 93 -20.5t89 -20.5q34 0 34 27q0 13 15 13h24q12 0 12 -14q0 -50 -21.5 -74.5t-54.5 -24.5q-32 0 -98 19t-81 19q-30 0 -30 -22q0 -7 -2 -8.5t-10 -1.5h-31q-12 0 -12 14q0 53 22 73.5t51 20.5z" />
<glyph d="M248 718q-46 0 -72 29t-26 72q0 42 28.5 71t71.5 29q45 0 72 -28t27 -67q0 -46 -28 -76t-73 -30zM250 867q-42 0 -42 -48q0 -21 11 -35t31 -14t31.5 14t11.5 35q0 22 -11.5 35t-31.5 13z" />
<glyph d="M167 732h-55q-15 0 -6 12l82 107q9 12 24 12h76q15 0 24 -12l82 -107q9 -12 -6 -12h-57q-16 0 -25 12l-58 71l-57 -71q-9 -12 -24 -12z" />
<glyph d="M147 746l45 98q6 14 21 14h78q15 0 6 -12l-70 -102q-7 -12 -23 -12h-48q-15 0 -9 14z" />
<glyph d="M303 841l41 -92q8 -17 -11 -17h-40q-19 0 -30 15l-65 96q-11 15 8 15h70q12 0 17 -3t10 -14z" />
<glyph d="M351 738q-28 0 -45 16.5t-17 45.5q0 28 17 44t45 16q62 0 62 -60q0 -29 -17.5 -45.5t-44.5 -16.5zM148 738q-28 0 -45 16.5t-17 45.5q0 28 17 44t45 16q62 0 62 -60q0 -29 -17.5 -45.5t-44.5 -16.5z" />
<glyph d="M333 863h55q15 0 6 -12l-82 -107q-9 -12 -24 -12h-76q-15 0 -24 12l-82 107q-9 12 6 12h57q16 0 25 -12l58 -71l57 71q9 12 24 12z" />
<glyph d="M380 760h-260q-11 0 -15 4t-4 15v43q0 11 4 15t15 4h260q11 0 15 -4t4 -15v-43q0 -11 -4 -15t-15 -4z" />
<glyph d="M175 801q0 31 19.5 51.5t51.5 20.5q33 0 52.5 -20.5t19.5 -51.5t-20 -51t-52 -20q-33 0 -52 20t-19 51z" />
<glyph d="M240 3h42l-22 -35l16 -14q38 -33 38 -62q0 -41 -96 -105q-13 -8 -21 3l-8 10q-9 11 1 20q41 36 41 56t-22 37l-9 7q-10 9 -3 21z" />
<glyph d="M256 746l45 98q6 14 21 14h68q15 0 6 -12l-70 -102q-8 -12 -23 -12h-38q-15 0 -9 14zM122 746l45 98q6 14 21 14h68q15 0 6 -12l-70 -102q-7 -12 -23 -12h-38q-15 0 -9 14z" />
<glyph d="M275 -212l-38 -58q-7 -10 -17 -6l-12 5q-11 4 -6 16l22 72q-2 2 -7.5 9t-8 11.5t-6.5 11.5t-6 14.5t-2 16.5q0 23 14.5 36.5t42.5 13.5q60 0 60 -53q0 -31 -36 -89z" />
<glyph d="M256 811q75 0 88 42q4 12 9 15.5t17 3.5h31q11 0 15 -4t3 -15q-4 -56 -48 -87t-118 -31q-78 0 -119.5 31t-43.5 87q0 11 4 15t15 4h32q12 0 16.5 -3.5t7.5 -15.5q11 -42 91 -42z" />
<glyph d="M201 541v190q0 15 15 15h72q14 0 13 -15l-32 -190q-3 -15 -18 -15h-35q-15 0 -15 15z" />
<glyph d="M142 -147q0 67 93 152l62 -1q-76 -80 -76 -132q0 -36 33 -36q18 0 39 11q13 6 19 -6l10 -20q8 -15 -7 -24q-44 -30 -89 -30q-40 0 -62 24t-22 62z" />
</font>
</defs>
</svg>
